<svg width="28" height="25" viewBox="0 0 28 25" fill="none" xmlns="http://www.w3.org/2000/svg">
<path d="M26.292 8.54644L24.374 2.84883C24.0965 2.01704 23.5612 1.29362 22.8446 0.781968C22.128 0.270319 21.2667 -0.00336668 20.384 3.12614e-05H7.63C6.74778 -0.00124969 5.88755 0.273258 5.17135 0.78461C4.45516 1.29596 3.91937 2.01819 3.64 2.84883L1.722 8.54644C0.714 8.96333 0 9.96389 0 11.1034V18.0517C0.00294944 18.5367 0.133725 19.0126 0.379329 19.4319C0.624933 19.8512 0.976814 20.1994 1.4 20.4419V23.6103C1.4 24.3747 2.03 25 2.8 25H4.2C4.97 25 5.6 24.3747 5.6 23.6103V20.831H22.4V23.6103C22.4 24.3747 23.03 25 23.8 25H25.2C25.97 25 26.6 24.3747 26.6 23.6103V20.4419C27.0232 20.1994 27.3751 19.8512 27.6207 19.4319C27.8663 19.0126 27.997 18.5367 28 18.0517V11.1034C28 9.94999 27.286 8.96333 26.278 8.54644H26.292ZM23.814 14.5776C23.814 15.731 22.876 16.662 21.714 16.662C20.552 16.662 19.614 15.731 19.614 14.5776C19.614 13.4241 20.552 12.4931 21.714 12.4931C22.876 12.4931 23.814 13.4241 23.814 14.5776ZM8.414 14.5776C8.414 15.731 7.476 16.662 6.314 16.662C5.152 16.662 4.214 15.731 4.214 14.5776C4.214 13.4241 5.152 12.4931 6.314 12.4931C7.476 12.4931 8.414 13.4241 8.414 14.5776ZM7.63 2.76545H20.398C20.6915 2.7647 20.9778 2.85553 21.2165 3.0251C21.4551 3.19467 21.6341 3.43441 21.728 3.71042L23.282 8.32409H4.76L6.314 3.71042C6.40792 3.43441 6.58686 3.19467 6.82552 3.0251C7.06418 2.85553 7.3505 2.7647 7.644 2.76545H7.63Z" fill="black"/>
</svg>
