<svg width="24" height="27" viewBox="0 0 24 27" fill="none" xmlns="http://www.w3.org/2000/svg">
<path d="M21.3347 14.2898L12.7009 22.7968C11.569 23.7863 10.0955 24.313 8.58191 24.2692C7.0683 24.2254 5.6289 23.6143 4.55815 22.561C3.48739 21.5077 2.86621 20.0917 2.82165 18.6027C2.7771 17.1138 3.31254 15.6643 4.31845 14.5509L15.495 3.55638C16.1623 2.93285 17.0475 2.5852 17.9678 2.5852C18.8881 2.5852 19.7733 2.93285 20.4406 3.55638C21.0907 4.20449 21.4553 5.07839 21.4553 5.98892C21.4553 6.89944 21.0907 7.77334 20.4406 8.42145L10.8008 17.8905C10.7054 17.9915 10.5907 18.0731 10.4633 18.1306C10.3358 18.188 10.1981 18.2203 10.058 18.2254C9.77504 18.2357 9.49951 18.135 9.29201 17.9454C9.18927 17.8516 9.10633 17.7388 9.04792 17.6134C8.9895 17.488 8.95677 17.3525 8.95158 17.2147C8.9411 16.9363 9.04346 16.6653 9.23613 16.4612L16.4031 9.4247C16.6662 9.16591 16.814 8.81492 16.814 8.44894C16.814 8.08296 16.6662 7.73196 16.4031 7.47318C16.14 7.21439 15.7832 7.069 15.4112 7.069C15.0391 7.069 14.6823 7.21439 14.4193 7.47318L7.25229 14.5371C6.89367 14.8872 6.60903 15.3036 6.41479 15.7624C6.22055 16.2211 6.12055 16.7132 6.12055 17.2102C6.12055 17.7072 6.22055 18.1992 6.41479 18.658C6.60903 19.1168 6.89367 19.5332 7.25229 19.8832C7.98488 20.5697 8.95784 20.9526 9.96959 20.9526C10.9813 20.9526 11.9543 20.5697 12.6869 19.8832L22.3127 10.4005C23.4232 9.2281 24.0278 7.6775 23.999 6.07531C23.9703 4.47313 23.3105 2.94446 22.1586 1.81137C21.0068 0.678282 19.4528 0.0292322 17.8241 0.000963506C16.1954 -0.0273052 14.6191 0.567414 13.4273 1.65983L2.25079 12.6543C0.743628 14.2964 -0.0613227 16.4472 0.00364808 18.6587C0.0686189 20.8701 0.9985 22.9716 2.59955 24.5253C4.2006 26.079 6.34933 26.9651 8.59807 26.999C10.8468 27.0328 13.0221 26.2119 14.6707 24.7071L23.3186 16.2138C23.4488 16.0857 23.5522 15.9335 23.6227 15.7661C23.6932 15.5987 23.7294 15.4193 23.7294 15.238C23.7294 15.0568 23.6932 14.8774 23.6227 14.71C23.5522 14.5425 23.4488 14.3904 23.3186 14.2623C23.1883 14.1341 23.0337 14.0325 22.8635 13.9632C22.6933 13.8938 22.5109 13.8581 22.3267 13.8581C22.1424 13.8581 21.96 13.8938 21.7898 13.9632C21.6196 14.0325 21.465 14.1341 21.3347 14.2623V14.2898Z" fill="#A647FF"/>
</svg>
