<svg width="19" height="19" viewBox="0 0 19 19" fill="none" xmlns="http://www.w3.org/2000/svg">
<path d="M7.80696 7.43846L5.63491 5.66543C5.38242 5.4475 5.25615 5.33937 5.28863 5.23061C5.32026 5.12183 5.48642 5.09694 5.81785 5.04883L6.82772 4.89809C7.21255 4.84107 7.26276 4.74535 7.09982 4.39888L6.08117 2.23663C5.87976 1.8076 5.7782 1.59307 5.87712 1.50602C5.97606 1.41813 6.18096 1.53982 6.59162 1.78322L8.36205 2.8355C8.66686 3.01672 8.69792 3.009 8.86453 2.69776L9.62055 1.28552C9.81761 0.917691 9.91614 0.733777 10.041 0.751753C10.1667 0.769747 10.2076 0.97449 10.2902 1.38231L10.8149 3.98824C10.8844 4.33007 10.9726 4.37922 11.3016 4.24851L13.266 3.46909C13.608 3.33361 13.7786 3.26587 13.8625 3.3503C13.9464 3.43473 13.8739 3.60239 13.7291 3.93686L12.0932 7.53509M9.93896 7.48652L9.53862 6.21414" stroke="black" stroke-width="1.5" stroke-linecap="round" stroke-linejoin="round"/>
<path d="M4.95197 9.90089L0.882655 9.80916M4.95197 9.90089C5.6011 10.3375 6.15208 10.408 6.8457 10.774C7.7049 11.2937 8.10166 12.0775 8.0689 13.3401C8.04993 14.1819 8.14206 15.0431 7.86062 15.5C7.53821 16.0233 5.6356 15.8103 5.46408 15.8064C5.44317 16.7341 4.73486 17.4761 3.71089 17.4531C2.77096 17.4319 2.02049 16.6569 2.0414 15.7293M4.95197 9.90089C4.08648 9.31792 3.62897 8.25986 3.10951 7.40002C2.39015 6.12044 1.37528 5.69329 0.987754 5.6037M2.0414 15.7293C2.05187 15.2845 2.24122 14.862 2.56808 14.5541C2.89495 14.2462 3.33277 14.0778 3.78594 14.0858C4.80991 14.1089 5.48311 14.9242 5.46322 15.8064M2.0414 15.7293L0.749854 15.7002M13.9654 10.1016L18.0347 10.1933M13.9654 10.1016C13.2972 10.5093 12.7437 10.5541 12.0342 10.8893C11.1516 11.3697 10.7208 12.1349 10.6966 13.3985C10.6776 14.2403 10.5468 15.0965 10.8074 15.5656C11.1058 16.1029 13.0161 15.9758 13.1876 15.9797M13.9654 10.1016C14.8563 9.55818 15.361 8.52181 15.9187 7.68625C16.695 6.44039 17.7281 6.05856 18.1192 5.98652M13.1876 15.9797C13.1667 16.9082 13.8409 17.6814 14.8648 17.7045C15.8048 17.7257 16.5894 16.9854 16.6103 16.0569M13.1876 15.9797C13.2075 15.0975 13.9168 14.3133 14.9416 14.3364C15.3947 14.3489 15.8245 14.5368 16.1371 14.8591C16.4498 15.1815 16.6199 15.6121 16.6103 16.0569M16.6103 16.0569L17.9019 16.086" stroke="black" stroke-width="1.5" stroke-linecap="round"/>
</svg>
