<svg width="181" height="173" viewBox="0 0 181 173" fill="none" xmlns="http://www.w3.org/2000/svg">
<g clip-path="url(#clip0_1677_1442)">
<path d="M69.9963 -0.21861C70.4937 -0.220903 70.991 -0.223913 71.4884 -0.227581C72.8324 -0.23525 74.1762 -0.232311 75.5202 -0.226941C76.9305 -0.222646 78.3408 -0.226635 79.7511 -0.229283C82.119 -0.232351 84.4868 -0.228319 86.8546 -0.22026C89.5873 -0.211066 92.3198 -0.214045 95.0525 -0.223345C97.4039 -0.231027 99.7553 -0.232087 102.107 -0.227673C103.509 -0.225047 104.911 -0.224666 106.313 -0.230269C107.632 -0.23517 108.95 -0.231726 110.269 -0.222C110.98 -0.218722 111.691 -0.223702 112.402 -0.228973C115.491 -0.194604 117.2 0.364754 119.497 2.28868C119.654 2.46726 119.812 2.64584 119.975 2.82983C120.219 3.09509 120.219 3.09509 120.469 3.3657C121.641 5.22879 121.706 7.16955 121.654 9.27087C121.639 10.1141 121.625 10.9574 121.61 11.8262C123.826 11.8262 126.043 11.8262 128.326 11.8262C128.443 11.2686 128.56 10.7111 128.68 10.1367C130.243 8.7107 132.325 8.97704 134.35 8.98842C134.921 8.98696 134.921 8.98696 135.503 8.98548C136.309 8.98479 137.114 8.98665 137.919 8.99089C139.141 8.99628 140.363 8.99096 141.585 8.98446C142.369 8.98513 143.154 8.98643 143.939 8.98842C144.3 8.98636 144.661 8.98431 145.033 8.9822C149.067 9.01925 152.517 9.86909 155.547 12.502C158.167 15.4835 158.772 18.6138 158.774 22.444C158.775 22.6865 158.775 22.9289 158.776 23.1788C158.778 23.9893 158.777 24.7999 158.776 25.6105C158.777 26.1983 158.777 26.7861 158.778 27.3739C158.781 28.9877 158.781 30.6016 158.78 32.2155C158.78 33.9566 158.782 35.6977 158.784 37.4388C158.787 40.8493 158.788 44.2599 158.788 47.6704C158.788 50.4426 158.789 53.2148 158.79 55.987C158.793 63.8465 158.795 71.7059 158.794 79.5654C158.794 80.201 158.794 80.201 158.794 80.8493C158.794 81.2735 158.794 81.6977 158.794 82.1348C158.794 89.0107 158.797 95.8866 158.802 102.762C158.808 109.822 158.81 116.882 158.81 123.942C158.81 127.906 158.811 131.87 158.814 135.833C158.818 139.208 158.818 142.582 158.816 145.957C158.815 147.679 158.815 149.4 158.818 151.121C158.821 152.698 158.82 154.275 158.817 155.852C158.816 156.421 158.817 156.991 158.819 157.56C158.834 162.205 158.78 166.49 155.282 170.043C153.166 171.967 150.847 173.04 147.914 173.045C147.5 173.047 147.086 173.048 146.66 173.05C145.975 173.05 145.975 173.05 145.275 173.05C144.787 173.051 144.298 173.052 143.81 173.054C142.464 173.057 141.118 173.058 139.772 173.059C138.322 173.06 136.872 173.064 135.421 173.067C131.917 173.073 128.413 173.077 124.909 173.08C123.259 173.081 121.609 173.083 119.96 173.085C114.475 173.09 108.991 173.095 103.507 173.098C102.084 173.098 100.66 173.099 99.2368 173.1C98.7061 173.1 98.7061 173.1 98.1647 173.1C92.4336 173.103 86.7025 173.112 80.9713 173.123C75.0882 173.134 69.2051 173.14 63.3219 173.141C60.0184 173.142 56.7149 173.145 53.4114 173.153C50.5979 173.161 47.7844 173.163 44.9709 173.16C43.5357 173.158 42.1006 173.159 40.6653 173.166C39.3503 173.172 38.0355 173.171 36.7204 173.166C36.0217 173.165 35.3229 173.17 34.6242 173.176C30.9314 173.151 28.4363 172.321 25.7323 169.911C22.8293 167.028 22.2285 163.967 22.2262 160.017C22.2256 159.774 22.225 159.532 22.2244 159.282C22.2227 158.472 22.2236 157.661 22.2244 156.85C22.2238 156.263 22.223 155.675 22.222 155.087C22.2198 153.473 22.2199 151.859 22.2203 150.245C22.2204 148.504 22.2184 146.763 22.2168 145.022C22.2138 141.612 22.2128 138.201 22.2126 134.79C22.2125 132.018 22.2118 129.246 22.2106 126.474C22.2075 118.614 22.2059 110.755 22.2062 102.896C22.2062 102.472 22.2062 102.048 22.2062 101.612C22.2062 100.975 22.2062 100.975 22.2062 100.326C22.2064 93.4503 22.203 86.5744 22.198 79.6985C22.1929 72.6385 22.1905 65.5786 22.1908 58.5186C22.1909 54.5549 22.19 50.5913 22.1861 46.6276C22.1829 43.253 22.1822 39.8785 22.1846 36.5039C22.1857 34.7824 22.1857 33.0609 22.1827 31.3394C22.1799 29.7627 22.1804 28.186 22.1835 26.6093C22.184 26.0397 22.1834 25.4701 22.1814 24.9005C22.1665 20.2885 22.23 15.6752 25.8069 12.1641C29.1622 9.534 32.8125 8.96427 37.0614 8.98842C37.444 8.98745 37.8266 8.98648 38.2209 8.98548C39.0224 8.98479 39.8239 8.98663 40.6253 8.99089C41.8518 8.99635 43.0779 8.99091 44.3043 8.98446C45.0864 8.98513 45.8684 8.98642 46.6505 8.98842C47.1984 8.98534 47.1984 8.98534 47.7575 8.9822C51.0894 9.0134 51.0894 9.0134 52.3205 10.1367C52.4955 10.973 52.4955 10.973 52.6741 11.8262C54.8906 11.8262 57.1071 11.8262 59.3909 11.8262C59.369 10.9969 59.3471 10.1675 59.3246 9.31311C59.303 6.7018 59.4703 4.55782 61.2247 2.4497C61.5528 2.19882 61.8809 1.94794 62.219 1.68945C62.3978 1.54553 62.5765 1.40161 62.7607 1.25332C65.0254 -0.349561 67.2641 -0.238861 69.9963 -0.21861Z" fill="#F5F7FA"/>
<path d="M37.0614 8.98843C37.444 8.98746 37.8266 8.98649 38.2209 8.98549C39.0224 8.9848 39.8239 8.98664 40.6253 8.9909C41.8518 8.99636 43.0778 8.99092 44.3043 8.98447C45.0864 8.98514 45.8684 8.98643 46.6505 8.98843C47.0158 8.98637 47.3811 8.98432 47.7575 8.98221C49.7473 9.00084 51.1926 9.05868 52.674 10.4746C52.681 11.1372 52.681 11.1372 52.6078 11.9529C52.5882 12.2203 52.5686 12.4878 52.5484 12.7633C52.2435 13.7698 51.8356 13.9917 50.9065 14.5293C50.0394 14.6549 50.0394 14.6549 49.0597 14.654C48.6915 14.6563 48.3233 14.6586 47.944 14.661C47.5481 14.6589 47.1523 14.6568 46.7444 14.6547C45.9048 14.6606 45.0652 14.6665 44.2256 14.6725C42.9029 14.6759 41.5802 14.6771 40.2575 14.6766C38.9803 14.6778 37.7033 14.687 36.4261 14.6969C36.0317 14.6942 35.6372 14.6914 35.2308 14.6886C33.0373 14.7086 31.7106 14.8029 30.049 16.2188C28.5102 17.8884 28.2372 18.7085 28.235 20.9253C28.2343 21.1702 28.2336 21.4151 28.2328 21.6675C28.2308 22.4965 28.2313 23.3256 28.2318 24.1547C28.2309 24.7517 28.2298 25.3488 28.2286 25.9458C28.2258 27.5931 28.2252 29.2404 28.2249 30.8876C28.2242 32.6617 28.2216 34.4357 28.2192 36.2097C28.2144 40.092 28.2123 43.9742 28.2107 47.8564C28.2097 50.279 28.2082 52.7016 28.2066 55.1242C28.2023 61.8274 28.1987 68.5306 28.1975 75.2338C28.1974 75.6631 28.1973 76.0924 28.1972 76.5348C28.1972 76.9651 28.1971 77.3954 28.197 77.8388C28.1969 78.7109 28.1967 79.583 28.1965 80.4551C28.1965 80.8877 28.1964 81.3203 28.1963 81.766C28.1949 88.7773 28.1887 95.7885 28.1805 102.8C28.1721 109.993 28.1677 117.185 28.1673 124.378C28.167 128.419 28.1649 132.46 28.1585 136.5C28.1531 139.941 28.1513 143.381 28.1542 146.822C28.1556 148.578 28.1552 150.334 28.1503 152.091C28.1458 153.698 28.1462 155.304 28.1505 156.911C28.1512 157.493 28.1501 158.076 28.147 158.658C28.1431 159.448 28.1457 160.238 28.15 161.028C28.1498 161.467 28.1496 161.906 28.1493 162.359C28.3173 163.859 28.8061 164.991 29.8599 166.122C31.515 167.377 32.6081 167.635 34.6799 167.641C35.0459 167.642 35.412 167.644 35.7892 167.646C36.3917 167.647 36.3917 167.647 37.0064 167.647C37.4334 167.649 37.8605 167.651 38.3005 167.652C39.4864 167.657 40.6722 167.659 41.858 167.662C43.1367 167.664 44.4153 167.669 45.6939 167.673C47.9093 167.681 50.1248 167.687 52.3402 167.692C55.5434 167.7 58.7466 167.709 61.9497 167.719C67.1465 167.735 72.3433 167.75 77.5401 167.764C82.5886 167.777 87.6372 167.791 92.6857 167.806C92.9968 167.807 93.308 167.808 93.6285 167.809C95.1894 167.813 96.7502 167.818 98.3111 167.823C111.262 167.861 124.213 167.897 137.164 167.932C137.164 155.332 137.164 142.732 137.164 129.75C133.123 129.766 129.082 129.781 124.918 129.798C122.363 129.804 119.808 129.811 117.253 129.816C113.194 129.824 109.136 129.833 105.077 129.852C102.121 129.865 99.166 129.874 96.2104 129.877C94.6451 129.879 93.0798 129.883 91.5145 129.893C90.0416 129.902 88.5689 129.905 87.096 129.903C86.555 129.903 86.014 129.906 85.4731 129.911C84.735 129.918 83.9974 129.916 83.2593 129.913C82.8461 129.914 82.4328 129.915 82.0071 129.916C80.725 129.714 80.3082 129.387 79.5412 128.398C79.3645 127.216 79.3645 127.216 79.5412 126.033C80.2013 125.234 80.7151 124.796 81.6623 124.344C82.3924 124.312 83.1236 124.303 83.8544 124.303C84.1953 124.303 84.1953 124.303 84.5431 124.302C85.3079 124.302 86.0727 124.304 86.8375 124.305C87.3844 124.306 87.9313 124.305 88.4782 124.305C89.966 124.305 91.4537 124.307 92.9415 124.31C94.4951 124.312 96.0488 124.312 97.6025 124.312C100.546 124.313 103.489 124.316 106.433 124.319C110.409 124.324 114.386 124.326 118.362 124.328C124.63 124.331 130.897 124.338 137.164 124.344C137.164 112.19 137.164 100.036 137.164 87.5137C131.185 87.5313 131.185 87.5313 125.085 87.5493C122.564 87.5545 120.043 87.5594 117.521 87.5632C113.517 87.5692 109.513 87.5763 105.509 87.5902C102.593 87.6003 99.6766 87.6068 96.7605 87.6091C95.2163 87.6104 93.6721 87.6135 92.128 87.6209C90.6745 87.6277 89.2212 87.6299 87.7677 87.6283C87.2343 87.6286 86.7009 87.6306 86.1675 87.6345C85.4389 87.6396 84.7106 87.6384 83.982 87.6356C83.5743 87.6365 83.1666 87.6375 82.7466 87.6384C81.5339 87.4989 80.8688 87.1931 79.8948 86.5C79.3483 85.4553 79.4374 84.6098 79.5412 83.459C80.3036 82.4662 80.7247 82.1439 82.0071 81.9411C82.4203 81.9424 82.8335 81.9436 83.2593 81.9449C83.49 81.9437 83.7207 81.9426 83.9585 81.9414C84.731 81.9392 85.5031 81.9466 86.2756 81.954C86.8296 81.9544 87.3836 81.9542 87.9376 81.9534C89.4414 81.953 90.9451 81.961 92.4489 81.9704C94.0205 81.9788 95.5921 81.9796 97.1637 81.9812C100.14 81.9854 103.116 81.9965 106.092 82.0101C110.113 82.028 114.135 82.0353 118.156 82.0432C124.492 82.0559 130.828 82.0828 137.164 82.1074C137.164 69.842 137.164 57.5766 137.164 44.9395C133.153 44.9591 129.141 44.9787 125.008 44.9989C122.471 45.0075 119.933 45.0157 117.396 45.022C113.366 45.032 109.336 45.0438 105.306 45.0669C102.371 45.0837 99.4368 45.0947 96.5021 45.0984C94.948 45.1006 93.394 45.1058 91.8399 45.1181C90.3772 45.1296 88.9146 45.1331 87.4518 45.1306C86.915 45.131 86.3782 45.1344 85.8414 45.1409C85.1079 45.1493 84.3753 45.1472 83.6419 45.1426C83.2316 45.1442 82.8213 45.1457 82.3986 45.1473C80.9652 44.8739 80.4375 44.3317 79.5412 43.25C79.3203 42.0463 79.3203 42.0463 79.5412 40.8848C80.4765 39.9664 81.0653 39.5704 82.3986 39.3669C83.014 39.3688 83.014 39.3688 83.6419 39.3707C83.8715 39.3695 84.1011 39.3684 84.3376 39.3672C85.1042 39.365 85.8703 39.3724 86.6368 39.3798C87.1874 39.3802 87.7379 39.3799 88.2885 39.3792C89.7814 39.3788 91.2741 39.3867 92.7669 39.3962C94.3276 39.4046 95.8884 39.4054 97.4491 39.407C100.404 39.4112 103.358 39.4223 106.313 39.4359C110.306 39.4538 114.3 39.4611 118.293 39.469C124.583 39.4817 130.874 39.5086 137.164 39.5332C137.164 31.2819 137.164 23.0306 137.164 14.5293C134.831 14.5293 132.498 14.5293 130.094 14.5293C128.68 13.5156 128.68 13.5156 128.427 12.7871C128.388 12.3951 128.388 12.3951 128.348 11.9951C128.316 11.7338 128.284 11.4725 128.25 11.2032C128.326 10.4746 128.326 10.4746 128.789 9.89387C129.858 9.11983 130.837 9.07855 132.129 9.06861C132.47 9.06536 132.811 9.06212 133.163 9.05877C133.716 9.05662 133.716 9.05662 134.281 9.05442C134.853 9.05153 134.853 9.05153 135.437 9.04858C136.247 9.04539 137.056 9.04318 137.866 9.04188C139.094 9.03862 140.322 9.02815 141.55 9.01746C142.338 9.01526 143.126 9.01348 143.914 9.01218C144.277 9.00801 144.641 9.00384 145.015 8.99954C149.06 9.01126 152.509 9.86278 155.547 12.502C158.167 15.4835 158.772 18.6138 158.774 22.444C158.775 22.6865 158.775 22.929 158.776 23.1788C158.778 23.9894 158.777 24.7999 158.776 25.6105C158.777 26.1983 158.777 26.7861 158.778 27.3739C158.781 28.9878 158.781 30.6016 158.78 32.2155C158.78 33.9566 158.782 35.6977 158.784 37.4388C158.787 40.8493 158.788 44.2599 158.788 47.6705C158.788 50.4426 158.789 53.2148 158.79 55.987C158.793 63.8465 158.795 71.7059 158.794 79.5654C158.794 80.201 158.794 80.201 158.794 80.8493C158.794 81.2735 158.794 81.6978 158.794 82.1348C158.794 89.0107 158.797 95.8866 158.802 102.762C158.807 109.822 158.81 116.882 158.81 123.942C158.81 127.906 158.811 131.87 158.814 135.833C158.818 139.208 158.818 142.582 158.816 145.957C158.815 147.679 158.815 149.4 158.818 151.122C158.821 152.698 158.82 154.275 158.817 155.852C158.816 156.421 158.817 156.991 158.819 157.56C158.834 162.205 158.78 166.49 155.282 170.043C153.166 171.967 150.847 173.04 147.914 173.045C147.5 173.047 147.086 173.048 146.66 173.05C145.975 173.05 145.975 173.05 145.275 173.05C144.787 173.051 144.298 173.052 143.81 173.054C142.464 173.057 141.118 173.058 139.772 173.059C138.322 173.06 136.872 173.064 135.421 173.067C131.917 173.073 128.413 173.077 124.909 173.08C123.259 173.081 121.609 173.083 119.96 173.085C114.475 173.09 108.991 173.095 103.507 173.098C102.084 173.098 100.66 173.099 99.2368 173.1C98.883 173.1 98.5292 173.1 98.1647 173.1C92.4335 173.103 86.7024 173.112 80.9713 173.123C75.0882 173.134 69.205 173.14 63.3219 173.141C60.0184 173.142 56.7149 173.145 53.4114 173.153C50.5979 173.161 47.7844 173.163 44.9709 173.16C43.5357 173.158 42.1006 173.159 40.6653 173.166C39.3503 173.172 38.0354 173.171 36.7204 173.166C36.0217 173.165 35.3229 173.17 34.6242 173.176C30.9314 173.151 28.4363 172.321 25.7323 169.911C22.8293 167.028 22.2285 163.967 22.2262 160.017C22.2256 159.774 22.225 159.532 22.2244 159.282C22.2227 158.472 22.2236 157.661 22.2244 156.85C22.2238 156.263 22.223 155.675 22.222 155.087C22.2198 153.473 22.2199 151.859 22.2203 150.245C22.2204 148.504 22.2184 146.763 22.2168 145.022C22.2138 141.612 22.2128 138.201 22.2126 134.791C22.2125 132.018 22.2118 129.246 22.2106 126.474C22.2075 118.615 22.2059 110.755 22.2062 102.896C22.2062 102.472 22.2062 102.048 22.2062 101.612C22.2062 100.975 22.2062 100.975 22.2062 100.326C22.2064 93.4503 22.203 86.5744 22.198 79.6985C22.1929 72.6386 22.1905 65.5786 22.1908 58.5186C22.1909 54.555 22.1899 50.5913 22.1861 46.6276C22.1829 43.253 22.1822 39.8785 22.1846 36.5039C22.1857 34.7824 22.1857 33.061 22.1827 31.3395C22.1799 29.7627 22.1804 28.186 22.1835 26.6093C22.184 26.0397 22.1834 25.4701 22.1814 24.9005C22.1665 20.2885 22.23 15.6752 25.8069 12.1641C29.1622 9.53401 32.8125 8.96428 37.0614 8.98843Z" fill="#C7C7C7"/>
<path d="M37.0614 8.98843C37.444 8.98746 37.8266 8.98649 38.2209 8.98549C39.0224 8.9848 39.8239 8.98664 40.6253 8.9909C41.8518 8.99636 43.0778 8.99092 44.3043 8.98447C45.0864 8.98514 45.8684 8.98643 46.6505 8.98843C47.0158 8.98637 47.3811 8.98432 47.7575 8.98221C49.7473 9.00084 51.1926 9.05868 52.674 10.4746C52.681 11.1372 52.681 11.1372 52.6078 11.9529C52.5882 12.2203 52.5686 12.4878 52.5484 12.7633C52.2435 13.7698 51.8356 13.9917 50.9065 14.5293C50.0394 14.6549 50.0394 14.6549 49.0597 14.654C48.6915 14.6563 48.3233 14.6586 47.944 14.661C47.5481 14.6589 47.1523 14.6568 46.7444 14.6547C45.9048 14.6606 45.0652 14.6665 44.2256 14.6725C42.9029 14.6759 41.5802 14.6771 40.2575 14.6766C38.9803 14.6778 37.7033 14.687 36.4261 14.6969C36.0317 14.6942 35.6372 14.6914 35.2308 14.6886C33.0373 14.7086 31.7106 14.8029 30.049 16.2188C28.5102 17.8884 28.2372 18.7085 28.235 20.9253C28.2343 21.1702 28.2336 21.4151 28.2328 21.6675C28.2308 22.4965 28.2313 23.3256 28.2318 24.1547C28.2309 24.7517 28.2298 25.3488 28.2286 25.9458C28.2258 27.5931 28.2252 29.2404 28.2249 30.8876C28.2242 32.6617 28.2216 34.4357 28.2192 36.2097C28.2144 40.092 28.2123 43.9742 28.2107 47.8564C28.2097 50.279 28.2082 52.7016 28.2066 55.1242C28.2023 61.8274 28.1987 68.5306 28.1975 75.2338C28.1974 75.6631 28.1973 76.0924 28.1972 76.5348C28.1972 76.9651 28.1971 77.3954 28.197 77.8388C28.1969 78.7109 28.1967 79.583 28.1965 80.4551C28.1965 80.8877 28.1964 81.3203 28.1963 81.766C28.1949 88.7773 28.1887 95.7885 28.1805 102.8C28.1721 109.993 28.1677 117.185 28.1673 124.378C28.167 128.419 28.1649 132.46 28.1585 136.5C28.1531 139.941 28.1513 143.381 28.1542 146.822C28.1556 148.578 28.1552 150.334 28.1503 152.091C28.1458 153.698 28.1462 155.304 28.1505 156.911C28.1512 157.493 28.1501 158.076 28.147 158.658C28.1431 159.448 28.1457 160.238 28.15 161.028C28.1498 161.467 28.1496 161.906 28.1493 162.359C28.3173 163.859 28.8061 164.991 29.8599 166.122C31.5774 167.424 32.6972 167.635 34.8486 167.64C35.4543 167.643 35.4543 167.643 36.0721 167.645C36.7377 167.646 36.7377 167.646 37.4168 167.646C37.8928 167.647 38.3689 167.649 38.8449 167.65C40.1542 167.654 41.4636 167.656 42.773 167.658C44.1847 167.66 45.5964 167.664 47.0081 167.667C50.4176 167.676 53.8272 167.681 57.2367 167.685C58.1997 167.686 59.1626 167.688 60.1255 167.689C66.1049 167.697 72.0843 167.705 78.0637 167.709C79.4485 167.71 80.8332 167.711 82.218 167.712C82.7342 167.712 82.7342 167.712 83.2609 167.713C88.838 167.717 94.415 167.728 99.992 167.742C105.717 167.757 111.443 167.765 117.168 167.766C120.383 167.768 123.598 167.772 126.812 167.783C129.55 167.792 132.287 167.796 135.025 167.792C136.421 167.79 137.818 167.791 139.214 167.8C140.493 167.807 141.772 167.807 143.052 167.801C143.732 167.799 144.412 167.806 145.093 167.813C147.263 167.794 148.878 167.648 150.714 166.498C152.411 164.793 152.896 163.311 152.897 160.99C152.9 160.62 152.9 160.62 152.903 160.242C152.908 159.416 152.903 158.591 152.899 157.765C152.9 157.167 152.902 156.568 152.905 155.97C152.911 154.326 152.908 152.683 152.904 151.039C152.901 149.266 152.906 147.494 152.909 145.721C152.916 142.248 152.914 138.776 152.91 135.303C152.907 132.482 152.907 129.66 152.908 126.839C152.909 126.236 152.909 126.236 152.909 125.622C152.909 124.807 152.91 123.991 152.91 123.176C152.914 115.528 152.91 107.88 152.902 100.233C152.896 93.6678 152.897 87.1032 152.903 80.5385C152.911 72.9177 152.914 65.297 152.91 57.6762C152.909 56.8639 152.909 56.0516 152.908 55.2393C152.908 54.8396 152.908 54.4399 152.908 54.0281C152.906 51.2091 152.908 48.3901 152.912 45.5711C152.916 42.1368 152.915 38.7025 152.907 35.2682C152.903 33.5154 152.902 31.7626 152.907 30.0098C152.911 28.406 152.908 26.8023 152.901 25.1985C152.899 24.6176 152.9 24.0367 152.904 23.4558C152.908 22.6672 152.903 21.8792 152.897 21.0907C152.897 20.6524 152.896 20.2141 152.896 19.7625C152.628 17.9777 151.769 16.9476 150.377 15.7753C149.159 14.9479 148.532 14.8238 147.053 14.8139C146.682 14.8104 146.312 14.807 145.93 14.8034C145.528 14.8009 145.126 14.7985 144.712 14.7959C143.867 14.7864 143.022 14.7768 142.177 14.7669C140.84 14.7529 139.504 14.7405 138.167 14.7316C136.88 14.7223 135.593 14.7068 134.306 14.6903C133.905 14.6892 133.505 14.6881 133.093 14.687C132.534 14.6786 132.534 14.6786 131.963 14.67C131.636 14.6673 131.308 14.6646 130.971 14.6618C129.931 14.5046 129.442 14.1994 128.68 13.5156C128.427 12.7871 128.427 12.7871 128.348 11.9951C128.316 11.7338 128.284 11.4725 128.25 11.2032C128.326 10.4746 128.326 10.4746 128.789 9.89387C129.858 9.11983 130.837 9.07855 132.129 9.06861C132.47 9.06536 132.811 9.06212 133.163 9.05877C133.716 9.05662 133.716 9.05662 134.281 9.05442C134.853 9.05153 134.853 9.05153 135.437 9.04858C136.247 9.04539 137.056 9.04318 137.866 9.04188C139.094 9.03862 140.322 9.02815 141.55 9.01746C142.338 9.01526 143.126 9.01348 143.914 9.01218C144.277 9.00801 144.641 9.00384 145.015 8.99954C149.06 9.01126 152.509 9.86278 155.547 12.502C158.167 15.4835 158.772 18.6138 158.774 22.444C158.775 22.6865 158.775 22.929 158.776 23.1788C158.778 23.9894 158.777 24.7999 158.776 25.6105C158.777 26.1983 158.777 26.7861 158.778 27.3739C158.781 28.9878 158.781 30.6016 158.78 32.2155C158.78 33.9566 158.782 35.6977 158.784 37.4388C158.787 40.8493 158.788 44.2599 158.788 47.6705C158.788 50.4426 158.789 53.2148 158.79 55.987C158.793 63.8465 158.795 71.7059 158.794 79.5654C158.794 80.201 158.794 80.201 158.794 80.8493C158.794 81.2735 158.794 81.6978 158.794 82.1348C158.794 89.0107 158.797 95.8866 158.802 102.762C158.807 109.822 158.81 116.882 158.81 123.942C158.81 127.906 158.811 131.87 158.814 135.833C158.818 139.208 158.818 142.582 158.816 145.957C158.815 147.679 158.815 149.4 158.818 151.122C158.821 152.698 158.82 154.275 158.817 155.852C158.816 156.421 158.817 156.991 158.819 157.56C158.834 162.205 158.78 166.49 155.282 170.043C153.166 171.967 150.847 173.04 147.914 173.045C147.5 173.047 147.086 173.048 146.66 173.05C145.975 173.05 145.975 173.05 145.275 173.05C144.787 173.051 144.298 173.052 143.81 173.054C142.464 173.057 141.118 173.058 139.772 173.059C138.322 173.06 136.872 173.064 135.421 173.067C131.917 173.073 128.413 173.077 124.909 173.08C123.259 173.081 121.609 173.083 119.96 173.085C114.475 173.09 108.991 173.095 103.507 173.098C102.084 173.098 100.66 173.099 99.2368 173.1C98.883 173.1 98.5292 173.1 98.1647 173.1C92.4335 173.103 86.7024 173.112 80.9713 173.123C75.0882 173.134 69.205 173.14 63.3219 173.141C60.0184 173.142 56.7149 173.145 53.4114 173.153C50.5979 173.161 47.7844 173.163 44.9709 173.16C43.5357 173.158 42.1006 173.159 40.6653 173.166C39.3503 173.172 38.0354 173.171 36.7204 173.166C36.0217 173.165 35.3229 173.17 34.6242 173.176C30.9314 173.151 28.4363 172.321 25.7323 169.911C22.8293 167.028 22.2285 163.967 22.2262 160.017C22.2256 159.774 22.225 159.532 22.2244 159.282C22.2227 158.472 22.2236 157.661 22.2244 156.85C22.2238 156.263 22.223 155.675 22.222 155.087C22.2198 153.473 22.2199 151.859 22.2203 150.245C22.2204 148.504 22.2184 146.763 22.2168 145.022C22.2138 141.612 22.2128 138.201 22.2126 134.791C22.2125 132.018 22.2118 129.246 22.2106 126.474C22.2075 118.615 22.2059 110.755 22.2062 102.896C22.2062 102.472 22.2062 102.048 22.2062 101.612C22.2062 100.975 22.2062 100.975 22.2062 100.326C22.2064 93.4503 22.203 86.5744 22.198 79.6985C22.1929 72.6386 22.1905 65.5786 22.1908 58.5186C22.1909 54.555 22.1899 50.5913 22.1861 46.6276C22.1829 43.253 22.1822 39.8785 22.1846 36.5039C22.1857 34.7824 22.1857 33.061 22.1827 31.3395C22.1799 29.7627 22.1804 28.186 22.1835 26.6093C22.184 26.0397 22.1834 25.4701 22.1814 24.9005C22.1665 20.2885 22.23 15.6752 25.8069 12.1641C29.1622 9.53401 32.8125 8.96428 37.0614 8.98843Z" fill="#444444"/>
<path d="M69.9962 -0.21861C70.4935 -0.220903 70.9909 -0.223913 71.4883 -0.227581C72.8323 -0.23525 74.176 -0.232311 75.52 -0.226941C76.9304 -0.222646 78.3407 -0.226635 79.751 -0.229283C82.1189 -0.232351 84.4866 -0.228319 86.8545 -0.22026C89.5872 -0.211066 92.3196 -0.214045 95.0523 -0.223345C97.4038 -0.231027 99.7552 -0.232087 102.107 -0.227673C103.509 -0.225047 104.911 -0.224666 106.313 -0.230269C107.632 -0.23517 108.95 -0.231726 110.269 -0.222C110.98 -0.218722 111.691 -0.223702 112.402 -0.228973C115.491 -0.194605 117.2 0.364754 119.497 2.28868C119.654 2.46726 119.812 2.64584 119.974 2.82983C120.219 3.09509 120.219 3.09509 120.469 3.3657C122.08 5.92594 121.697 8.96216 121.609 11.8262C121.603 12.0898 121.596 12.3535 121.589 12.6252C121.565 13.4292 121.534 14.2325 121.499 15.0361C121.491 15.2824 121.483 15.5286 121.475 15.7823C121.366 17.8393 120.939 19.7206 119.573 21.3571C119.348 21.5361 119.123 21.7151 118.892 21.8995C118.672 22.0829 118.452 22.2663 118.225 22.4552C115.503 24.1101 112.974 24.1392 109.828 24.1321C109.356 24.1346 108.885 24.1375 108.413 24.1408C107.138 24.1483 105.864 24.1493 104.589 24.1486C103.522 24.1486 102.454 24.1515 101.387 24.1543C98.8673 24.1608 96.3476 24.1618 93.8278 24.1595C91.2356 24.1573 88.6437 24.165 86.0516 24.1775C83.8193 24.1879 81.5871 24.1917 79.3548 24.1904C78.0245 24.1897 76.6944 24.1915 75.3642 24.1998C74.1123 24.2074 72.8607 24.2067 71.6088 24.1999C70.9357 24.1982 70.2626 24.2048 69.5895 24.2117C66.6017 24.184 64.1396 23.6794 61.8868 21.6977C59.9794 19.7673 59.6348 17.6738 59.5233 15.0784C59.5106 14.8136 59.498 14.5488 59.485 14.276C59.4489 13.4595 59.419 12.6429 59.3907 11.8262C59.3755 11.4496 59.3755 11.4496 59.36 11.0654C59.1326 4.96332 59.1326 4.96332 61.2246 2.4497C61.7167 2.07338 61.7167 2.07338 62.2188 1.68945C62.3976 1.54553 62.5764 1.40161 62.7606 1.25332C65.0252 -0.349561 67.264 -0.238861 69.9962 -0.21861Z" fill="#444444"/>
<path d="M68.4307 4.89674C68.8317 4.89293 69.2326 4.88912 69.6457 4.88519C70.0841 4.88793 70.5225 4.89066 70.9742 4.89348C71.6685 4.88993 71.6685 4.88993 72.3768 4.8863C73.6455 4.88014 74.9141 4.88253 76.1829 4.88682C77.5112 4.89024 78.8394 4.88706 80.1677 4.88494C82.3986 4.88248 84.6295 4.88572 86.8605 4.89216C89.4385 4.89951 92.0164 4.89714 94.5945 4.88969C96.8087 4.88355 99.0228 4.88269 101.237 4.88623C102.559 4.88834 103.881 4.88862 105.203 4.88415C106.678 4.87952 108.152 4.88595 109.626 4.89348C110.064 4.89074 110.502 4.88801 110.952 4.88519C111.555 4.89091 111.555 4.89091 112.171 4.89674C112.519 4.89725 112.867 4.89776 113.226 4.89828C114.468 5.11846 115.066 5.57519 115.953 6.41993C116.182 7.53911 116.182 7.53911 116.188 8.85775C116.189 9.09183 116.191 9.32591 116.193 9.56707C116.194 10.061 116.191 10.5549 116.183 11.0487C116.174 11.8019 116.183 12.5533 116.195 13.3064C116.193 13.7875 116.191 14.2686 116.188 14.7497C116.186 15.1853 116.184 15.6208 116.182 16.0695C115.959 17.2038 115.731 17.7854 114.848 18.5721C113.302 19.3883 111.38 19.154 109.664 19.1405C109.205 19.1434 108.745 19.1464 108.272 19.1495C107.014 19.1571 105.757 19.1542 104.499 19.1488C103.181 19.1445 101.864 19.1485 100.547 19.1512C98.3343 19.1542 96.1222 19.1502 93.91 19.1421C91.3538 19.1329 88.7978 19.1359 86.2417 19.1452C84.0454 19.1529 81.8493 19.154 79.6531 19.1495C78.342 19.1469 77.0311 19.1466 75.7201 19.1521C74.2584 19.1579 72.7971 19.1499 71.3354 19.1405C70.9016 19.1439 70.4678 19.1473 70.0208 19.1508C66.7579 19.1118 66.7579 19.1118 65.6619 18.1362C64.8543 16.9497 64.8235 16.1604 64.8244 14.7497C64.8235 14.5153 64.8227 14.2809 64.8218 14.0394C64.8221 13.5461 64.8268 13.0528 64.8357 12.5596C64.8478 11.8059 64.843 11.0535 64.8361 10.2997C64.8385 9.81907 64.842 9.33841 64.8465 8.85775C64.8503 8.4226 64.8541 7.98745 64.8581 7.53911C65.2036 5.4889 66.3567 4.89977 68.4307 4.89674Z" fill="#3B3F47"/>
<path d="M47.563 78.5913C47.8895 78.5874 48.216 78.5835 48.5524 78.5796C49.2426 78.5732 49.9329 78.5688 50.6232 78.5662C51.67 78.5596 52.7159 78.5387 53.7626 78.5173C60.4119 78.4462 60.4119 78.4462 62.9257 80.7559C64.1556 82.0855 64.7309 83.4307 64.7558 85.2028C64.7626 85.6259 64.7626 85.6259 64.7696 86.0576C64.7722 86.3617 64.7748 86.6658 64.7775 86.9791C64.7804 87.2938 64.7832 87.6084 64.7862 87.9326C64.791 88.5992 64.7948 89.2658 64.7976 89.9324C64.8037 90.9463 64.8192 91.9597 64.8348 92.9734C64.8384 93.6221 64.8414 94.2708 64.8438 94.9196C64.85 95.2202 64.8562 95.5209 64.8625 95.8307C64.8542 98.1601 64.2598 99.9208 62.6744 101.713C62.4802 101.864 62.2861 102.014 62.0861 102.17C61.8938 102.326 61.7015 102.482 61.5033 102.642C59.5612 103.794 57.6168 103.84 55.4052 103.846C55.0932 103.848 54.7812 103.85 54.4597 103.853C53.8019 103.856 53.1441 103.858 52.4863 103.858C51.4862 103.859 50.4866 103.871 49.4866 103.884C48.8449 103.886 48.2032 103.888 47.5616 103.888C47.2658 103.893 46.97 103.898 46.6652 103.903C44.0748 103.884 42.226 103.189 40.367 101.452C38.7736 99.189 38.3697 97.1882 38.3798 94.5249C38.378 94.2352 38.3761 93.9454 38.3742 93.6469C38.372 93.0381 38.3724 92.4293 38.3754 91.8205C38.3784 90.895 38.3682 89.9702 38.357 89.0447C38.3565 88.4499 38.3567 87.8551 38.3577 87.2603C38.3538 86.9871 38.3498 86.7138 38.3457 86.4324C38.3739 84.2046 39.0314 82.4459 40.5644 80.7479C40.7618 80.5972 40.9591 80.4465 41.1624 80.2913C41.3588 80.1353 41.5552 79.9794 41.7576 79.8187C43.6391 78.6448 45.3805 78.6113 47.563 78.5913Z" fill="#444444"/>
<path d="M47.6282 36.0738C47.933 36.0711 48.2378 36.0683 48.5519 36.0655C49.1979 36.0609 49.8439 36.0572 50.49 36.0546C51.1469 36.0507 51.8037 36.0438 52.4605 36.0338C53.4128 36.0193 54.3648 36.0139 55.3171 36.0104C55.6067 36.0045 55.8963 35.9986 56.1946 35.9925C58.5638 36.0009 60.7682 36.5187 62.5338 38.1072C63.847 39.5031 64.7758 40.7756 64.7963 42.698C64.8008 42.9868 64.8053 43.2756 64.81 43.5732C64.8108 43.8829 64.8115 44.1927 64.8124 44.5118C64.8159 44.9943 64.8159 44.9943 64.8195 45.4866C64.8231 46.1671 64.8247 46.8476 64.8246 47.5281C64.8262 48.5634 64.839 49.5982 64.8524 50.6334C64.8545 51.296 64.8559 51.9586 64.8565 52.6212C64.8616 52.9282 64.8667 53.2352 64.8719 53.5515C64.8554 55.7836 64.3904 57.6161 62.7929 59.3085C60.638 61.1631 58.3535 61.2677 55.6044 61.2836C55.2767 61.2866 54.949 61.2897 54.6114 61.2928C53.9203 61.2977 53.2292 61.3007 52.538 61.302C51.4866 61.306 50.436 61.3226 49.3847 61.3397C48.7108 61.3429 48.0369 61.3453 47.363 61.347C47.0518 61.3536 46.7405 61.3602 46.4198 61.367C43.9403 61.3498 42.2517 60.6195 40.4682 58.9693C38.6262 56.9818 38.4192 55.2157 38.4023 52.6753C38.3991 52.3782 38.3959 52.0811 38.3926 51.775C38.3875 51.1471 38.3843 50.5192 38.383 49.8913C38.3788 48.9397 38.3614 47.9888 38.3436 47.0374C38.2847 40.9105 38.2847 40.9105 40.301 38.5195C41.1323 37.758 41.1323 37.758 41.936 37.3158C42.3366 37.0852 42.3366 37.0852 42.7452 36.8499C44.3563 36.0684 45.8629 36.0888 47.6282 36.0738Z" fill="#444444"/>
<path d="M45.3716 121.238C45.6809 121.232 45.9902 121.227 46.3089 121.221C47.7249 121.206 49.141 121.192 50.5571 121.184C51.3022 121.179 52.0472 121.17 52.7922 121.157C53.8699 121.138 54.9472 121.131 56.0252 121.126C56.3552 121.118 56.6853 121.111 57.0253 121.103C59.3021 121.11 60.8696 121.504 62.5721 122.992C64.5088 125.022 65.0084 126.789 64.9501 129.487C64.9506 129.966 64.9506 129.966 64.9511 130.455C64.9495 131.125 64.9427 131.796 64.9309 132.466C64.9142 133.487 64.9164 134.506 64.9211 135.526C64.9171 136.181 64.9121 136.836 64.9059 137.491C64.9068 137.944 64.9068 137.944 64.9078 138.405C64.8563 140.603 64.3774 142.468 62.7802 144.119C60.6043 145.957 58.6241 146.082 55.8498 146.106C55.5067 146.11 55.1637 146.114 54.8102 146.118C54.0852 146.124 53.3602 146.128 52.6352 146.131C51.5332 146.138 50.4322 146.159 49.3305 146.18C48.6239 146.184 47.9173 146.188 47.2107 146.19C46.8847 146.199 46.5587 146.207 46.2229 146.216C43.7833 146.2 42.1053 145.532 40.3006 143.941C38.8134 141.809 38.4723 139.798 38.4488 137.264C38.446 136.972 38.4431 136.68 38.4402 136.379C38.4353 135.76 38.4315 135.141 38.4287 134.522C38.4246 133.892 38.4174 133.262 38.407 132.632C38.3918 131.719 38.3861 130.807 38.3825 129.894C38.3763 129.615 38.3701 129.337 38.3638 129.05C38.3727 126.735 39.0438 124.972 40.6666 123.236C40.9031 123.051 41.1396 122.866 41.3833 122.675C41.6207 122.484 41.8581 122.293 42.1027 122.096C43.1734 121.371 44.0975 121.258 45.3716 121.238Z" fill="#444444"/>
<path d="M83.3837 124.51C83.75 124.507 83.75 124.507 84.1237 124.504C84.9417 124.498 85.7594 124.503 86.5775 124.507C87.164 124.505 87.7505 124.503 88.3371 124.5C89.9301 124.493 91.523 124.496 93.116 124.5C94.7822 124.504 96.4485 124.5 98.1147 124.498C100.913 124.496 103.711 124.499 106.51 124.505C109.746 124.513 112.982 124.51 116.218 124.503C118.996 124.497 121.773 124.496 124.551 124.5C126.21 124.502 127.869 124.502 129.529 124.497C131.089 124.494 132.648 124.496 134.208 124.504C134.781 124.506 135.354 124.505 135.927 124.502C136.708 124.499 137.489 124.503 138.271 124.51C138.927 124.511 138.927 124.511 139.596 124.512C140.912 124.714 141.332 125.016 142.113 126.033C142.312 127.216 142.312 127.216 142.113 128.398C141.162 129.345 140.57 129.717 139.205 129.92C138.553 129.921 138.553 129.921 137.888 129.922C137.523 129.925 137.523 129.925 137.151 129.928C136.339 129.933 135.528 129.929 134.716 129.925C134.133 129.927 133.549 129.929 132.966 129.932C131.384 129.938 129.802 129.936 128.22 129.932C126.565 129.928 124.91 129.931 123.254 129.933C120.475 129.936 117.695 129.933 114.916 129.926C111.701 129.919 108.487 129.921 105.273 129.929C102.513 129.935 99.7537 129.936 96.9943 129.932C95.346 129.93 93.6978 129.93 92.0495 129.934C90.5002 129.938 88.9512 129.935 87.4019 129.928C86.833 129.926 86.2641 129.926 85.6952 129.929C84.9193 129.933 84.1439 129.928 83.3679 129.922C82.9336 129.921 82.4992 129.921 82.0517 129.92C80.7405 129.717 80.3195 129.412 79.541 128.398C79.3463 127.096 79.2806 126.373 80.1073 125.294C81.2462 124.471 81.963 124.512 83.3837 124.51Z" fill="#444444"/>
<path d="M83.368 81.9358C83.6105 81.9337 83.853 81.9316 84.1028 81.9294C84.9152 81.924 85.7272 81.9283 86.5395 81.9325C87.122 81.9307 87.7044 81.9283 88.2869 81.9254C89.869 81.9192 91.4509 81.9216 93.033 81.9259C94.6882 81.9293 96.3435 81.9261 97.9987 81.924C100.779 81.9215 103.559 81.9248 106.339 81.9312C109.553 81.9386 112.767 81.9362 115.982 81.9288C118.741 81.9226 121.5 81.9218 124.259 81.9253C125.907 81.9274 127.555 81.9277 129.203 81.9232C130.753 81.9193 132.303 81.922 133.852 81.9298C134.421 81.9316 134.99 81.9311 135.559 81.9281C136.335 81.9244 137.111 81.9291 137.888 81.9358C138.323 81.9363 138.757 81.9368 139.205 81.9373C140.57 82.1409 141.162 82.5124 142.113 83.459C142.312 84.6416 142.312 84.6416 142.113 85.8242C141.332 86.8414 140.912 87.143 139.596 87.3459C139.159 87.3464 138.721 87.3469 138.271 87.3474C138.026 87.3495 137.782 87.3516 137.531 87.3538C136.713 87.3592 135.895 87.3549 135.077 87.3507C134.49 87.3525 133.904 87.3549 133.317 87.3579C131.724 87.364 130.131 87.3616 128.538 87.3573C126.872 87.3539 125.206 87.3571 123.54 87.3592C120.741 87.3617 117.943 87.3584 115.145 87.352C111.909 87.3446 108.672 87.347 105.436 87.3545C102.659 87.3606 99.8813 87.3615 97.1038 87.3579C95.4445 87.3558 93.7852 87.3555 92.1258 87.36C90.5658 87.3639 89.006 87.3612 87.4461 87.3534C86.8732 87.3516 86.3003 87.3521 85.7274 87.3551C84.946 87.3588 84.1652 87.3542 83.3838 87.3474C82.7277 87.3467 82.7277 87.3467 82.0582 87.3459C80.7426 87.143 80.3212 86.8422 79.5411 85.8242C79.3463 84.5211 79.2804 83.7987 80.1084 82.72C81.2429 81.8993 81.9521 81.9375 83.368 81.9358Z" fill="#444444"/>
<path d="M83.017 39.7424C83.264 39.7408 83.511 39.7392 83.7655 39.7376C84.5953 39.7335 85.4248 39.7367 86.2545 39.7399C86.8485 39.7386 87.4425 39.7368 88.0365 39.7346C89.6514 39.7299 91.2662 39.7317 92.8811 39.7349C94.5692 39.7375 96.2573 39.7351 97.9455 39.7335C100.781 39.7317 103.616 39.7341 106.451 39.7389C109.731 39.7445 113.011 39.7427 116.292 39.7371C119.105 39.7325 121.919 39.7318 124.733 39.7345C126.415 39.7361 128.096 39.7363 129.778 39.7329C131.359 39.73 132.939 39.732 134.52 39.7379C135.101 39.7392 135.682 39.7389 136.263 39.7366C137.055 39.7339 137.846 39.7373 138.637 39.7424C139.303 39.743 139.303 39.743 139.981 39.7435C141.053 39.8711 141.053 39.8711 141.725 40.3451C142.209 41.0178 142.256 41.4244 142.246 42.2363C142.249 42.4663 142.251 42.6963 142.254 42.9332C142.064 43.8189 141.816 44.0633 141.053 44.6016C139.981 44.7301 139.981 44.7301 138.637 44.7326C138.267 44.7353 138.267 44.7353 137.889 44.7381C137.059 44.7429 136.23 44.7405 135.4 44.7381C134.806 44.74 134.212 44.7424 133.618 44.7451C132.003 44.7512 130.388 44.7508 128.773 44.7489C127.427 44.7478 126.08 44.7499 124.733 44.7519C121.556 44.7567 118.38 44.7561 115.204 44.7523C111.923 44.7484 108.643 44.7532 105.363 44.7622C102.549 44.7697 99.7354 44.7719 96.9217 44.77C95.24 44.7688 93.5584 44.7697 91.8767 44.7755C90.2958 44.7807 88.7152 44.7794 87.1343 44.773C86.5533 44.7717 85.9723 44.7728 85.3912 44.7763C84.5997 44.7808 83.8086 44.7769 83.017 44.7709C82.5736 44.7708 82.1302 44.7708 81.6733 44.7707C80.6017 44.6016 80.6017 44.6016 79.9287 43.9904C79.3622 42.9083 79.4053 42.0749 79.5411 40.8848C80.4189 39.5907 81.5047 39.7437 83.017 39.7424Z" fill="#444444"/>
<path d="M100.045 5.06835C102.342 5.04048 104.638 5.0126 107.005 4.98388C107.727 4.97158 108.449 4.95927 109.193 4.94659C109.769 4.94264 110.344 4.9392 110.92 4.93636C111.216 4.92945 111.512 4.92254 111.817 4.91541C113.193 4.91463 114.019 4.98604 115.259 5.60002C116.204 6.71606 116.181 7.43103 116.188 8.85774C116.19 9.09182 116.191 9.32589 116.193 9.56706C116.194 10.0609 116.191 10.5548 116.184 11.0487C116.174 11.8018 116.183 12.5533 116.195 13.3064C116.194 13.7875 116.191 14.2686 116.188 14.7497C116.186 15.1852 116.184 15.6208 116.182 16.0695C115.959 17.2027 115.733 17.7875 114.85 18.5737C113.295 19.3887 111.359 19.1376 109.636 19.1137C108.943 19.114 108.943 19.114 108.235 19.1144C106.97 19.1149 105.706 19.105 104.441 19.0932C103.118 19.0826 101.795 19.0816 100.472 19.0796C97.9678 19.0744 95.464 19.0605 92.96 19.0435C90.1088 19.0246 87.2576 19.0154 84.4064 19.0069C78.5423 18.9892 72.6784 18.9595 66.8145 18.9219C66.8145 18.8104 66.8145 18.6989 66.8145 18.584C77.7805 18.584 88.7466 18.584 100.045 18.584C100.045 14.1238 100.045 9.66367 100.045 5.06835Z" fill="#494D65"/>
<path d="M48.212 41.055C48.4978 41.0545 48.7836 41.0541 49.0781 41.0536C49.681 41.0541 50.2839 41.058 50.8867 41.065C51.8101 41.0748 52.7328 41.072 53.6563 41.0676C54.2425 41.0697 54.8287 41.0725 55.4149 41.0762C55.8292 41.0747 55.8292 41.0747 56.2518 41.0732C58.1672 41.1051 58.1672 41.1051 58.9329 41.6582C59.7286 42.6634 59.5409 43.8965 59.5314 45.1084C59.5324 45.3896 59.5334 45.6707 59.5345 45.9604C59.5352 46.5546 59.5332 47.1487 59.5288 47.7429C59.5231 48.6529 59.5287 49.5624 59.5355 50.4724C59.5348 51.0497 59.5335 51.6269 59.5314 52.2041C59.5346 52.6128 59.5346 52.6128 59.5379 53.0297C59.513 54.9207 59.513 54.9207 58.9352 55.6543C57.8824 56.4119 56.593 56.2408 55.3251 56.2364C55.0309 56.2381 54.7368 56.2399 54.4337 56.2417C53.8121 56.2439 53.1904 56.2434 52.5688 56.2406C51.6166 56.2377 50.6652 56.2474 49.713 56.2581C49.1091 56.2587 48.5052 56.2585 47.9013 56.2575C47.4737 56.2632 47.4737 56.2632 47.0375 56.269C45.9031 56.2554 45.1088 56.2441 44.1879 55.5752C43.6883 54.3874 43.6774 53.2537 43.6826 51.9929C43.6807 51.7281 43.6789 51.4632 43.677 51.1903C43.6747 50.6314 43.6752 50.0724 43.6782 49.5135C43.6812 48.6591 43.671 47.8054 43.6598 46.951C43.6592 46.4072 43.6594 45.8634 43.6605 45.3196C43.6565 45.0647 43.6525 44.8099 43.6484 44.5473C43.6638 43.4404 43.7621 42.6901 44.3687 41.7373C45.6214 41.0057 46.7876 41.0354 48.212 41.055Z" fill="#45AFFF"/>
<path d="M47.9012 83.6293C48.1954 83.6288 48.4896 83.6283 48.7926 83.6278C49.4143 83.6283 50.036 83.6322 50.6576 83.6392C51.6097 83.649 52.5611 83.6462 53.5133 83.6418C54.1172 83.6439 54.7212 83.6467 55.3251 83.6504C55.6101 83.6494 55.8952 83.6484 56.1888 83.6474C58.1666 83.6793 58.1666 83.6793 58.9352 84.2324C59.7276 85.2386 59.5409 86.4714 59.5314 87.6826C59.5324 87.9638 59.5334 88.2449 59.5344 88.5346C59.5352 89.1288 59.5332 89.723 59.5288 90.3171C59.5231 91.2271 59.5287 92.1366 59.5355 93.0466C59.5348 93.6239 59.5334 94.2011 59.5314 94.7783C59.5346 95.187 59.5346 95.187 59.5379 95.6039C59.5129 97.4957 59.5129 97.4957 58.9328 98.2285C57.9004 98.9744 56.6593 98.815 55.4148 98.8106C55.1294 98.8123 54.8439 98.8141 54.5498 98.8159C53.9463 98.8181 53.3427 98.8177 52.7392 98.8148C51.8165 98.8119 50.8946 98.8216 49.9719 98.8323C49.3853 98.8329 48.7986 98.8327 48.212 98.8317C47.7987 98.8374 47.7987 98.8374 47.3772 98.8432C46.1955 98.8287 45.3855 98.7433 44.3687 98.1494C43.6217 96.9762 43.6397 95.9 43.6604 94.5671C43.6599 94.3023 43.6594 94.0374 43.6589 93.7645C43.6595 93.2056 43.6635 92.6466 43.6709 92.0877C43.6811 91.2333 43.6782 90.3796 43.6736 89.5252C43.6758 88.9814 43.6787 88.4376 43.6825 87.8938C43.6815 87.6389 43.6805 87.3841 43.6794 87.1215C43.6984 86.1069 43.7904 85.2564 44.1879 84.3115C45.3198 83.4893 46.5376 83.6111 47.9012 83.6293Z" fill="#45AFFF"/>
<path d="M47.9015 126.236C48.1957 126.236 48.4899 126.235 48.7929 126.234C49.4146 126.233 50.0362 126.235 50.6579 126.239C51.61 126.244 52.5615 126.239 53.5136 126.233C54.1175 126.233 54.7215 126.234 55.3254 126.236C55.7529 126.233 55.7529 126.233 56.1891 126.23C58.1681 126.254 58.1681 126.254 58.9359 126.808C59.7173 127.798 59.5339 128.991 59.5192 130.183C59.5195 130.593 59.5195 130.593 59.5198 131.012C59.5189 131.59 59.5155 132.169 59.5097 132.747C59.5013 133.632 59.5024 134.518 59.5047 135.403C59.5028 135.965 59.5002 136.527 59.4971 137.089C59.4976 137.486 59.4976 137.486 59.4981 137.892C59.4805 139.183 59.451 139.8 58.6838 140.9C57.6429 141.003 56.6777 141.042 55.6361 141.035C55.1823 141.036 55.1823 141.036 54.7194 141.038C54.079 141.039 53.4386 141.037 52.7982 141.033C51.8174 141.027 50.8371 141.032 49.8562 141.039C49.2346 141.038 48.613 141.037 47.9913 141.035C47.6974 141.037 47.4035 141.039 47.1007 141.041C45.0593 141.017 45.0593 141.017 44.289 140.463C43.5107 139.472 43.6856 138.28 43.6953 137.089C43.6942 136.815 43.6932 136.541 43.6922 136.259C43.6915 135.681 43.6934 135.103 43.6979 134.525C43.7035 133.639 43.6979 132.754 43.6911 131.868C43.6918 131.307 43.6932 130.745 43.6953 130.183C43.6931 129.918 43.691 129.653 43.6888 129.38C43.7137 127.54 43.7137 127.54 44.2914 126.808C45.3437 126.048 46.6335 126.227 47.9015 126.236Z" fill="#45AFFF"/>
<path d="M84.2719 137.341C84.7128 137.337 84.7128 137.337 85.1627 137.332C86.1317 137.325 87.1004 137.327 88.0694 137.33C88.7443 137.328 89.4192 137.326 90.0941 137.324C91.5074 137.32 92.9206 137.322 94.334 137.327C96.1446 137.333 97.9548 137.325 99.7653 137.313C101.159 137.305 102.552 137.306 103.945 137.309C104.613 137.309 105.28 137.307 105.948 137.302C106.881 137.296 107.814 137.301 108.747 137.308C109.023 137.304 109.298 137.3 109.581 137.296C110.995 137.32 111.642 137.47 112.767 138.315C113.478 139.211 113.478 139.211 113.677 140.246C113.425 141.503 113.138 141.829 112.064 142.59C111.022 142.723 110.112 142.775 109.07 142.765C108.618 142.768 108.618 142.768 108.157 142.772C107.162 142.778 106.166 142.774 105.171 142.769C104.479 142.77 103.787 142.772 103.095 142.773C101.644 142.775 100.194 142.772 98.744 142.766C96.8846 142.758 95.0256 142.763 93.1663 142.771C91.7373 142.776 90.3083 142.774 88.8793 142.771C88.1937 142.77 87.5081 142.771 86.8226 142.774C85.8645 142.777 84.9068 142.772 83.9488 142.765C83.6652 142.767 83.3816 142.77 83.0894 142.773C81.8394 142.755 81.0975 142.689 80.0732 141.977C79.2851 140.883 79.3233 140.167 79.5409 138.873C80.9512 137.408 82.2937 137.325 84.2719 137.341Z" fill="#444444"/>
<path d="M83.949 95.1103C84.2504 95.1079 84.5518 95.1055 84.8623 95.1031C85.8579 95.0971 86.8531 95.1011 87.8488 95.1056C88.5408 95.1047 89.2329 95.1034 89.925 95.1017C91.3752 95.0997 92.8253 95.1026 94.2756 95.1089C96.1349 95.1166 97.9939 95.1122 99.8532 95.1041C101.282 95.0992 102.711 95.1008 104.14 95.1043C104.826 95.1052 105.511 95.1041 106.197 95.1009C107.155 95.0975 108.113 95.1027 109.071 95.1103C109.354 95.1075 109.638 95.1048 109.93 95.102C111.189 95.1203 111.921 95.1837 112.946 95.9098C113.479 96.6367 113.479 96.6367 113.677 97.6293C113.406 99.0441 112.888 99.4693 111.711 100.354C110.655 100.521 109.802 100.585 108.748 100.572C108.454 100.575 108.16 100.578 107.857 100.581C106.888 100.588 105.919 100.584 104.95 100.578C104.275 100.579 103.6 100.581 102.925 100.583C101.512 100.585 100.099 100.582 98.6855 100.574C96.8749 100.564 95.0648 100.57 93.2542 100.58C91.861 100.586 90.4678 100.584 89.0745 100.58C88.407 100.578 87.7395 100.58 87.072 100.584C86.1384 100.588 85.2056 100.582 84.2722 100.572C83.997 100.576 83.7219 100.579 83.4384 100.582C82.0254 100.556 81.3766 100.404 80.2521 99.5598C79.5411 98.664 79.5411 98.664 79.3423 97.6293C79.8367 95.1616 81.6615 95.0882 83.949 95.1103Z" fill="#444444"/>
<path d="M83.9111 52.536C84.3571 52.5325 84.3571 52.5325 84.8121 52.5289C85.7946 52.5229 86.7766 52.5269 87.7591 52.5314C88.4424 52.5305 89.1257 52.5292 89.809 52.5275C91.2411 52.5255 92.6731 52.5284 94.1052 52.5347C95.9399 52.5424 97.7743 52.538 99.609 52.5299C101.02 52.525 102.431 52.5266 103.842 52.5301C104.519 52.531 105.195 52.5299 105.872 52.5267C106.818 52.5233 107.763 52.5285 108.71 52.536C109.128 52.5319 109.128 52.5319 109.555 52.5277C110.866 52.547 111.644 52.671 112.769 53.3356C113.479 54.0625 113.479 54.0625 113.7 55.055C113.4 56.4604 112.887 56.8973 111.711 57.7793C110.643 57.9447 109.776 58.0076 108.71 57.9925C108.412 57.9949 108.114 57.9974 107.807 57.9999C106.824 58.0056 105.843 57.999 104.86 57.9918C104.177 57.9921 103.493 57.9929 102.809 57.9943C101.378 57.9952 99.9466 57.9903 98.5152 57.981C96.68 57.9695 94.8452 57.9715 93.01 57.9778C91.5989 57.9814 90.1878 57.9784 88.7767 57.9733C88.1 57.9715 87.4233 57.9717 86.7466 57.9738C85.8013 57.9757 84.8564 57.9688 83.9111 57.9595C83.6313 57.9617 83.3516 57.9639 83.0634 57.9662C81.8216 57.9455 81.0911 57.8739 80.0746 57.1661C79.2914 56.0819 79.3491 55.3477 79.5412 54.0625C80.6933 52.4667 82.0341 52.5177 83.9111 52.536Z" fill="#444444"/>
</g>
<defs>
<clipPath id="clip0_1677_1442">
<rect width="181" height="173" fill="white"/>
</clipPath>
</defs>
</svg>
