<svg width="23" height="22" viewBox="0 0 23 22" fill="none" xmlns="http://www.w3.org/2000/svg">
<path d="M8.55251 2.6577V0.8859C8.55251 0.394964 8.14398 0 7.63617 0C7.12837 0 6.71983 0.394964 6.71983 0.8859V2.6577C6.71983 3.14863 7.12837 3.5436 7.63617 3.5436C8.14398 3.5436 8.55251 3.14863 8.55251 2.6577ZM0.916341 8.2684H2.74902C3.25683 8.2684 3.66536 7.87343 3.66536 7.3825C3.66536 6.89156 3.25683 6.4966 2.74902 6.4966H0.916341C0.408535 6.4966 0 6.89156 0 7.3825C0 7.87343 0.408535 8.2684 0.916341 8.2684ZM10.4425 4.66943C10.8014 5.01641 11.3817 5.01641 11.7368 4.66943L13.0311 3.4181C13.39 3.07112 13.39 2.51005 13.0311 2.16676C12.6722 1.82348 12.0919 1.81979 11.7368 2.16676L10.4425 3.4144C10.0836 3.76138 10.0836 4.32245 10.4425 4.66574V4.66943ZM3.53173 12.6056L4.82606 11.3543C5.18496 11.0073 5.18496 10.4462 4.82606 10.1029C4.46716 9.75966 3.88681 9.75597 3.53173 10.1029L2.2374 11.3506C1.8785 11.6976 1.8785 12.2586 2.2374 12.6019C2.5963 12.9452 3.17665 12.9489 3.53173 12.6019V12.6056ZM2.2374 2.16307C1.8785 2.51005 1.8785 3.07112 2.2374 3.4144L3.53173 4.66574C3.89063 5.01271 4.47098 5.01271 4.82606 4.66574C5.18114 4.31876 5.18496 3.75769 4.82606 3.4144L3.53173 2.16307C3.17283 1.81609 2.5963 1.81609 2.2374 2.16307ZM13.1686 8.53786L18.9759 10.0439C19.2202 10.1066 19.3997 10.3133 19.4264 10.557L19.7013 13.2885L10.8625 10.9999L12.5119 8.76671C12.6608 8.56739 12.9204 8.4751 13.1686 8.53786ZM8.23179 10.4979L8.15161 10.605C7.32309 10.808 6.6282 11.4281 6.39147 12.2845C6.23493 12.8566 5.91803 13.9972 5.44459 15.7063L5.12769 16.8469C4.95206 17.4781 5.3415 18.124 5.99058 18.2938L6.58238 18.4452C7.23527 18.615 7.90344 18.2385 8.07907 17.6109L8.39597 16.4703L19.0179 19.2203L18.701 20.3609C18.5253 20.9921 18.9148 21.6381 19.5639 21.8079L20.1557 21.9592C20.8086 22.129 21.4767 21.7525 21.6524 21.125C21.8089 20.5529 22.1258 19.4123 22.5992 17.7032L22.9161 16.5626C23.1529 15.7063 22.8741 14.8351 22.2594 14.2556L22.248 14.1227L21.8662 10.3207C21.744 9.09523 20.8467 8.07276 19.6173 7.75531L13.8024 6.25667C12.573 5.93922 11.2672 6.38955 10.5265 7.39357L8.22797 10.5016L8.23179 10.4979ZM10.0912 12.6314C10.2486 12.6695 10.3965 12.7375 10.5264 12.8315C10.6563 12.9254 10.7655 13.0434 10.8477 13.1786C10.9299 13.3138 10.9835 13.4634 11.0052 13.6188C11.027 13.7742 11.0165 13.9323 10.9745 14.0837C10.9324 14.2352 10.8595 14.377 10.7602 14.5009C10.6608 14.6249 10.5369 14.7285 10.3957 14.8056C10.2544 14.8828 10.0988 14.932 9.93766 14.9504C9.77657 14.9687 9.61331 14.9559 9.4574 14.9126C9.30005 14.8746 9.15211 14.8066 9.02223 14.7126C8.89234 14.6187 8.78311 14.5007 8.70089 14.3655C8.61867 14.2303 8.56512 14.0807 8.54336 13.9253C8.5216 13.7699 8.53206 13.6118 8.57414 13.4604C8.61622 13.3089 8.68907 13.1671 8.78844 13.0432C8.88782 12.9192 9.01173 12.8156 9.15294 12.7385C9.29415 12.6613 9.44985 12.6121 9.61094 12.5937C9.77203 12.5754 9.93529 12.5882 10.0912 12.6314ZM18.0366 15.913C18.076 15.7608 18.1464 15.6178 18.2435 15.4923C18.3407 15.3667 18.4627 15.2611 18.6026 15.1816C18.7424 15.1021 18.8972 15.0503 19.0579 15.0293C19.2187 15.0083 19.3821 15.0184 19.5388 15.0591C19.6955 15.0997 19.8422 15.1702 19.9704 15.2662C20.0986 15.3623 20.2057 15.4821 20.2855 15.6186C20.3653 15.7551 20.4162 15.9057 20.4352 16.0614C20.4542 16.2171 20.441 16.375 20.3962 16.5257C20.3568 16.6778 20.2865 16.8209 20.1893 16.9464C20.0922 17.072 19.9701 17.1776 19.8303 17.2571C19.6905 17.3366 19.5357 17.3884 19.3749 17.4094C19.2142 17.4304 19.0507 17.4203 18.8941 17.3796C18.7374 17.339 18.5907 17.2685 18.4625 17.1724C18.3343 17.0764 18.2272 16.9566 18.1473 16.8201C18.0675 16.6835 18.0166 16.533 17.9976 16.3773C17.9786 16.2215 17.9919 16.0637 18.0366 15.913Z" fill="black"/>
</svg>
