<svg width="31" height="27" viewBox="0 0 31 27" fill="none" xmlns="http://www.w3.org/2000/svg">
<path d="M15.5004 10.1357V15.9066M13.1266 2.33196L1.37195 21.8579C1.12963 22.2754 1.0014 22.7488 1.00001 23.2309C0.998624 23.713 1.12413 24.1871 1.36404 24.6059C1.60395 25.0248 1.94992 25.3739 2.36751 25.6185C2.78511 25.863 3.25979 25.9946 3.74434 26H27.2565C27.7408 25.9944 28.2153 25.8629 28.6327 25.6184C29.0501 25.3739 29.3959 25.025 29.6358 24.6063C29.8756 24.1876 30.0012 23.7138 30 23.2319C29.9988 22.75 29.8708 22.2768 29.6289 21.8594L17.8743 2.33052C17.6269 1.92439 17.2786 1.58858 16.8627 1.35551C16.4469 1.12245 15.9777 1 15.5004 1C15.0231 1 14.5539 1.12245 14.1381 1.35551C13.7223 1.58858 13.3739 1.92439 13.1266 2.33052M15.5004 20.2348H15.5149" stroke="#C62828" stroke-width="2" stroke-linecap="round" stroke-linejoin="round"/>
</svg>
