<svg width="25" height="24" viewBox="0 0 25 24" fill="none" xmlns="http://www.w3.org/2000/svg">
<path d="M16.1175 12.3106C16.8819 11.6585 17.4951 10.8521 17.9153 9.94592C18.3355 9.03976 18.553 8.05512 18.553 7.05882C18.553 5.18671 17.7983 3.39127 16.4549 2.06748C15.1115 0.743695 13.2895 0 11.3897 0C9.48985 0 7.66783 0.743695 6.32445 2.06748C4.98107 3.39127 4.22636 5.18671 4.22636 7.05882C4.23521 8.06059 4.46385 9.04861 4.89661 9.95512C5.32937 10.8616 5.95601 11.6652 6.73352 12.3106C4.72799 13.2055 3.02645 14.6506 1.83235 16.4732C0.638245 18.2958 0.00210867 20.4188 0 22.5882C0 22.9627 0.150941 23.3217 0.419618 23.5865C0.688294 23.8513 1.0527 24 1.43267 24C1.81263 24 2.17704 23.8513 2.44571 23.5865C2.71439 23.3217 2.86533 22.9627 2.86533 22.5882C2.86533 20.3417 3.77098 18.1872 5.38304 16.5986C6.9951 15.0101 9.18152 14.1176 11.4613 14.1176C13.7411 14.1176 15.9275 15.0101 17.5396 16.5986C19.1517 18.1872 20.0573 20.3417 20.0573 22.5882C20.0573 22.9627 20.2082 23.3217 20.4769 23.5865C20.7456 23.8513 21.11 24 21.49 24C21.8699 24 22.2343 23.8513 22.503 23.5865C22.7717 23.3217 22.9226 22.9627 22.9226 22.5882C22.9143 20.411 22.2676 18.2826 21.0602 16.4592C19.8529 14.6357 18.1364 13.1951 16.1175 12.3106ZM11.3897 11.2941C10.5396 11.2941 9.70865 11.0457 9.00185 10.5803C8.29504 10.115 7.74416 9.4535 7.41886 8.6796C7.09355 7.9057 7.00844 7.05413 7.17427 6.23256C7.34011 5.41099 7.74946 4.65634 8.35054 4.06402C8.95163 3.4717 9.71746 3.06833 10.5512 2.90491C11.3849 2.74149 12.2491 2.82536 13.0345 3.14592C13.8198 3.46648 14.4911 4.00933 14.9633 4.70582C15.4356 5.40231 15.6877 6.22116 15.6877 7.05882C15.6877 8.18209 15.2349 9.25936 14.4288 10.0536C13.6228 10.8479 12.5296 11.2941 11.3897 11.2941ZM23.5673 4.23529C23.1874 4.23529 22.823 4.38403 22.5543 4.64879C22.2856 4.91355 22.1347 5.27264 22.1347 5.64706V8.47059C22.1347 8.84501 22.2856 9.2041 22.5543 9.46886C22.823 9.73361 23.1874 9.88235 23.5673 9.88235C23.9473 9.88235 24.3117 9.73361 24.5804 9.46886C24.8491 9.2041 25 8.84501 25 8.47059V5.64706C25 5.27264 24.8491 4.91355 24.5804 4.64879C24.3117 4.38403 23.9473 4.23529 23.5673 4.23529ZM22.4928 11.7035C22.231 11.9741 22.0826 12.3321 22.0774 12.7059C22.0763 12.8917 22.1124 13.0759 22.1837 13.2479C22.255 13.4199 22.3601 13.5763 22.4928 13.7082C22.6329 13.8319 22.7926 13.932 22.9656 14.0047C23.1371 14.0794 23.3225 14.118 23.51 14.118C23.6975 14.118 23.883 14.0794 24.0544 14.0047C24.2322 13.9413 24.3937 13.8401 24.5274 13.7084C24.6611 13.5767 24.7637 13.4175 24.8281 13.2424C24.9083 13.0748 24.9475 12.8911 24.9427 12.7059C24.9443 12.4255 24.8612 12.1509 24.7039 11.9173C24.5466 11.6836 24.3222 11.5014 24.0594 11.3938C23.7966 11.2863 23.5073 11.2583 23.2283 11.3135C22.9492 11.3686 22.6932 11.5044 22.4928 11.7035Z" fill="#C62828"/>
</svg>
