<svg width="85" height="85" viewBox="0 0 85 85" fill="none" xmlns="http://www.w3.org/2000/svg">
<path d="M46.6528 0V8.5979C65.3566 10.8963 78.6068 27.8793 76.3061 46.5649C74.3463 62.0581 62.1612 74.359 46.6528 76.1893V84.7021C70.0858 82.361 87.1279 61.5899 84.7846 38.1798C82.8674 17.9619 66.8051 2.0005 46.6528 0ZM38.1318 0.127691C29.8237 0.936405 21.8991 4.12869 15.4231 9.49174L21.5157 15.7912C26.2875 11.9604 32.0392 9.49174 38.1318 8.64046V0.127691ZM9.41578 15.4932C4.092 21.9537 0.81416 29.8513 0 38.1798H8.52107C9.33057 32.1357 11.7165 26.3896 15.5083 21.5799L9.41578 15.4932ZM0.0426053 46.6925C0.894712 55.0351 4.17532 62.9094 9.45838 69.3791L15.5083 63.2924C11.7456 58.4812 9.347 52.7478 8.56367 46.6925H0.0426053ZM21.5157 69.5493L15.4231 75.3806C21.8777 80.7538 29.7784 84.1005 38.1318 85V76.4872C32.0706 75.7047 26.3316 73.3084 21.5157 69.5493ZM44.5226 21.1542V43.5003L63.695 54.8648L60.4996 60.1002L38.1318 46.6925V21.1542H44.5226Z" fill="white"/>
</svg>
