<svg width="85" height="85" viewBox="0 0 85 85" fill="none" xmlns="http://www.w3.org/2000/svg">
<path d="M42.5 0C19.028 0 0 19.028 0 42.5C0 65.9733 19.028 85 42.5 85C65.9733 85 85 65.9733 85 42.5C85 19.028 65.9733 0 42.5 0ZM42.5 79.7712C21.9951 79.7712 5.3125 63.0049 5.3125 42.4998C5.3125 21.9949 21.9951 5.31233 42.5 5.31233C63.0049 5.31233 79.6875 21.995 79.6875 42.4998C79.6875 63.0047 63.0049 79.7712 42.5 79.7712ZM59.4615 26.949L34.5259 52.0412L23.2966 40.812C22.2593 39.7747 20.5779 39.7747 19.5393 40.812C18.502 41.8492 18.502 43.5306 19.5393 44.5679L32.6864 57.7163C33.7237 58.7523 35.4051 58.7523 36.4437 57.7163C36.5632 57.5968 36.6655 57.4666 36.7585 57.3312L63.2201 30.7062C64.256 29.6689 64.256 27.9875 63.2201 26.949C62.1815 25.9117 60.5001 25.9117 59.4615 26.949Z" fill="white"/>
</svg>
