<svg width="29" height="29" viewBox="0 0 29 29" fill="none" xmlns="http://www.w3.org/2000/svg">
<path fill-rule="evenodd" clip-rule="evenodd" d="M8.05556 6.44444C8.05556 4.73527 8.73452 3.0961 9.94309 1.88753C11.1517 0.678966 12.7908 0 14.5 0C16.2092 0 17.8483 0.678966 19.0569 1.88753C20.2655 3.0961 20.9444 4.73527 20.9444 6.44444C20.9444 8.15362 20.2655 9.79279 19.0569 11.0014C17.8483 12.2099 16.2092 12.8889 14.5 12.8889C12.7908 12.8889 11.1517 12.2099 9.94309 11.0014C8.73452 9.79279 8.05556 8.15362 8.05556 6.44444ZM8.05556 16.1111C5.91909 16.1111 3.87013 16.9598 2.35942 18.4705C0.848708 19.9812 0 22.0302 0 24.1667C0 25.4485 0.509225 26.6779 1.41565 27.5844C2.32208 28.4908 3.55145 29 4.83333 29H24.1667C25.4485 29 26.6779 28.4908 27.5844 27.5844C28.4908 26.6779 29 25.4485 29 24.1667C29 22.0302 28.1513 19.9812 26.6406 18.4705C25.1299 16.9598 23.0809 16.1111 20.9444 16.1111H8.05556Z" fill="#608BC1"/>
</svg>
