<svg width="142" height="145" viewBox="0 0 142 145" fill="none" xmlns="http://www.w3.org/2000/svg">
<g clip-path="url(#clip0_1677_1553)">
<path d="M108.681 54.0462C108.903 54.0448 109.125 54.0433 109.354 54.0419C110.088 54.0378 110.823 54.0358 111.558 54.0343C112.069 54.0326 112.58 54.031 113.091 54.0294C114.163 54.0264 115.234 54.0247 116.306 54.0238C117.678 54.0222 119.05 54.0154 120.422 54.0073C121.477 54.0021 122.533 54.0006 123.589 54.0002C124.094 53.9993 124.6 53.997 125.106 53.9933C125.814 53.9885 126.522 53.989 127.23 53.9908C127.542 53.9869 127.542 53.9869 127.861 53.9829C129.17 53.9935 130.073 54.2279 131.183 54.9414C131.522 55.6338 131.498 56.0842 131.501 56.8585C131.504 57.2861 131.504 57.2861 131.508 57.7224C131.508 58.0364 131.509 58.3503 131.51 58.6738C131.512 59.0035 131.513 59.3333 131.515 59.673C131.521 60.7678 131.524 61.8626 131.527 62.9574C131.528 63.3304 131.529 63.7034 131.53 64.0877C131.535 65.8575 131.539 67.6273 131.542 69.3971C131.544 71.4408 131.552 73.4844 131.563 75.5281C131.571 77.1073 131.575 78.6865 131.576 80.2657C131.577 81.2092 131.58 82.1525 131.586 83.096C131.593 84.1483 131.593 85.2005 131.591 86.2529C131.596 86.7221 131.596 86.7221 131.602 87.2008C131.599 87.6309 131.599 87.6309 131.596 88.0696C131.597 88.3184 131.597 88.5673 131.598 88.8236C131.415 89.7133 131.025 90.051 130.351 90.625C130.168 90.7185 129.985 90.8119 129.797 90.9082C129.705 92.6839 129.614 94.4596 129.519 96.2891C129.885 96.3825 130.251 96.476 130.629 96.5723C131.253 97.0354 131.437 97.274 131.563 98.0572C131.562 98.307 131.562 98.5568 131.561 98.8142C131.562 99.2449 131.562 99.2449 131.564 99.6843C131.561 99.999 131.558 100.314 131.555 100.638C131.555 100.97 131.555 101.301 131.556 101.643C131.555 102.552 131.551 103.461 131.545 104.37C131.54 105.321 131.539 106.271 131.538 107.221C131.536 109.02 131.529 110.82 131.521 112.619C131.511 114.668 131.507 116.716 131.503 118.765C131.494 122.979 131.479 127.192 131.461 131.406C131.731 131.4 132.001 131.394 132.279 131.388C133.284 131.368 134.289 131.355 135.295 131.344C135.729 131.338 136.164 131.331 136.598 131.321C137.224 131.307 137.85 131.301 138.476 131.296C138.669 131.29 138.862 131.284 139.061 131.278C140.034 131.277 140.588 131.391 141.429 131.906C142.046 132.59 142.173 132.812 142.17 133.72C142.173 133.95 142.176 134.179 142.178 134.416C142.174 134.661 142.169 134.907 142.164 135.16C142.164 135.414 142.164 135.668 142.164 135.93C142.163 136.466 142.158 137.002 142.15 137.539C142.138 138.361 142.139 139.182 142.141 140.004C142.138 140.525 142.134 141.046 142.13 141.567C142.13 141.813 142.13 142.059 142.13 142.313C142.125 142.542 142.121 142.77 142.116 143.006C142.114 143.207 142.112 143.408 142.109 143.615C141.96 144.344 141.752 144.553 141.168 145C140.372 145.107 140.372 145.107 139.378 145.107C139.195 145.108 139.012 145.109 138.823 145.111C138.204 145.114 137.586 145.111 136.967 145.108C136.521 145.109 136.074 145.11 135.628 145.112C134.398 145.115 133.169 145.114 131.939 145.111C130.614 145.109 129.289 145.112 127.964 145.114C125.367 145.118 122.77 145.117 120.174 145.115C118.064 145.113 115.954 145.113 113.844 145.114C113.544 145.114 113.244 145.114 112.936 145.114C112.326 145.114 111.717 145.115 111.108 145.115C105.392 145.117 99.676 145.115 93.9598 145.11C89.051 145.106 84.1422 145.107 79.2334 145.111C73.5382 145.115 67.843 145.117 62.1478 145.114C61.5409 145.114 60.9341 145.114 60.3272 145.114C60.0286 145.114 59.73 145.113 59.4223 145.113C57.3141 145.113 55.2059 145.114 53.0977 145.116C50.5299 145.118 47.962 145.118 45.3942 145.113C44.0831 145.111 42.772 145.11 41.4609 145.113C40.262 145.115 39.0632 145.114 37.8643 145.109C37.4293 145.108 36.9942 145.109 36.5592 145.111C35.9704 145.113 35.3818 145.111 34.7929 145.107C34.4651 145.107 34.1373 145.107 33.7996 145.107C33.0037 145 33.0036 145 32.4758 144.639C32.1716 144.15 32.1716 144.15 32.1716 143.018C30.3411 143.018 28.5107 143.018 26.6247 143.018C26.5332 143.485 26.4417 143.952 26.3474 144.434C25.6275 145.169 25.1299 145.071 24.1489 145.08C23.9188 145.079 23.6887 145.079 23.4516 145.078C23.0883 145.08 23.0883 145.08 22.7177 145.082C21.9143 145.086 21.111 145.086 20.3076 145.085C19.7507 145.086 19.1939 145.088 18.6371 145.089C17.4687 145.091 16.3004 145.091 15.1321 145.089C13.633 145.088 12.134 145.093 10.6349 145.099C9.48452 145.103 8.33418 145.104 7.18381 145.103C6.63103 145.103 6.07824 145.104 5.52546 145.107C4.75316 145.111 3.98105 145.109 3.20876 145.105C2.97922 145.108 2.74968 145.11 2.51319 145.112C0.947667 145.097 0.947667 145.097 0.357348 144.602C-0.091611 144.035 -0.108318 143.729 -0.116722 143.006C-0.121135 142.777 -0.125548 142.549 -0.130095 142.313C-0.13015 142.067 -0.130206 141.821 -0.130264 141.567C-0.132375 141.313 -0.134487 141.06 -0.136662 140.798C-0.139659 140.261 -0.140449 139.724 -0.139202 139.188C-0.138932 138.366 -0.150472 137.546 -0.162765 136.725C-0.164209 136.203 -0.164955 135.681 -0.164932 135.16C-0.171752 134.792 -0.171752 134.792 -0.178711 134.416C-0.17613 134.186 -0.173549 133.957 -0.17089 133.72C-0.17146 133.519 -0.17203 133.318 -0.172617 133.11C0.106189 132.186 0.586626 131.896 1.38646 131.406C2.1398 131.309 2.77496 131.273 3.52396 131.296C3.72514 131.297 3.92632 131.299 4.1336 131.3C4.77236 131.307 5.41068 131.321 6.0493 131.335C6.48391 131.341 6.91852 131.346 7.35314 131.351C8.4152 131.363 9.47693 131.383 10.5388 131.406C10.5375 131.235 10.5362 131.064 10.5349 130.888C10.5043 126.728 10.4814 122.568 10.467 118.408C10.4598 116.396 10.4501 114.385 10.4342 112.373C10.4189 110.432 10.4108 108.491 10.4072 106.55C10.4047 105.809 10.3997 105.068 10.3922 104.327C10.3821 103.29 10.3807 102.254 10.3814 101.217C10.3764 100.909 10.3714 100.602 10.3663 100.285C10.3751 98.9762 10.4 98.2126 11.0948 97.0894C12.1664 96.4223 13.0613 96.3771 14.2803 96.398C14.5141 96.3965 14.7478 96.3949 14.9887 96.3933C15.7593 96.3899 16.5295 96.3968 17.3001 96.4041C17.8365 96.4046 18.3728 96.4046 18.9092 96.4041C20.0322 96.4045 21.1551 96.4098 22.2782 96.4188C23.7179 96.43 25.1574 96.4312 26.5971 96.4291C27.7042 96.4282 28.8112 96.4317 29.9183 96.4365C30.4492 96.4385 30.9801 96.4394 31.5109 96.4392C32.2526 96.4397 32.9939 96.4457 33.7355 96.4533C33.955 96.4525 34.1744 96.4517 34.4005 96.4508C35.2932 96.465 35.9452 96.5115 36.7367 96.9514C37.4804 97.7707 37.4756 98.5682 37.4745 99.6316C37.4751 100.052 37.4751 100.052 37.4757 100.48C37.4747 100.787 37.4737 101.094 37.4726 101.41C37.4727 101.733 37.4727 102.056 37.4728 102.389C37.4726 103.46 37.4704 104.532 37.4682 105.603C37.4677 106.344 37.4673 107.086 37.467 107.828C37.4662 109.582 37.4639 111.336 37.4611 113.09C37.458 115.087 37.4565 117.085 37.4551 119.082C37.4522 123.19 37.4473 127.298 37.4411 131.406C38.9055 131.406 40.3699 131.406 41.8786 131.406C41.8762 130.816 41.8737 130.226 41.8712 129.618C41.8485 124.067 41.832 118.516 41.8212 112.965C41.8154 110.111 41.8076 107.257 41.795 104.403C41.7839 101.916 41.7767 99.429 41.7743 96.9418C41.7728 95.6245 41.7694 94.3072 41.7614 92.9899C41.7538 91.7505 41.7515 90.5112 41.7532 89.2717C41.7529 88.8164 41.7506 88.3611 41.7464 87.9058C41.7409 87.2848 41.7422 86.6641 41.7452 86.043C41.7442 85.6953 41.7432 85.3476 41.7421 84.9893C41.9055 83.9384 42.1676 83.6139 42.988 82.9785C44.0058 82.6321 44.9457 82.6513 46.0056 82.6497C46.228 82.6483 46.4505 82.6469 46.6796 82.6454C47.4158 82.6413 48.1519 82.6393 48.8881 82.6378C49.3997 82.6362 49.9113 82.6345 50.4229 82.6329C51.4958 82.6299 52.5687 82.6283 53.6417 82.6273C55.016 82.6257 56.3903 82.6189 57.7647 82.6109C58.8216 82.6056 59.8784 82.6041 60.9353 82.6037C61.442 82.6028 61.9486 82.6005 62.4553 82.5968C63.1643 82.592 63.8732 82.5925 64.5822 82.5944C64.7912 82.5918 65.0002 82.5891 65.2154 82.5865C66.4541 82.5965 67.2462 82.7574 68.2263 83.5449C68.8997 84.5763 68.8495 85.053 68.8477 86.2814C68.8482 86.4741 68.8486 86.6668 68.8491 86.8654C68.85 87.5125 68.847 88.1594 68.844 88.8065C68.8438 89.2698 68.8439 89.7331 68.8442 90.1964C68.8444 91.4555 68.8411 92.7146 68.8372 93.9737C68.8338 95.289 68.8334 96.6044 68.8328 97.9197C68.8311 100.411 68.8265 102.903 68.8209 105.394C68.8147 108.23 68.8117 111.066 68.8089 113.902C68.8031 119.737 68.7932 125.572 68.781 131.406C70.2454 131.406 71.7097 131.406 73.2185 131.406C73.2172 131.076 73.2159 130.746 73.2146 130.406C73.1846 122.574 73.1617 114.742 73.1477 106.909C73.146 105.945 73.1441 104.981 73.1423 104.018C73.142 103.826 73.1416 103.634 73.1412 103.436C73.1352 100.328 73.1243 97.2206 73.1115 94.1129C73.0985 90.9245 73.0909 87.7361 73.088 84.5477C73.0862 82.7566 73.0819 80.9656 73.0719 79.1746C73.0625 77.4895 73.0595 75.8046 73.0616 74.1195C73.0613 73.5004 73.0585 72.8813 73.0532 72.2622C73.0463 71.418 73.0479 70.5742 73.0517 69.73C73.0477 69.484 73.0437 69.238 73.0395 68.9845C73.0544 67.7622 73.1112 67.2641 73.8552 66.2592C74.8689 65.5076 75.7483 65.5041 76.9556 65.5199C77.1889 65.5174 77.4222 65.5149 77.6626 65.5124C78.4319 65.5062 79.2008 65.5103 79.9701 65.5151C80.5058 65.5141 81.0414 65.5127 81.5771 65.511C82.699 65.5089 83.8207 65.5119 84.9426 65.5185C86.3799 65.5266 87.8168 65.5219 89.254 65.5135C90.3599 65.5083 91.4658 65.51 92.5717 65.5136C93.1015 65.5146 93.6314 65.5134 94.1613 65.5101C94.9023 65.5065 95.6428 65.512 96.3837 65.5199C96.6022 65.517 96.8206 65.5142 97.0457 65.5112C98.0667 65.5313 98.6515 65.6418 99.4841 66.2592C100.357 67.4381 100.311 68.2897 100.288 69.73C100.289 69.9937 100.29 70.2575 100.291 70.5292C100.293 71.4133 100.286 72.2971 100.278 73.1812C100.278 73.8148 100.278 74.4484 100.279 75.082C100.279 76.8027 100.271 78.5234 100.261 80.2442C100.253 82.0421 100.252 83.8401 100.25 85.6382C100.246 88.6563 100.238 91.6743 100.225 94.6924C100.213 97.8008 100.203 100.909 100.197 104.018C100.197 104.209 100.196 104.401 100.196 104.598C100.194 105.56 100.192 106.521 100.191 107.483C100.176 115.457 100.152 123.432 100.121 131.406C101.585 131.406 103.05 131.406 104.558 131.406C104.557 131.018 104.556 130.629 104.555 130.229C104.531 121.013 104.513 111.796 104.502 102.58C104.5 101.446 104.499 100.312 104.497 99.1777C104.497 98.952 104.497 98.7262 104.497 98.4936C104.492 94.8364 104.483 91.1793 104.473 87.5221C104.462 83.7705 104.456 80.0189 104.454 76.2672C104.452 73.9516 104.448 71.6361 104.439 69.3205C104.432 67.5459 104.431 65.7714 104.433 63.9967C104.433 63.268 104.43 62.5393 104.426 61.8106C104.421 60.8176 104.422 59.8249 104.425 58.8319C104.422 58.5418 104.418 58.2518 104.415 57.9529C104.425 56.7166 104.442 55.9908 105.069 54.9106C106.164 53.9306 107.301 54.0482 108.681 54.0462Z" fill="#444444"/>
<path d="M103.663 -0.17873C104.032 -0.18177 104.032 -0.18177 104.407 -0.184871C105.219 -0.189661 106.031 -0.184152 106.842 -0.178108C107.408 -0.178343 107.973 -0.179039 108.538 -0.180178C109.723 -0.180988 110.908 -0.176819 112.094 -0.16905C113.61 -0.159423 115.125 -0.161094 116.641 -0.166406C117.809 -0.169408 118.976 -0.166861 120.144 -0.162615C120.703 -0.161152 121.261 -0.161279 121.82 -0.163053C122.603 -0.164606 123.386 -0.158798 124.17 -0.151074C124.398 -0.152922 124.627 -0.15477 124.863 -0.156674C126.683 -0.126331 128.116 0.402522 129.516 1.6074C129.638 1.76036 129.759 1.91332 129.884 2.07092C130.071 2.29708 130.071 2.29708 130.262 2.52781C131.335 4.24403 131.584 5.64807 131.573 7.64448C131.576 8.01509 131.576 8.01509 131.579 8.39318C131.584 9.2045 131.583 10.0157 131.581 10.827C131.582 11.3929 131.584 11.9588 131.586 12.5247C131.588 13.7081 131.587 14.8914 131.585 16.0747C131.581 17.5918 131.587 19.1088 131.595 20.6258C131.6 21.7932 131.6 22.9606 131.599 24.128C131.599 24.6875 131.6 25.247 131.604 25.8064C131.608 26.5874 131.605 27.3681 131.6 28.149C131.603 28.3802 131.605 28.6113 131.608 28.8495C131.595 29.853 131.544 30.4664 130.968 31.2955C130.311 31.747 130.006 31.8616 129.225 31.8653C128.897 31.8707 128.897 31.8707 128.563 31.8761C128.329 31.8739 128.096 31.8716 127.855 31.8692C127.492 31.8708 127.492 31.8708 127.122 31.8725C126.611 31.8733 126.1 31.8712 125.589 31.8664C124.807 31.8604 124.026 31.8664 123.245 31.8736C122.748 31.8729 122.251 31.8714 121.754 31.8692C121.404 31.8726 121.404 31.8726 121.046 31.8761C120.719 31.8708 120.719 31.8708 120.385 31.8653C120.193 31.8644 120.002 31.8635 119.805 31.8626C118.997 31.6502 118.675 31.2373 118.148 30.5859C117.997 29.8334 117.997 29.8334 117.979 28.9885C117.966 28.534 117.966 28.534 117.952 28.0703C117.948 27.7556 117.945 27.4409 117.94 27.1167C117.928 26.6381 117.928 26.6381 117.916 26.1498C117.896 25.3629 117.881 24.5762 117.871 23.7891C117.618 24.0485 117.365 24.3079 117.105 24.5751C114.719 27.0226 112.332 29.4686 109.944 31.9131C108.716 33.1698 107.489 34.427 106.263 35.6855C105.079 36.9005 103.894 38.1141 102.708 39.3268C102.256 39.7891 101.805 40.2519 101.354 40.7152C100.721 41.3653 100.087 42.0136 99.4521 42.6615C99.2671 42.8524 99.0822 43.0433 98.8917 43.2399C97.1113 45.05 95.4431 46.6101 92.8287 46.7921C92.333 46.7875 92.333 46.7875 91.8274 46.7829C91.6436 46.7821 91.4599 46.7813 91.2705 46.7804C90.8742 46.7786 90.4779 46.7756 90.0816 46.7716C89.4529 46.766 88.8244 46.7655 88.1957 46.7665C86.4093 46.7692 84.623 46.7693 82.8366 46.7509C81.7412 46.74 80.6463 46.7401 79.5508 46.7474C79.1352 46.7481 78.7195 46.7447 78.3039 46.737C76.0007 46.6351 76.0007 46.6351 73.9356 47.5018C73.4453 48.0699 73.0564 48.6365 72.6641 49.2773C72.4004 49.5856 72.1312 49.8892 71.8537 50.1845C71.6614 50.3964 71.6614 50.3964 71.4653 50.6127C71.3346 50.7561 71.204 50.8996 71.0694 51.0474C70.7793 51.367 70.4893 51.6867 70.1994 52.0065C70.0552 52.1654 69.911 52.3244 69.7624 52.4881C69.1038 53.2153 68.4483 53.9454 67.7932 54.6759C67.6062 54.8844 67.6062 54.8844 67.4154 55.0971C67.1643 55.3771 66.9132 55.6571 66.6621 55.9372C66.0282 56.6439 65.394 57.3503 64.7598 58.0566C64.5056 58.3398 64.2513 58.623 63.9971 58.9062C56.3701 67.4023 56.3701 67.4023 55.9887 67.8273C55.7349 68.11 55.4811 68.3927 55.2273 68.6755C54.5852 69.3909 53.9428 70.1061 53.2999 70.8207C53.1711 70.964 53.0424 71.1072 52.9098 71.2548C52.6527 71.5406 52.395 71.8259 52.1369 72.1107C51.5359 72.7759 50.9507 73.4481 50.3823 74.1428C50.1789 74.3892 49.9755 74.6356 49.7659 74.8895C49.5939 75.1053 49.422 75.321 49.2448 75.5433C47.1543 77.4237 45.0511 77.8062 42.3374 77.7809C42.0065 77.7833 41.6756 77.7858 41.3347 77.7884C40.4356 77.7935 39.5368 77.7924 38.6377 77.7879C37.6934 77.7842 36.7491 77.7876 35.8047 77.7898C34.2211 77.7924 32.6376 77.789 31.0539 77.7823C29.2251 77.7745 27.3964 77.7771 25.5676 77.7848C23.993 77.7913 22.4184 77.7922 20.8437 77.7885C19.9051 77.7863 18.9666 77.786 18.028 77.7906C16.9829 77.7942 15.9383 77.7888 14.8934 77.7809C14.5837 77.7837 14.2741 77.7866 13.9551 77.7896C11.871 77.7604 11.871 77.7604 10.7632 76.9505C10.2827 76.2138 10.0879 75.8899 10.0867 75.025C10.0832 74.8076 10.0798 74.5902 10.0762 74.3663C10.0798 74.1356 10.0835 73.9048 10.0873 73.6671C10.0866 73.4266 10.086 73.1862 10.0853 72.9384C10.0856 72.4317 10.0893 71.9249 10.0962 71.4181C10.1057 70.6429 10.1019 69.8685 10.0965 69.0933C10.0984 68.6 10.1011 68.1068 10.1047 67.6136C10.1033 67.3823 10.1019 67.151 10.1005 66.9127C10.1202 65.9406 10.1429 65.2953 10.7317 64.5097C11.5105 63.8937 11.899 63.8593 12.8753 63.8528C13.1761 63.8483 13.477 63.8439 13.7869 63.8392C14.2723 63.8413 14.2723 63.8413 14.7675 63.8435C15.1012 63.8417 15.4349 63.84 15.7788 63.8382C16.4844 63.8362 17.1901 63.8371 17.8958 63.8407C18.9758 63.8446 20.0551 63.8349 21.135 63.8241C21.8206 63.8239 22.5062 63.8244 23.1918 63.8258C23.5148 63.822 23.8379 63.8183 24.1707 63.8144C26.664 63.8437 26.664 63.8437 27.533 64.6876C28.0117 65.4199 28.0117 65.4199 28.0117 65.9863C29.7507 65.9863 31.4896 65.9863 33.2813 65.9863C33.4643 65.519 33.6474 65.0518 33.836 64.5703C34.3906 64.0039 34.3906 64.0039 35.0206 63.9585C35.2789 63.9677 35.5372 63.9768 35.8034 63.9862C39.0609 64.1984 39.0609 64.1984 42.036 63.1532C42.7202 62.4371 43.2739 61.7178 43.8203 60.8887C44.1157 60.536 44.4159 60.1876 44.7217 59.8444C44.8726 59.6644 45.0234 59.4844 45.1789 59.299C45.9895 58.3589 46.8294 57.448 47.6685 56.5344C48.9653 55.1217 50.2484 53.699 51.5123 52.2554C52.3986 51.2505 53.2982 50.2584 54.1975 49.2657C55.1379 48.2275 56.076 47.1872 57.0115 46.1444C57.1362 46.0054 57.261 45.8663 57.3895 45.7231C57.6405 45.4431 57.8916 45.1631 58.1427 44.8831C58.7765 44.1764 59.4107 43.47 60.0449 42.7637C60.2992 42.4805 60.5534 42.1973 60.8076 41.9141C61.3161 41.3477 61.8246 40.7812 62.333 40.2148C62.4589 40.0745 62.5848 39.9341 62.7145 39.7895C62.9678 39.5076 63.2215 39.2263 63.4759 38.9454C64.1315 38.2199 64.7749 37.4871 65.4033 36.7367C65.5336 36.5842 65.6639 36.4316 65.7982 36.2743C66.1577 35.8528 66.513 35.4276 66.868 35.0021C68.1127 33.8648 69.2959 33.1132 71.014 33.1557C72.0153 33.2917 73.0089 33.46 74.0053 33.6293C80.285 34.4646 87.0163 35.1246 92.3143 30.9809C98.2733 26.0737 103.336 19.9115 108.164 13.877C107.978 13.8728 107.792 13.8687 107.601 13.8644C106.754 13.8433 105.908 13.8159 105.061 13.7885C104.769 13.7821 104.476 13.7757 104.175 13.7691C103.75 13.754 103.75 13.754 103.316 13.7387C102.926 13.7275 102.926 13.7275 102.528 13.7162C101.645 13.5707 101.113 13.2886 100.398 12.7441C100.051 11.6805 100.065 10.678 100.055 9.56917C100.053 9.34115 100.051 9.11312 100.048 8.87819C100.044 8.39591 100.041 7.91361 100.039 7.43132C100.034 6.69532 100.022 5.95967 100.01 5.22377C100.007 4.75472 100.005 4.28566 100.003 3.8166C99.9982 3.59737 99.9933 3.37814 99.9883 3.15227C99.9921 2.18433 100.074 1.50377 100.532 0.649856C101.512 -0.262079 102.402 -0.196809 103.663 -0.17873Z" fill="#444444"/>
<path d="M109.849 59.1837C115.369 59.1837 120.889 59.1837 126.576 59.1837C126.585 61.4299 126.595 63.6761 126.605 65.9905C126.612 67.4109 126.62 68.8314 126.629 70.2518C126.643 72.5079 126.656 74.764 126.664 77.0202C126.67 78.8385 126.68 80.6568 126.693 82.4751C126.697 83.1698 126.7 83.8646 126.702 84.5594C126.704 85.5303 126.711 86.501 126.72 87.4719C126.719 87.761 126.719 88.0502 126.719 88.3481C126.722 88.6123 126.725 88.8764 126.728 89.1486C126.729 89.3783 126.731 89.608 126.732 89.8446C126.856 90.6003 127.048 90.8437 127.59 91.2988C128.091 91.4408 128.091 91.4408 128.603 91.5856C128.603 93.4781 128.603 95.3706 128.603 97.3204C128.185 97.5097 127.767 97.6989 127.336 97.8939C126.698 98.6158 126.764 98.8546 126.759 99.8536C126.756 100.146 126.753 100.439 126.75 100.741C126.75 101.063 126.749 101.385 126.748 101.717C126.746 102.056 126.743 102.394 126.741 102.743C126.734 103.673 126.73 104.602 126.727 105.532C126.723 106.503 126.716 107.473 126.709 108.444C126.698 110.283 126.688 112.123 126.68 113.962C126.669 116.26 126.655 118.559 126.641 120.858C126.616 124.96 126.596 129.061 126.576 133.163C121.056 133.163 115.536 133.163 109.849 133.163C109.849 108.75 109.849 84.3367 109.849 59.1837Z" fill="#A848D9"/>
<path d="M77.6562 70.2344C83.6053 70.2344 89.5543 70.2344 95.6836 70.2344C95.6836 90.4211 95.6836 110.608 95.6836 131.406C89.7346 131.406 83.7855 131.406 77.6562 131.406C77.6562 111.22 77.6562 91.0328 77.6562 70.2344Z" fill="#45AFFF"/>
<path d="M104.559 4.24805C107.247 4.22885 109.935 4.21326 112.623 4.20403C113.871 4.1996 115.119 4.19358 116.368 4.18395C117.573 4.17472 118.777 4.16964 119.982 4.16744C120.442 4.16587 120.901 4.16281 121.361 4.15822C122.005 4.15204 122.648 4.1512 123.292 4.1516C123.482 4.14854 123.672 4.14549 123.867 4.14234C125.059 4.15021 125.8 4.3518 126.746 5.09766C127.412 6.11695 127.376 6.8434 127.364 8.0195C127.364 8.22956 127.364 8.43961 127.364 8.65603C127.364 9.35022 127.359 10.0443 127.355 10.7385C127.354 11.2198 127.353 11.7012 127.353 12.1825C127.35 13.4494 127.345 14.7162 127.339 15.9831C127.333 17.2758 127.331 18.5685 127.328 19.8613C127.322 22.3978 127.312 24.9342 127.301 27.4707C125.653 27.4707 124.006 27.4707 122.309 27.4707C122.301 26.7037 122.294 25.9367 122.287 25.1464C122.276 24.4041 122.264 23.6618 122.251 22.9195C122.243 22.4033 122.237 21.8872 122.233 21.371C122.227 20.6292 122.215 19.8878 122.2 19.1461C122.2 18.7996 122.2 18.7996 122.199 18.446C122.172 17.1843 122.172 17.1843 121.553 16.1319C120.793 15.8037 120.356 15.7624 119.535 15.8594C118.85 16.3258 118.85 16.3258 118.215 16.9795C117.973 17.2134 117.731 17.4474 117.481 17.6884C117.125 18.0447 117.125 18.0447 116.762 18.4082C116.557 18.6109 116.352 18.8137 116.141 19.0226C115.528 19.6357 114.922 20.2552 114.317 20.8768C113.977 21.2247 113.977 21.2247 113.63 21.5797C113.143 22.0777 112.657 22.576 112.171 23.0747C111.402 23.8632 110.633 24.6508 109.863 25.4381C108.233 27.106 106.604 28.7751 104.975 30.4443C103.079 32.3871 101.182 34.3294 99.2845 36.2705C98.5253 37.0476 97.7669 37.8255 97.0085 38.6035C96.5465 39.0763 96.0845 39.5491 95.6224 40.0218C95.4109 40.2392 95.1994 40.4566 94.9815 40.6807C94.7887 40.8775 94.5959 41.0744 94.3973 41.2772C94.1458 41.535 94.1458 41.535 93.8892 41.798C92.9896 42.6444 92.2469 42.497 91.0591 42.4622C90.6641 42.452 90.2692 42.442 89.8743 42.4322C89.6642 42.4268 89.4541 42.4213 89.2376 42.4157C87.8837 42.3849 86.5294 42.3764 85.1752 42.3651C83.989 42.3539 82.8041 42.3343 81.6184 42.295C76.0795 41.884 76.0795 41.884 71.0945 43.7848C70.1217 44.7429 69.3515 45.7858 68.632 46.9508C67.4507 48.7785 65.8452 50.3421 64.3784 51.9324C63.0813 53.3448 61.7985 54.7678 60.5346 56.2114C59.6483 57.2163 58.7487 58.2084 57.8494 59.2011C56.909 60.2393 55.9709 61.2796 55.0354 62.3224C54.9107 62.4614 54.7859 62.6005 54.6574 62.7437C54.4063 63.0237 54.1553 63.3037 53.9042 63.5837C53.3975 64.1486 52.8906 64.7134 52.3836 65.278C52.1302 65.5603 51.8769 65.8426 51.6236 66.1249C50.9717 66.8514 50.3191 67.5772 49.6651 68.3017C49.3982 68.5978 49.1313 68.8939 48.8645 69.1901C48.6725 69.4027 48.6725 69.4027 48.4766 69.6197C47.7873 70.3864 47.1205 71.1658 46.4724 71.969C45.7014 72.8523 45.2007 73.2868 44.0437 73.4193C43.8218 73.4188 43.5999 73.4183 43.3713 73.4177C42.9874 73.4189 42.9874 73.4189 42.5958 73.4201C42.3172 73.418 42.0385 73.416 41.7513 73.4139C41.4563 73.414 41.1613 73.4141 40.8573 73.4142C39.8819 73.4138 38.9065 73.4094 37.9311 73.4049C37.2549 73.4039 36.5787 73.4031 35.9025 73.4025C34.1225 73.4003 32.3425 73.3948 30.5625 73.3885C28.7462 73.3827 26.93 73.3801 25.1137 73.3773C21.5497 73.3712 17.9858 73.3615 14.4219 73.3496C14.4219 71.6674 14.4219 69.9852 14.4219 68.252C14.7872 68.2478 15.1525 68.2437 15.5289 68.2394C16.8826 68.223 18.2363 68.2012 19.5899 68.1776C20.1761 68.1682 20.7623 68.1603 21.3485 68.1538C22.1905 68.1444 23.0324 68.1295 23.8743 68.1137C24.2683 68.111 24.2683 68.111 24.6702 68.1082C24.9144 68.1026 25.1587 68.097 25.4103 68.0912C25.6253 68.0881 25.8402 68.0849 26.0617 68.0817C26.7826 67.9372 27.0071 67.7049 27.457 67.1191C27.6401 66.7453 27.8231 66.3715 28.0117 65.9863C29.7507 65.9863 31.4896 65.9863 33.2812 65.9863C33.5558 66.5471 33.8304 67.1078 34.1133 67.6855C35.3007 68.2918 36.8705 68.0447 38.1885 68.0523C38.7711 68.0572 39.3533 68.0696 39.9359 68.0821C40.308 68.085 40.6801 68.0874 41.0523 68.0893C41.3901 68.0935 41.7279 68.0976 42.0759 68.1018C43.5279 67.89 44.317 66.9718 45.2244 65.8624C46.0979 64.8195 46.9976 63.8064 47.9111 62.8003C48.2015 62.4802 48.4918 62.1601 48.7822 61.8401C48.9264 61.6811 49.0707 61.5221 49.2193 61.3583C49.8719 60.6376 50.521 59.9136 51.1699 59.1895C52.2303 58.0068 53.2937 56.8271 54.3594 55.6494C55.8094 54.0468 57.2544 52.4396 58.6973 50.8304C59.3312 50.1237 59.9654 49.4173 60.5996 48.7109C60.8538 48.4277 61.1081 48.1445 61.3623 47.8613C62.8877 46.1621 62.8877 46.1621 63.2692 45.7371C63.5228 45.4546 63.7764 45.1721 64.0299 44.8896C64.6753 44.1704 65.3211 43.4517 65.9677 42.7338C66.2296 42.4429 66.4914 42.1519 66.7532 41.861C66.8793 41.7208 67.0055 41.5807 67.1355 41.4364C68.1116 40.3497 69.0673 39.246 70.013 38.1318C70.634 37.4627 70.9062 37.3864 71.8204 37.3513C72.348 37.3537 72.348 37.3537 72.8863 37.3561C73.2884 37.3569 73.6906 37.3577 74.0928 37.3584C74.4133 37.3597 74.4133 37.3597 74.7403 37.361C75.8726 37.3642 77.0049 37.3584 78.1373 37.3541C79.5779 37.3489 81.0184 37.3464 82.4591 37.3546C83.6234 37.361 84.7873 37.3577 85.9515 37.3481C86.394 37.3462 86.8365 37.3478 87.279 37.353C87.9012 37.3599 88.5223 37.3544 89.1445 37.3462C89.4975 37.3464 89.8506 37.3466 90.2144 37.3469C91.6756 36.9967 92.4238 36.1826 93.4648 35.1172C93.6449 34.9397 93.825 34.7623 94.0105 34.5795C94.5873 34.0077 95.156 33.4286 95.7236 32.8473C95.9372 32.6297 96.1508 32.4122 96.3708 32.188C97.0694 31.4758 97.7671 30.7626 98.4646 30.0494C98.952 29.5519 99.4394 29.0545 99.9268 28.5571C100.944 27.5185 101.961 26.4794 102.978 25.44C104.023 24.3716 105.069 23.3038 106.115 22.2368C107.38 20.9461 108.645 19.6547 109.91 18.3628C110.392 17.8706 110.874 17.3786 111.356 16.8868C112.027 16.2022 112.697 15.5166 113.367 14.8308C113.568 14.6267 113.768 14.4227 113.975 14.2124C114.156 14.0263 114.338 13.8401 114.525 13.6483C114.762 13.4054 114.762 13.4054 115.005 13.1577C115.609 12.4827 115.655 12.1432 115.739 11.2042C115.753 10.2151 115.753 10.2151 115.236 9.71651C114.26 9.19416 113.327 9.20995 112.251 9.20078C111.92 9.19316 111.92 9.19316 111.584 9.18538C110.883 9.17007 110.182 9.16046 109.481 9.151C109.005 9.14161 108.53 9.13184 108.054 9.12169C106.889 9.09695 105.724 9.07993 104.559 9.0625C104.559 7.47373 104.559 5.88496 104.559 4.24805Z" fill="url(#paint0_linear_1677_1553)"/>
<path d="M46.3164 87.2266C52.2654 87.2266 58.2145 87.2266 64.3438 87.2266C64.3438 101.806 64.3438 116.385 64.3438 131.406C58.3947 131.406 52.4457 131.406 46.3164 131.406C46.3164 116.827 46.3164 102.248 46.3164 87.2266Z" fill="#FC574E"/>
<path d="M4.16016 135.938C48.2745 135.938 92.3887 135.938 137.84 135.938C137.84 137.526 137.84 139.115 137.84 140.752C137.033 140.753 137.033 140.753 136.209 140.753C123.447 140.763 110.684 140.779 97.9219 140.802C96.3524 140.805 94.7828 140.808 93.2133 140.811C92.7446 140.812 92.7446 140.812 92.2664 140.812C87.2014 140.821 82.1363 140.826 77.0713 140.829C71.8773 140.833 66.6833 140.841 61.4892 140.852C58.2821 140.86 55.0751 140.863 51.8679 140.863C49.6711 140.863 47.4744 140.867 45.2776 140.874C44.0086 140.879 42.7397 140.881 41.4707 140.878C40.3103 140.876 39.1499 140.879 37.9895 140.886C37.5684 140.887 37.1474 140.887 36.7263 140.885C36.1564 140.882 35.5865 140.886 35.0166 140.891C34.6993 140.892 34.3819 140.892 34.055 140.893C33.2554 140.962 33.2554 140.962 32.7741 141.557C32.4153 142.189 32.4153 142.189 32.1719 143.018C30.3414 143.018 28.5109 143.018 26.625 143.018C26.3504 142.457 26.0759 141.896 25.793 141.318C24.9738 140.9 24.1391 140.985 23.2404 140.977C23.0347 140.974 22.8291 140.971 22.6172 140.969C21.9359 140.96 21.2546 140.953 20.5733 140.946C20.1015 140.94 19.6297 140.934 19.1579 140.928C17.915 140.912 16.6721 140.898 15.4292 140.884C14.1613 140.87 12.8935 140.854 11.6257 140.839C9.13719 140.808 6.64868 140.78 4.16016 140.752C4.16016 139.163 4.16016 137.574 4.16016 135.938Z" fill="#3F72C7"/>
<path d="M14.6992 100.82C20.7398 100.82 26.7803 100.82 33.0039 100.82C33.0039 111.007 33.0039 121.194 33.0039 131.689C26.9634 131.689 20.9228 131.689 14.6992 131.689C14.6992 121.503 14.6992 111.316 14.6992 100.82Z" fill="#F7C846"/>
<path d="M77.6562 70.2344C83.6053 70.2344 89.5543 70.2344 95.6836 70.2344C95.7948 75.9618 95.7948 75.9618 95.819 78.4063C95.8356 80.0735 95.8552 81.7402 95.8928 83.4071C95.923 84.7512 95.9395 86.095 95.9467 87.4395C95.9518 87.9519 95.9618 88.4644 95.9768 88.9766C96.0892 92.978 96.0892 92.978 95.1236 94.1184C94.3997 94.5728 93.711 94.8704 92.9102 95.1562C92.54 95.3499 92.1726 95.5491 91.8089 95.7552C91.4572 95.9365 91.1049 96.1167 90.7521 96.2957C90.56 96.3942 90.3678 96.4927 90.1699 96.5941C89.5586 96.9068 88.9464 97.2176 88.334 97.5281C88.1254 97.6342 87.9168 97.7403 87.702 97.8496C85.3002 99.0705 82.8963 100.285 80.447 101.404C80.2525 101.494 80.058 101.583 79.8577 101.675C79.0717 102.025 78.5238 102.236 77.6562 102.236C77.6562 91.6757 77.6562 81.115 77.6562 70.2344Z" fill="#8EC9FA"/>
<path d="M64.3438 107.617C64.3438 115.468 64.3438 123.318 64.3438 131.406C58.3947 131.406 52.4457 131.406 46.3164 131.406C46.3164 125.332 46.3164 119.257 46.3164 112.998C48.4214 112.437 50.5265 111.877 52.6953 111.299C54.5728 110.716 56.4444 110.126 58.3115 109.511C58.7831 109.357 59.2547 109.204 59.7264 109.05C64.1263 107.617 64.1263 107.617 64.3438 107.617Z" fill="#D4463F"/>
<path d="M108.996 58.623C114.945 58.623 120.894 58.623 127.023 58.623C127.075 60.4863 127.126 62.3496 127.179 64.2694C127.214 65.1439 127.214 65.1439 127.248 66.036C127.332 69.7073 127.332 69.7073 126.492 71.1436C125.869 71.7826 125.259 72.2818 124.527 72.7832C124.188 73.0855 123.852 73.3916 123.522 73.7036C123.34 73.8628 123.157 74.022 122.969 74.1859C122.454 74.6379 121.946 75.0952 121.44 75.5577C118.813 77.942 116.053 80.1076 113.221 82.2304C112.675 82.6401 112.132 83.0528 111.59 83.4675C111.317 83.6741 111.045 83.8807 110.764 84.0936C110.537 84.2656 110.311 84.4375 110.077 84.6147C109.551 84.9609 109.551 84.9609 108.996 84.9609C108.996 76.2694 108.996 67.5779 108.996 58.623Z" fill="#E6B8FF"/>
<path d="M14.6992 100.82C20.7398 100.82 26.7803 100.82 33.0039 100.82C33.0039 100.914 33.0039 101.007 33.0039 101.104C27.0549 101.104 21.1059 101.104 14.9766 101.104C14.9766 106.804 14.9766 112.505 14.9766 118.379C20.4383 117.893 25.7539 117.238 31.1412 116.23C31.8945 116.113 31.8945 116.113 33.0039 116.113C33.0039 121.253 33.0039 126.394 33.0039 131.689C26.9634 131.689 20.9228 131.689 14.6992 131.689C14.6992 121.503 14.6992 111.316 14.6992 100.82Z" fill="#E39E12"/>
</g>
<defs>
<linearGradient id="paint0_linear_1677_1553" x1="70.8951" y1="4.14234" x2="70.8951" y2="73.4201" gradientUnits="userSpaceOnUse">
<stop stop-color="#FF6EA6"/>
<stop offset="1" stop-color="#E7478F"/>
</linearGradient>
<clipPath id="clip0_1677_1553">
<rect width="142" height="145" fill="white"/>
</clipPath>
</defs>
</svg>
