<svg width="166" height="155" viewBox="0 0 166 155" fill="none" xmlns="http://www.w3.org/2000/svg">
<path d="M50.4773 0.00694523C51.2601 0.00580591 52.0429 0.00415044 52.8257 0.00202063C54.7225 -0.00172941 56.6192 8.57777e-05 58.516 0.00463009C60.7286 0.0097273 62.9412 0.00873248 65.1538 0.0076096C69.1031 0.00584566 73.0523 0.0100878 77.0016 0.0175196C80.8274 0.024718 84.6531 0.0268427 88.4789 0.0236879C92.6538 0.0202514 96.8288 0.0196814 101.004 0.0240182C101.449 0.0244771 101.895 0.0249344 102.341 0.0253901C102.56 0.025618 102.779 0.025846 103.005 0.0260808C104.545 0.0275032 106.085 0.0269535 107.624 0.0256712C109.698 0.0240293 111.772 0.0272886 113.846 0.0337787C114.606 0.0354487 115.366 0.0355976 116.126 0.0340936C117.166 0.0322948 118.205 0.0360805 119.245 0.041243C119.543 0.0394353 119.842 0.0376276 120.15 0.0357651C124.847 0.0780101 128.752 1.95171 132.058 4.98327C136.264 9.04696 136.872 13.9454 136.854 19.3392C136.854 19.7151 136.855 20.091 136.855 20.4783C136.854 21.501 136.853 22.5237 136.851 23.5464C136.848 24.6182 136.848 25.6901 136.848 26.7619C136.847 28.7879 136.844 30.8139 136.841 32.8399C136.837 35.1479 136.836 37.456 136.834 39.7641C136.831 44.5086 136.825 49.2532 136.818 53.9977C137.646 53.6521 137.646 53.6521 138.473 53.3065C140.615 52.5532 143.307 52.8398 145.358 53.6969C147.392 54.7959 148.654 56.4422 149.386 58.5094C149.735 61.1263 149.432 63.264 147.775 65.4274C146.964 66.2849 146.113 67.0743 145.197 67.8336C145.255 68.0054 145.314 68.1772 145.374 68.3541C145.649 69.1804 145.907 70.0103 146.164 70.8414C146.256 71.1214 146.348 71.4013 146.443 71.6897C148.231 77.7785 147.224 84.0522 144.017 89.5404C142.742 91.5768 141.065 93.613 139.074 95.0771C137.995 95.9193 137.254 96.5887 136.903 97.8845C136.815 98.9492 136.807 99.9907 136.828 101.058C136.827 101.464 136.824 101.87 136.821 102.276C136.814 103.373 136.823 104.47 136.835 105.567C136.844 106.72 136.839 107.873 136.835 109.026C136.829 111.212 136.836 113.397 136.847 115.582C136.864 118.779 136.865 121.977 136.862 125.174C136.862 125.409 136.862 125.645 136.862 125.888C136.861 126.359 136.861 126.829 136.86 127.3C136.859 128.668 136.863 130.036 136.871 131.403C136.875 132.259 136.877 133.115 136.878 133.971C136.88 134.549 136.885 135.127 136.89 135.705C136.892 141.319 135.728 145.625 131.558 149.792C128.043 152.936 124.115 154.253 119.322 154.238C118.997 154.24 118.671 154.241 118.335 154.242C117.249 154.246 116.162 154.246 115.075 154.245C114.294 154.247 113.513 154.249 112.732 154.251C110.834 154.256 108.935 154.258 107.036 154.258C105.491 154.259 103.947 154.26 102.402 154.262C98.0156 154.267 93.6294 154.27 89.2431 154.269C88.8889 154.269 88.8889 154.269 88.5275 154.269C88.1728 154.269 88.1728 154.269 87.8109 154.269C83.9816 154.269 80.1522 154.275 76.3228 154.283C72.3843 154.292 68.4458 154.296 64.5072 154.296C62.2987 154.295 60.0902 154.297 57.8816 154.303C55.8033 154.31 53.7251 154.309 51.6468 154.305C50.8862 154.304 50.1256 154.306 49.365 154.309C43.0609 154.338 38.2209 153.776 33.431 149.552C29.8239 145.999 28.4818 141.804 28.4978 137.007C28.4976 136.704 28.4973 136.402 28.497 136.09C28.4965 135.077 28.4982 134.064 28.5 133.052C28.5001 132.325 28.5 131.599 28.4999 130.873C28.4998 129.31 28.5007 127.746 28.5025 126.183C28.5051 123.923 28.506 121.663 28.5064 119.402C28.5071 115.735 28.5092 112.068 28.5123 108.401C28.5152 104.839 28.5175 101.277 28.5189 97.715C28.519 97.4953 28.519 97.2757 28.5191 97.0494C28.5196 95.9475 28.52 94.8456 28.5204 93.7437C28.5237 84.6057 28.5294 75.4677 28.5366 66.3297C26.899 66.3258 25.2622 66.3343 23.6247 66.3539C23.0691 66.3589 22.5135 66.3606 21.9579 66.3588C18.1364 66.3491 15.5064 66.5768 12.6067 69.1303C12.2069 69.504 11.8131 69.8833 11.4249 70.2673C10.3812 71.245 9.18727 72.0267 7.99215 72.8341C7.58411 73.1198 7.17623 73.4057 6.76855 73.6918C3.50007 75.9352 3.50007 75.9352 1.46627 75.6539C0.615951 75.0388 0.225817 74.6804 0.0149906 73.6847C0.0142615 73.2486 0.0142591 73.2486 0.0135153 72.8036C0.00988041 72.4688 0.00624548 72.1341 0.0025004 71.7892C0.00510976 71.4232 0.00771912 71.0572 0.0104076 70.6802C0.0081487 70.2937 0.00588985 69.9072 0.00356255 69.509C-0.002314 68.4493 -3.69131e-05 67.3898 0.00404937 66.3301C0.0073157 65.2197 0.00428712 64.1093 0.00226436 62.9988C-8.1244e-05 61.1328 0.00300964 59.2668 0.0091487 57.4007C0.0161518 55.2472 0.0138998 53.0939 0.00679327 50.9404C0.000929882 49.0892 0.000127238 47.238 0.00349371 45.3867C0.00549751 44.2822 0.00578678 43.1777 0.001512 42.0731C-0.00292761 40.8397 0.00323825 39.6066 0.0104076 38.3732C0.00779819 38.0097 0.00518883 37.6462 0.0025004 37.2716C0.0278241 34.9157 0.36196 33.3171 1.98366 31.4426C4.90322 29.1618 8.04884 29.2082 11.6995 29.2455C12.1866 29.2472 12.6738 29.2485 13.161 29.2494C14.4341 29.2528 15.7071 29.2616 16.9802 29.2717C18.2829 29.281 19.5857 29.285 20.8884 29.2896C23.4379 29.2992 25.9872 29.3146 28.5366 29.3336C28.5334 29.063 28.5334 29.063 28.5301 28.787C28.5085 26.8935 28.494 25.0001 28.4835 23.1065C28.4786 22.4017 28.4721 21.697 28.4636 20.9922C28.4518 19.9738 28.4464 18.9554 28.4422 17.9368C28.4372 17.6265 28.4322 17.3162 28.427 16.9964C28.4259 12.3795 30.026 8.02159 33.4713 4.66957C38.5936 0.239947 43.8193 -0.0207219 50.4773 0.00694523Z" fill="#D8EFF3"/>
<path d="M50.4773 0.00694523C51.2601 0.00580591 52.0429 0.00415044 52.8257 0.00202063C54.7225 -0.00172941 56.6192 8.57777e-05 58.516 0.00463009C60.7286 0.0097273 62.9412 0.00873248 65.1538 0.0076096C69.1031 0.00584566 73.0523 0.0100878 77.0016 0.0175196C80.8274 0.024718 84.6531 0.0268427 88.4788 0.0236879C92.6538 0.0202514 96.8287 0.0196814 101.004 0.0240182C101.449 0.0244771 101.895 0.0249344 102.341 0.0253901C102.56 0.025618 102.779 0.025846 103.005 0.0260808C104.545 0.0275032 106.084 0.0269535 107.624 0.0256712C109.698 0.0240293 111.772 0.0272886 113.846 0.0337787C114.606 0.0354487 115.366 0.0355976 116.126 0.0340936C117.166 0.0322948 118.205 0.0360805 119.245 0.041243C119.543 0.0394353 119.842 0.0376276 120.15 0.0357651C124.847 0.0780101 128.752 1.95171 132.058 4.98327C136.268 9.05096 136.848 13.9571 136.9 19.3515C136.905 19.7289 136.91 20.1063 136.915 20.4952C136.955 23.9548 136.978 27.4146 136.995 30.8744C137.007 33.4269 137.029 35.9791 137.064 38.5315C137.087 40.3326 137.1 42.1337 137.104 43.935C137.107 45.0084 137.114 46.0812 137.134 47.1543C137.156 48.3515 137.155 49.5481 137.152 50.7455C137.162 51.0971 137.172 51.4488 137.182 51.8111C137.156 53.7426 136.873 54.7704 135.418 56.1889C134.124 57.2928 134.124 57.2928 132.769 57.3815C132.404 57.2574 132.038 57.1333 131.662 57.0055C131.453 56.9361 131.244 56.8667 131.028 56.7952C130.612 56.6542 130.198 56.5061 129.788 56.3487C128.818 56.0107 127.824 55.764 126.828 55.5016C126.827 55.2899 126.827 55.0782 126.826 54.8601C126.814 49.7035 126.795 44.547 126.768 39.3904C126.756 36.8967 126.745 34.4031 126.74 31.9094C126.736 29.7353 126.727 27.5612 126.713 25.3872C126.706 24.2365 126.701 23.0859 126.701 21.9353C126.702 20.8509 126.696 19.7667 126.685 18.6824C126.681 18.0974 126.684 17.5124 126.686 16.9273C126.656 14.5309 126.362 12.8838 124.688 10.9895C124.516 10.8581 124.345 10.7266 124.169 10.5912C124.001 10.4559 123.833 10.3206 123.66 10.1812C121.073 8.70895 118.615 8.7246 115.649 8.73012C115.228 8.72159 114.808 8.71306 114.374 8.70427C113.97 8.70349 113.565 8.70272 113.148 8.70192C112.781 8.69978 112.414 8.69765 112.036 8.69546C110.717 8.93966 110.257 9.41507 109.425 10.3844C109.043 11.0707 109.043 11.0707 108.831 11.7943C108.742 12.0541 108.652 12.3139 108.56 12.5815C108.43 12.9828 108.43 12.9828 108.297 13.3922C107.231 16.6787 107.231 16.6787 105.558 17.9039C104.557 18.2153 103.861 18.2448 102.812 18.249C102.257 18.2522 102.257 18.2522 101.691 18.2555C101.284 18.2563 100.878 18.2571 100.459 18.258C100.027 18.2598 99.5954 18.2618 99.1634 18.264C97.7446 18.2703 96.3258 18.2734 94.9069 18.2764C94.4182 18.2776 93.9296 18.2789 93.4409 18.2801C91.1451 18.2858 88.8494 18.2901 86.5536 18.2926C83.9045 18.2956 81.2554 18.3035 78.6063 18.3156C76.558 18.3247 74.5097 18.3292 72.4614 18.3302C71.2383 18.3309 70.0153 18.3336 68.7922 18.3411C67.6413 18.3481 66.4905 18.3494 65.3396 18.3463C64.7172 18.3461 64.0949 18.3518 63.4725 18.3578C61.4128 18.3462 60.0536 18.3362 58.5073 17.0016C58.0931 16.4506 58.0931 16.4506 57.8426 15.8549C57.7433 15.623 57.644 15.3912 57.5417 15.1523C57.0606 13.8767 56.6013 12.5941 56.1708 11.3028C55.7729 10.133 55.7729 10.133 54.9624 9.18129C54.1375 9.11009 53.3487 9.07533 52.5227 9.06967C52.2794 9.06695 52.036 9.06424 51.7853 9.06144C51.269 9.05707 50.7527 9.0544 50.2363 9.05329C49.4531 9.04974 48.6707 9.03497 47.8876 9.01974C45.2105 8.99427 43.2563 9.03451 41.1049 10.6852C40.8922 10.6852 40.6795 10.6852 40.4604 10.6852C40.374 10.8465 40.2876 11.0078 40.1986 11.174C39.8159 11.8883 39.8159 11.8883 39.3189 12.6063C38.637 14.1835 38.6944 15.6703 38.6842 17.3564C38.6755 17.8834 38.6755 17.8834 38.6666 18.4209C38.6492 19.5394 38.6383 20.6579 38.6275 21.7765C38.6168 22.5363 38.6057 23.2961 38.5942 24.0559C38.5668 25.9153 38.5448 27.7748 38.5268 29.6344C39.0191 29.6273 39.0191 29.6273 39.5213 29.6201C40.7489 29.6037 41.9765 29.5934 43.2042 29.5848C43.7337 29.5803 44.2632 29.5742 44.7926 29.5663C45.5574 29.5553 46.3221 29.5503 47.087 29.5463C47.3204 29.5416 47.5538 29.537 47.7943 29.5322C49.7557 29.5316 51.5356 29.8919 53.0955 31.0772C53.2662 31.2711 53.437 31.4649 53.6129 31.6647C53.8752 31.9508 53.8752 31.9508 54.1428 32.2428C55.4061 34.0217 55.7509 35.4968 55.7422 37.5867C55.7449 37.8315 55.7477 38.0764 55.7505 38.3286C55.758 39.1328 55.7583 39.9368 55.7579 40.741C55.7602 41.304 55.7627 41.867 55.7654 42.43C55.7697 43.6084 55.7702 44.7868 55.7683 45.9652C55.7664 47.4691 55.7763 48.9727 55.7893 50.4766C55.7977 51.6391 55.7986 52.8016 55.7974 53.9641C55.798 54.5182 55.801 55.0723 55.8068 55.6264C55.8627 61.6678 55.8627 61.6678 53.4548 64.1888C51.7857 65.73 49.5963 66.362 47.2821 66.4284C46.747 66.4253 46.212 66.4174 45.6771 66.4049C45.4152 66.4034 45.1532 66.4018 44.8834 66.4002C43.3673 66.3825 41.8656 66.2966 40.3551 66.1755C40.0113 66.1481 39.6676 66.1208 39.3135 66.0926C39.0539 66.0716 38.7943 66.0506 38.5268 66.0289C38.5312 75.4908 38.5437 84.9526 38.5677 94.4145C38.5705 95.5319 38.5733 96.6493 38.576 97.7667C38.5765 97.9891 38.5771 98.2116 38.5776 98.4407C38.5862 102.041 38.5891 105.642 38.59 109.242C38.591 112.938 38.5981 116.633 38.6108 120.328C38.6184 122.608 38.6213 124.887 38.6182 127.167C38.6163 128.916 38.6228 130.665 38.6325 132.414C38.6352 133.13 38.6351 133.847 38.6321 134.564C38.6283 135.543 38.6345 136.522 38.6431 137.501C38.6396 137.785 38.6362 138.068 38.6326 138.36C38.6676 140.495 39.3417 141.923 40.9139 143.477C43.0307 145.257 45.0492 145.569 47.7745 145.552C48.0835 145.553 48.3924 145.555 48.7106 145.557C49.7427 145.561 50.7747 145.559 51.8068 145.557C52.548 145.558 53.2893 145.561 54.0305 145.563C56.042 145.568 58.0535 145.568 60.065 145.566C61.7452 145.565 63.4254 145.567 65.1056 145.569C69.2968 145.574 73.488 145.572 77.6793 145.569C81.3145 145.566 84.9497 145.57 88.5849 145.577C92.322 145.584 96.0591 145.587 99.7963 145.585C101.893 145.584 103.989 145.585 106.085 145.59C108.057 145.595 110.029 145.593 112.001 145.588C112.724 145.587 113.446 145.588 114.169 145.591C115.157 145.595 116.146 145.591 117.135 145.586C117.419 145.589 117.702 145.592 117.995 145.595C120.34 145.569 122.539 145.034 124.39 143.641C124.557 143.445 124.723 143.249 124.894 143.048C125.067 142.853 125.24 142.658 125.418 142.457C126.609 140.761 126.597 139.252 126.588 137.282C126.589 136.976 126.59 136.671 126.591 136.356C126.593 135.694 126.594 135.031 126.594 134.369C126.593 133.318 126.598 132.267 126.603 131.216C126.618 128.227 126.626 125.239 126.628 122.251C126.63 120.421 126.638 118.592 126.649 116.763C126.652 116.069 126.653 115.374 126.651 114.679C126.631 105.95 126.631 105.95 129.532 103.228C129.795 103 129.795 103 130.064 102.767C130.247 102.598 130.431 102.43 130.62 102.256C131.196 101.729 131.781 101.212 132.367 100.694C132.762 100.334 133.157 99.9739 133.552 99.6131C136.416 97.0094 136.416 97.0094 136.818 97.0094C136.833 102.393 136.844 107.777 136.851 113.16C136.855 115.66 136.859 118.16 136.866 120.66C136.873 122.841 136.877 125.022 136.878 127.202C136.879 128.355 136.881 129.509 136.886 130.662C136.89 131.75 136.892 132.839 136.891 133.927C136.891 134.511 136.894 135.095 136.898 135.678C136.884 141.304 135.739 145.614 131.558 149.792C128.043 152.936 124.115 154.253 119.322 154.238C118.997 154.24 118.671 154.241 118.335 154.242C117.249 154.246 116.162 154.246 115.075 154.245C114.294 154.247 113.513 154.249 112.732 154.251C110.834 154.256 108.935 154.258 107.036 154.258C105.491 154.259 103.947 154.26 102.402 154.262C98.0156 154.267 93.6294 154.27 89.2431 154.269C88.8889 154.269 88.8889 154.269 88.5275 154.269C88.1728 154.269 88.1728 154.269 87.8109 154.269C83.9815 154.269 80.1522 154.275 76.3228 154.283C72.3843 154.292 68.4458 154.296 64.5072 154.296C62.2987 154.295 60.0902 154.297 57.8816 154.303C55.8033 154.31 53.7251 154.309 51.6468 154.305C50.8862 154.304 50.1256 154.306 49.365 154.309C43.0608 154.338 38.2209 153.776 33.431 149.552C29.8239 145.999 28.4818 141.804 28.4978 137.007C28.4975 136.704 28.4973 136.402 28.497 136.09C28.4965 135.077 28.4982 134.064 28.5 133.052C28.5001 132.325 28.5 131.599 28.4998 130.873C28.4998 129.31 28.5007 127.746 28.5025 126.183C28.5051 123.923 28.506 121.663 28.5064 119.402C28.5071 115.735 28.5092 112.068 28.5123 108.401C28.5152 104.839 28.5175 101.277 28.5189 97.715C28.519 97.4953 28.519 97.2757 28.5191 97.0494C28.5196 95.9475 28.52 94.8456 28.5204 93.7437C28.5237 84.6057 28.5294 75.4677 28.5366 66.3297C26.899 66.3258 25.2622 66.3343 23.6247 66.3539C23.0691 66.3589 22.5135 66.3606 21.9579 66.3588C18.1364 66.3491 15.5064 66.5768 12.6067 69.1303C12.2069 69.504 11.8131 69.8833 11.4249 70.2673C10.3812 71.245 9.18727 72.0267 7.99215 72.8341C7.58411 73.1198 7.17623 73.4057 6.76854 73.6918C3.50007 75.9352 3.50007 75.9352 1.46627 75.6539C0.615951 75.0388 0.225817 74.6804 0.0149906 73.6847C0.0142615 73.2486 0.0142591 73.2486 0.0135153 72.8036C0.0098804 72.4688 0.00624547 72.1341 0.0025004 71.7892C0.00510976 71.4232 0.00771912 71.0572 0.0104075 70.6802C0.0081487 70.2937 0.00588985 69.9072 0.00356255 69.509C-0.002314 68.4493 -3.69131e-05 67.3898 0.00404937 66.3301C0.0073157 65.2197 0.00428711 64.1093 0.00226436 62.9988C-8.1244e-05 61.1328 0.00300964 59.2668 0.0091487 57.4007C0.0161518 55.2472 0.0138998 53.0939 0.00679327 50.9404C0.000929882 49.0892 0.000127238 47.238 0.00349371 45.3867C0.00549751 44.2822 0.00578678 43.1777 0.001512 42.0731C-0.0029276 40.8397 0.00323825 39.6066 0.0104075 38.3732C0.00779819 38.0097 0.00518883 37.6462 0.0025004 37.2716C0.027824 34.9157 0.36196 33.3171 1.98365 31.4426C4.90322 29.1618 8.04884 29.2082 11.6995 29.2455C12.1866 29.2472 12.6738 29.2485 13.161 29.2494C14.4341 29.2528 15.7071 29.2616 16.9802 29.2717C18.2829 29.281 19.5857 29.285 20.8884 29.2896C23.4379 29.2992 25.9872 29.3146 28.5366 29.3336C28.5334 29.063 28.5334 29.063 28.5301 28.787C28.5085 26.8935 28.494 25.0001 28.4835 23.1065C28.4786 22.4017 28.4721 21.697 28.4636 20.9922C28.4518 19.9738 28.4464 18.9554 28.4422 17.9368C28.4372 17.6265 28.4322 17.3162 28.427 16.9964C28.4259 12.3795 30.026 8.02159 33.4713 4.66957C38.5936 0.239947 43.8193 -0.0207219 50.4773 0.00694523Z" fill="#4DD4F7"/>
<path d="M145.358 53.6969C147.392 54.7959 148.654 56.4422 149.386 58.5094C149.735 61.1263 149.432 63.264 147.775 65.4274C146.964 66.2849 146.113 67.0743 145.197 67.8336C145.255 68.0054 145.314 68.1772 145.374 68.3541C145.649 69.1804 145.907 70.0103 146.163 70.8414C146.256 71.1214 146.348 71.4013 146.443 71.6897C148.231 77.7785 147.224 84.0522 144.017 89.5404C141.988 92.7803 138.966 95.5311 135.96 97.9846C135.735 98.1688 135.51 98.353 135.278 98.5428C134.806 98.9196 134.328 99.2891 133.842 99.6505C128.631 103.547 126.841 107.834 125.151 113.694C124.52 115.792 123.483 117.308 121.457 118.387C120.033 118.914 118.641 119.016 117.16 118.666C114.945 117.566 113.214 116.008 111.48 114.342C111.25 114.126 111.021 113.911 110.785 113.689C109.472 112.445 108.241 111.176 107.081 109.806C106.371 109.213 105.853 109.123 104.913 109.041C104.015 109.265 104.015 109.265 103.101 109.623C100.136 110.595 97.6975 110.529 94.7847 109.418C91.5292 107.935 89.6239 105.486 88.3797 102.344C87.6974 99.8393 87.9455 97.5621 89.1942 95.2705C89.5327 94.3687 89.4555 94.0112 89.1224 93.0993C88.505 92.3673 87.7913 91.7386 87.0693 91.0972C86.8638 90.9093 86.6583 90.7214 86.4467 90.5277C85.7907 89.9282 85.1307 89.3327 84.4697 88.7379C83.8102 88.1429 83.1518 87.547 82.4962 86.9481C82.0887 86.5759 81.6788 86.2059 81.2664 85.8383C79.8016 84.5023 79.0489 83.386 78.9912 81.4252C79.0277 79.793 79.5918 78.6742 80.7435 77.4586C81.9982 76.371 83.0155 76.0303 84.6787 75.6951C93.6854 73.6021 98.687 68.8542 104.826 62.5733C108.833 58.5376 114.374 55.4955 120.382 55.2008C124.448 55.0617 128.066 55.2926 131.831 56.7928C132.791 57.0488 133.299 57.0051 134.24 56.7047C134.873 56.2579 134.873 56.2579 135.408 55.6896C135.683 55.4162 135.683 55.4162 135.964 55.1374C136.296 54.8013 136.624 54.4618 136.946 54.1175C139.102 52.3607 142.911 52.6677 145.358 53.6969Z" fill="#FADE63"/>
<path d="M28.5358 66.0289C31.8326 66.0289 35.1293 66.0289 38.526 66.0289C38.5265 66.9581 38.5269 67.8873 38.5274 68.8446C38.5324 77.3679 38.5453 85.8912 38.5669 94.4145C38.5697 95.5319 38.5725 96.6493 38.5752 97.7667C38.5757 97.9891 38.5763 98.2116 38.5768 98.4408C38.5854 102.041 38.5884 105.642 38.5892 109.242C38.5902 112.938 38.5973 116.633 38.61 120.328C38.6176 122.608 38.6205 124.887 38.6174 127.167C38.6155 128.916 38.622 130.665 38.6317 132.414C38.6344 133.13 38.6343 133.847 38.6313 134.564C38.6275 135.543 38.6337 136.522 38.6423 137.501C38.6388 137.785 38.6354 138.068 38.6319 138.36C38.6668 140.495 39.3409 141.923 40.9131 143.477C43.0299 145.257 45.0484 145.569 47.7737 145.552C48.0827 145.553 48.3916 145.555 48.7098 145.557C49.7419 145.561 50.7739 145.559 51.806 145.557C52.5472 145.558 53.2885 145.561 54.0297 145.563C56.0412 145.568 58.0527 145.568 60.0642 145.566C61.7444 145.565 63.4246 145.567 65.1048 145.569C69.296 145.574 73.4872 145.572 77.6785 145.569C81.3137 145.566 84.9489 145.57 88.5841 145.577C92.3212 145.584 96.0583 145.587 99.7955 145.585C101.892 145.584 103.988 145.585 106.084 145.59C108.056 145.595 110.028 145.593 112 145.588C112.723 145.587 113.445 145.588 114.168 145.591C115.157 145.595 116.145 145.591 117.134 145.586C117.418 145.589 117.702 145.592 117.994 145.595C120.34 145.569 122.538 145.034 124.39 143.641C124.556 143.445 124.722 143.249 124.893 143.048C125.066 142.853 125.239 142.658 125.417 142.457C126.608 140.761 126.596 139.252 126.587 137.282C126.588 136.976 126.589 136.671 126.59 136.356C126.593 135.694 126.593 135.031 126.593 134.369C126.593 133.318 126.597 132.267 126.602 131.216C126.617 128.227 126.625 125.239 126.627 122.251C126.629 120.421 126.637 118.592 126.648 116.763C126.651 116.069 126.652 115.374 126.651 114.679C126.63 105.95 126.63 105.95 129.531 103.228C129.707 103.076 129.882 102.924 130.063 102.767C130.247 102.598 130.43 102.43 130.619 102.256C131.195 101.729 131.78 101.212 132.366 100.694C132.761 100.334 133.156 99.9739 133.551 99.6131C136.415 97.0094 136.415 97.0094 136.817 97.0094C136.832 102.393 136.843 107.777 136.85 113.16C136.854 115.66 136.858 118.16 136.866 120.66C136.872 122.841 136.876 125.022 136.878 127.202C136.879 128.355 136.88 129.509 136.885 130.662C136.89 131.75 136.891 132.839 136.89 133.927C136.89 134.511 136.894 135.095 136.897 135.678C136.883 141.304 135.738 145.614 131.558 149.792C128.042 152.936 124.114 154.253 119.321 154.238C118.833 154.24 118.833 154.24 118.335 154.242C117.248 154.246 116.161 154.246 115.075 154.245C114.294 154.247 113.513 154.249 112.732 154.251C110.833 154.256 108.934 154.258 107.035 154.258C105.49 154.259 103.946 154.26 102.401 154.262C98.0148 154.267 93.6286 154.27 89.2423 154.269C88.8881 154.269 88.8881 154.269 88.5267 154.269C88.2902 154.269 88.0538 154.269 87.8101 154.269C83.9807 154.269 80.1514 154.275 76.322 154.283C72.3835 154.292 68.445 154.296 64.5064 154.296C62.2979 154.295 60.0894 154.297 57.8808 154.303C55.8025 154.31 53.7243 154.309 51.646 154.305C50.8854 154.304 50.1248 154.306 49.3642 154.309C43.06 154.338 38.2201 153.776 33.4302 149.552C29.8188 145.995 28.4811 141.797 28.497 136.995C28.4967 136.691 28.4965 136.388 28.4962 136.075C28.4957 135.058 28.4974 134.041 28.4992 133.024C28.4993 132.295 28.4992 131.566 28.499 130.836C28.499 129.267 28.4999 127.697 28.5017 126.127C28.5043 123.858 28.5052 121.588 28.5056 119.319C28.5063 115.637 28.5084 111.954 28.5115 108.272C28.5144 104.696 28.5167 101.119 28.5181 97.5427C28.5182 97.3221 28.5182 97.1016 28.5183 96.8744C28.5188 95.768 28.5192 94.6616 28.5196 93.5552C28.5229 84.3797 28.5287 75.2043 28.5358 66.0289Z" fill="#57798B"/>
<path d="M50.477 0.00694523C51.2598 0.00580591 52.0426 0.00415044 52.8254 0.00202063C54.7222 -0.00172941 56.6189 8.57777e-05 58.5157 0.00463009C60.7283 0.0097273 62.9409 0.00873248 65.1535 0.0076096C69.1028 0.00584566 73.052 0.0100878 77.0013 0.0175196C80.8271 0.024718 84.6528 0.0268427 88.4786 0.0236879C92.6535 0.0202514 96.8285 0.0196814 101.003 0.0240182C101.449 0.0244771 101.895 0.0249344 102.34 0.0253901C102.56 0.025618 102.779 0.025846 103.005 0.0260808C104.544 0.0275032 106.084 0.0269535 107.624 0.0256712C109.698 0.0240293 111.772 0.0272886 113.846 0.0337786C114.606 0.0354487 115.366 0.0355976 116.126 0.0340936C117.166 0.0322948 118.205 0.0360805 119.244 0.041243C119.543 0.0394353 119.842 0.0376276 120.15 0.0357651C124.846 0.0780101 128.752 1.95171 132.058 4.98327C136.268 9.05096 136.848 13.9571 136.9 19.3515C136.905 19.7289 136.91 20.1063 136.914 20.4952C136.955 23.9548 136.978 27.4146 136.994 30.8744C137.007 33.4269 137.029 35.9791 137.063 38.5315C137.087 40.3326 137.099 42.1337 137.104 43.935C137.106 45.0083 137.114 46.0812 137.134 47.1543C137.156 48.3515 137.155 49.5481 137.152 50.7455C137.162 51.0971 137.172 51.4488 137.182 51.8111C137.156 53.7426 136.872 54.7704 135.418 56.1889C134.124 57.2928 134.124 57.2928 132.769 57.3815C132.404 57.2574 132.038 57.1333 131.661 57.0055C131.452 56.9361 131.243 56.8667 131.028 56.7952C130.612 56.6542 130.198 56.5061 129.788 56.3487C128.818 56.0107 127.824 55.764 126.827 55.5016C126.827 55.2899 126.826 55.0782 126.826 54.8601C126.814 49.7035 126.795 44.547 126.768 39.3904C126.755 36.8967 126.745 34.4031 126.74 31.9094C126.736 29.7353 126.727 27.5612 126.713 25.3872C126.706 24.2365 126.701 23.0859 126.701 21.9353C126.701 20.8509 126.695 19.7667 126.685 18.6824C126.681 18.0974 126.683 17.5124 126.686 16.9273C126.655 14.5309 126.362 12.8838 124.687 10.9895C124.516 10.8581 124.345 10.7266 124.169 10.5912C124.001 10.4559 123.833 10.3206 123.66 10.1811C121.073 8.70895 118.615 8.7246 115.649 8.73011C115.228 8.72158 114.807 8.71305 114.374 8.70427C113.969 8.70349 113.564 8.70271 113.147 8.70192C112.781 8.69978 112.414 8.69765 112.036 8.69545C110.717 8.93966 110.256 9.41507 109.425 10.3844C109.043 11.0707 109.043 11.0707 108.831 11.7943C108.741 12.0541 108.652 12.3139 108.56 12.5815C108.43 12.9828 108.43 12.9828 108.297 13.3922C107.23 16.6787 107.23 16.6787 105.558 17.9039C104.557 18.2153 103.861 18.2448 102.812 18.249C102.257 18.2522 102.257 18.2522 101.69 18.2555C101.284 18.2563 100.878 18.2571 100.459 18.258C100.027 18.2598 99.5951 18.2618 99.1631 18.264C97.7443 18.2703 96.3255 18.2734 94.9066 18.2764C94.418 18.2776 93.9293 18.2789 93.4406 18.2801C91.1449 18.2858 88.8491 18.2901 86.5534 18.2926C83.9042 18.2956 81.2551 18.3035 78.606 18.3156C76.5577 18.3247 74.5094 18.3292 72.4611 18.3302C71.238 18.3309 70.015 18.3336 68.792 18.3411C67.641 18.3481 66.4902 18.3494 65.3393 18.3463C64.7169 18.3461 64.0946 18.3518 63.4723 18.3578C61.4125 18.3462 60.0533 18.3362 58.507 17.0016C58.0928 16.4506 58.0928 16.4506 57.8423 15.8549C57.743 15.623 57.6438 15.3911 57.5415 15.1523C57.0603 13.8767 56.6011 12.5941 56.1705 11.3028C55.7726 10.133 55.7726 10.133 54.9621 9.18129C54.1372 9.11009 53.3484 9.07533 52.5224 9.06967C52.2791 9.06695 52.0358 9.06424 51.7851 9.06144C51.2687 9.05707 50.7524 9.0544 50.236 9.05329C49.4528 9.04974 48.6704 9.03497 47.8873 9.01973C45.2102 8.99427 43.256 9.03451 41.1047 10.6852C40.892 10.6852 40.6793 10.6852 40.4601 10.6852C40.3737 10.8465 40.2873 11.0078 40.1983 11.174C39.8156 11.8883 39.8156 11.8883 39.3186 12.6063C38.6367 14.1835 38.6941 15.6703 38.6839 17.3564C38.6781 17.7077 38.6723 18.059 38.6664 18.4209C38.6489 19.5394 38.638 20.6579 38.6272 21.7765C38.6165 22.5363 38.6054 23.2961 38.5939 24.0559C38.5657 25.9154 38.5464 27.7747 38.5265 29.6344C35.2298 29.6344 31.933 29.6344 28.5363 29.6344C28.514 27.5158 28.4948 25.3975 28.4832 23.2788C28.4784 22.5594 28.4718 21.8401 28.4634 21.1207C28.4515 20.0814 28.4461 19.0421 28.4419 18.0026C28.4344 17.5273 28.4344 17.5273 28.4268 17.0423C28.4257 12.4055 30.0085 8.03839 33.471 4.66957C38.5933 0.239947 43.819 -0.0207219 50.477 0.00694523Z" fill="#57798C"/>
<path d="M115.548 0.157845C116.662 0.131234 117.777 0.115471 118.891 0.101448C119.203 0.0938875 119.514 0.0863269 119.834 0.0785371C122.011 0.058088 123.82 0.357881 125.86 1.06019C126.298 1.20908 126.298 1.20908 126.744 1.36097C130.763 3.11989 133.911 6.29273 135.616 10.0965C136.785 13.1472 136.869 16.1434 136.9 19.3514C136.905 19.7289 136.909 20.1063 136.914 20.4952C136.955 23.9548 136.977 27.4146 136.994 30.8744C137.007 33.4269 137.029 35.9791 137.063 38.5315C137.087 40.3326 137.099 42.1337 137.103 43.935C137.106 45.0084 137.114 46.0812 137.134 47.1543C137.156 48.3515 137.155 49.5481 137.152 50.7455C137.162 51.0971 137.172 51.4488 137.182 51.8111C137.156 53.7404 136.873 54.7706 135.422 56.1889C134.403 57.0602 134.119 57.2937 132.708 57.3815C131.702 57.0201 130.909 56.7107 130.05 56.1032C129.848 55.3476 129.848 55.3476 129.848 54.4277C129.844 54.079 129.84 53.7303 129.836 53.3711C129.84 52.9881 129.844 52.6051 129.848 52.2106C129.846 51.8034 129.843 51.3962 129.84 50.9891C129.835 50.1116 129.835 49.2344 129.839 48.3569C129.846 46.9674 129.841 45.5781 129.834 44.1886C129.826 41.9882 129.825 39.7878 129.827 37.5874C129.83 33.6545 129.822 29.7216 129.809 25.7888C129.805 24.4099 129.805 23.0311 129.807 21.6522C129.809 20.7904 129.807 19.9286 129.805 19.0668C129.805 18.4818 129.807 17.8969 129.81 17.312C129.793 12.3951 128.403 8.30293 124.675 4.70481C122.044 2.4647 119.002 1.16211 115.548 0.458626C115.548 0.359368 115.548 0.26011 115.548 0.157845Z" fill="#415E6F"/>
<path d="M137.784 60.0133C142.833 63.8236 146.28 68.6547 147.13 74.7516C147.595 81.4708 146.26 87.5688 141.49 92.7985C139.756 94.6339 137.934 96.3737 135.96 97.9846C135.735 98.1688 135.51 98.353 135.278 98.5428C134.806 98.9196 134.327 99.2891 133.842 99.6505C128.631 103.547 126.84 107.834 125.151 113.694C124.52 115.792 123.483 117.308 121.457 118.387C120.011 118.922 118.675 118.948 117.159 118.666C115.17 117.828 113.365 116.341 112.003 114.756C112.003 114.557 112.003 114.358 112.003 114.154C112.26 114.164 112.516 114.175 112.781 114.186C114.72 114.232 116.12 114.259 117.804 113.252C118.123 113.152 118.442 113.053 118.771 112.951C119.387 112.1 119.566 111.188 119.781 110.191C121.829 100.987 127.725 95.8602 134.924 89.702C139.221 85.9564 141.838 80.8804 142.093 75.352C142.199 70.0847 141.656 66.1565 138.575 61.6241C138.106 60.9157 138.106 60.9157 137.784 60.0133Z" fill="#FEA505"/>
<path d="M136.817 97.0094C136.832 102.393 136.844 107.777 136.851 113.16C136.854 115.66 136.859 118.16 136.866 120.66C136.872 122.841 136.877 125.022 136.878 127.202C136.879 128.355 136.881 129.509 136.886 130.662C136.89 131.75 136.891 132.839 136.89 133.927C136.891 134.511 136.894 135.095 136.898 135.678C136.884 141.304 135.738 145.614 131.558 149.792C127.888 153.074 123.909 154.275 118.932 154.195C118.605 154.193 118.279 154.19 117.942 154.187C117.144 154.18 116.346 154.17 115.548 154.158C116.446 153.599 116.986 153.408 118.005 153.162C121.909 152.09 125.212 149.74 127.371 146.5C128.564 144.345 129.792 141.866 129.735 139.417C129.729 139.105 129.723 138.794 129.716 138.473C129.708 138.131 129.7 137.79 129.691 137.438C129.677 136.691 129.662 135.944 129.648 135.197C129.644 135 129.64 134.804 129.636 134.601C129.587 132.069 129.569 129.536 129.551 127.004C129.533 124.543 129.505 122.082 129.444 119.621C129.394 117.664 129.369 115.708 129.37 113.75C129.369 112.716 129.358 111.685 129.319 110.652C129.18 106.498 129.225 103.424 132.388 100.274C136.045 97.0094 136.045 97.0094 136.817 97.0094Z" fill="#415E6F"/>
<path d="M111.036 8.57972C112.308 8.54962 113.58 8.52798 114.852 8.51363C115.494 8.50472 116.135 8.48942 116.776 8.47398C119.947 8.44409 122.462 8.753 124.873 10.7792C126.769 12.5745 126.938 14.4805 126.947 16.8899C126.944 17.2704 126.94 17.651 126.937 18.0431C126.937 18.4523 126.937 18.8616 126.937 19.2708C126.938 20.3769 126.932 21.4829 126.925 22.5889C126.919 23.7466 126.919 24.9043 126.917 26.062C126.914 28.2521 126.906 30.4422 126.897 32.6323C126.886 35.1265 126.881 37.6208 126.876 40.1151C126.866 45.2439 126.849 50.3728 126.827 55.5016C123.637 55.3527 123.637 55.3527 120.382 55.2008C120.381 54.6899 120.379 54.179 120.378 53.6526C120.366 48.8375 120.348 44.0224 120.323 39.2073C120.31 36.7318 120.299 34.2564 120.295 31.7809C120.29 29.6226 120.282 27.4644 120.268 25.3062C120.26 24.164 120.255 23.0218 120.256 21.8796C120.256 20.8031 120.25 19.7268 120.24 18.6504C120.236 18.0697 120.238 17.489 120.24 16.9082C120.21 14.5213 119.927 12.8388 118.208 10.9789C118.028 10.8448 117.848 10.7106 117.663 10.5724C117.484 10.4336 117.305 10.2948 117.12 10.1518C115.749 9.31632 114.489 9.09296 112.869 8.9933C112.352 8.95957 112.352 8.95957 111.825 8.92515C111.435 8.90305 111.435 8.90305 111.036 8.8805C111.036 8.78125 111.036 8.68199 111.036 8.57972Z" fill="#B9E0E4"/>
<path d="M43.3604 29.6344C44.3808 29.6079 45.4011 29.5921 46.4219 29.578C46.7077 29.5705 46.9935 29.5629 47.288 29.5551C49.4883 29.5325 51.3262 29.7331 53.095 31.0772C53.2658 31.2711 53.4365 31.4649 53.6124 31.6647C53.7873 31.8554 53.9622 32.0462 54.1424 32.2427C55.4056 34.0217 55.7505 35.4968 55.7418 37.5867C55.7445 37.8315 55.7472 38.0764 55.75 38.3286C55.7575 39.1328 55.7579 39.9368 55.7575 40.741C55.7598 41.304 55.7623 41.867 55.7649 42.43C55.7693 43.6084 55.7698 44.7868 55.7679 45.9652C55.766 47.4691 55.7758 48.9727 55.7889 50.4766C55.7972 51.6391 55.7981 52.8016 55.797 53.9641C55.7975 54.5182 55.8006 55.0723 55.8064 55.6264C55.8636 61.8094 55.8636 61.8094 53.4011 64.1992C51.9699 65.4294 50.753 66.1092 48.7734 66.0877C48.4577 66.0858 48.142 66.0838 47.8167 66.0818C47.4893 66.0768 47.162 66.0717 46.8247 66.0665C46.4924 66.0638 46.16 66.0611 45.8176 66.0583C44.9985 66.0512 44.1794 66.0413 43.3604 66.0289C44.3271 65.4274 44.3271 65.4274 45.4349 64.8822C47.2591 63.9073 48.2054 62.4641 48.8389 60.6149C48.9703 59.7668 48.9778 58.9326 48.9742 58.0767C48.9783 57.7094 48.9783 57.7094 48.9825 57.3347C48.99 56.5306 48.9903 55.7266 48.9899 54.9224C48.9922 54.3594 48.9947 53.7964 48.9974 53.2334C49.0017 52.0549 49.0022 50.8766 49.0003 49.6981C48.9984 48.1942 49.0083 46.6906 49.0213 45.1868C49.0297 44.0242 49.0306 42.8618 49.0294 41.6992C49.0299 41.1451 49.033 40.591 49.0388 40.0369C49.1539 35.7905 49.1539 35.7905 47.2275 32.0407C46.0384 31.0168 44.8048 30.3007 43.3604 29.6344Z" fill="#01C2F3"/>
<path d="M126.505 109.341C126.611 109.341 126.718 109.341 126.827 109.341C126.857 113.339 126.88 117.337 126.894 121.335C126.901 123.191 126.91 125.048 126.924 126.904C126.938 128.696 126.946 130.489 126.949 132.281C126.952 132.964 126.956 133.647 126.963 134.33C126.973 135.288 126.974 136.246 126.973 137.205C126.978 137.486 126.983 137.767 126.988 138.056C126.973 140.188 126.419 141.753 124.939 143.392C124.738 143.551 124.537 143.711 124.33 143.875C124.033 144.12 124.033 144.12 123.73 144.37C121.606 145.649 119.659 145.867 117.197 145.844C116.73 145.846 116.73 145.846 116.253 145.847C115.214 145.848 114.176 145.843 113.137 145.838C112.391 145.838 111.644 145.838 110.898 145.839C108.874 145.839 106.851 145.834 104.828 145.827C102.712 145.822 100.597 145.821 98.4808 145.82C94.9309 145.818 91.3809 145.812 87.831 145.804C84.1754 145.796 80.5198 145.789 76.8642 145.786C76.6386 145.785 76.4131 145.785 76.1807 145.785C75.0492 145.784 73.9177 145.783 72.7862 145.781C63.4073 145.772 54.0283 145.756 44.6494 145.736C44.6494 145.637 44.6494 145.537 44.6494 145.435C45.0091 145.435 45.3688 145.434 45.7394 145.434C54.4915 145.423 63.2436 145.405 71.9958 145.38C76.2282 145.368 80.4606 145.358 84.6931 145.354C88.3821 145.35 92.0711 145.342 95.7601 145.329C97.7134 145.322 99.6667 145.317 101.62 145.317C103.459 145.318 105.298 145.312 107.137 145.302C107.811 145.3 108.486 145.299 109.16 145.301C110.082 145.303 111.004 145.298 111.926 145.291C112.325 145.294 112.325 145.294 112.732 145.298C114.846 145.268 116.522 144.704 118.134 143.406C118.349 143.154 118.349 143.154 118.569 142.897C118.718 142.73 118.867 142.563 119.02 142.391C119.99 141.004 120.136 139.834 120.116 138.192C120.115 137.983 120.113 137.775 120.112 137.56C120.109 137.109 120.104 136.658 120.099 136.207C120.088 135.247 120.089 134.287 120.089 133.327C120.089 131.542 120.084 129.757 120.061 127.972C120.045 126.728 120.043 125.484 120.05 124.24C120.051 123.767 120.046 123.294 120.035 122.821C119.956 119.103 119.956 119.103 121.019 118.011C121.797 117.543 121.797 117.543 122.573 117.215C124.996 116.005 125.724 111.666 126.505 109.341Z" fill="#B7DCE1"/>
<path d="M89.7661 94.0016C90.9182 94.4582 91.654 95.0892 92.5328 95.9139C92.823 96.1849 93.1133 96.4558 93.4123 96.735C93.726 97.0309 94.0397 97.3268 94.3534 97.6227C94.6765 97.9255 94.9998 98.2281 95.3233 98.5305C96.1724 99.3253 97.0195 100.122 97.8663 100.919C98.7314 101.732 99.5983 102.544 100.465 103.356C102.164 104.949 103.861 106.543 105.557 108.138C103.79 109.851 101.814 110.278 99.2931 110.375C96.3055 110.285 93.5094 109.2 91.3775 107.236C89.1191 104.688 87.9052 101.934 88.0025 98.6155C88.2555 96.9466 88.9577 95.4973 89.7661 94.0016Z" fill="#FE6E81"/>
<path d="M71.2259 130.842C71.5006 130.84 71.7753 130.838 72.0584 130.836C72.966 130.83 73.8733 130.834 74.7809 130.838C75.4118 130.837 76.0427 130.836 76.6736 130.834C77.9956 130.833 79.3175 130.835 80.6396 130.841C82.3345 130.848 84.0292 130.844 85.7242 130.837C87.0269 130.832 88.3295 130.834 89.6322 130.837C90.2572 130.837 90.8822 130.837 91.5071 130.834C92.3805 130.831 93.2535 130.835 94.1269 130.842C94.3854 130.84 94.6439 130.837 94.9103 130.835C96.0573 130.851 96.7267 130.909 97.6624 131.553C98.3183 132.433 98.3095 132.954 98.1451 134.005C97.5716 134.949 97.332 135.161 96.2115 135.509C95.3427 135.545 94.4819 135.563 93.6128 135.567C93.2157 135.571 93.2157 135.571 92.8106 135.575C91.9343 135.582 91.058 135.587 90.1817 135.592C89.8823 135.593 89.583 135.595 89.2746 135.597C87.691 135.605 86.1074 135.61 84.5238 135.615C83.2127 135.619 81.9018 135.627 80.5908 135.639C79.0079 135.654 77.4251 135.662 75.8421 135.664C75.239 135.666 74.6359 135.67 74.0328 135.678C73.1887 135.687 72.3452 135.687 71.5011 135.685C71.2523 135.69 71.0034 135.695 70.7471 135.7C69.4608 135.686 68.8809 135.555 67.857 134.804C67.2076 134.005 67.2076 134.005 67.0264 133.084C67.477 130.888 69.1406 130.822 71.2259 130.842Z" fill="#587A8D"/>
<path d="M71.1916 6.61458C71.4627 6.61199 71.7337 6.6094 72.013 6.60673C72.9086 6.59991 73.8039 6.60194 74.6995 6.60467C75.3224 6.6031 75.9453 6.60121 76.5682 6.59902C77.8737 6.59589 79.1791 6.59727 80.4846 6.60166C82.1572 6.60683 83.8294 6.59977 85.5019 6.58918C86.7883 6.58257 88.0747 6.583 89.3611 6.5855C89.9777 6.58575 90.5943 6.58368 91.2109 6.57925C92.0735 6.57401 92.9355 6.57838 93.798 6.58521C94.1796 6.57994 94.1796 6.57994 94.5688 6.57455C95.8598 6.59535 96.4722 6.73078 97.5096 7.47071C98.1456 8.27894 98.1456 8.27894 98.1657 9.36927C97.7782 10.5182 97.6467 10.7314 96.5342 11.2868C95.6109 11.3757 94.7578 11.4132 93.8346 11.4083C93.563 11.4103 93.2915 11.4124 93.0117 11.4145C92.1146 11.42 91.2177 11.4189 90.3205 11.4172C89.6969 11.4185 89.0732 11.4201 88.4495 11.4219C87.1427 11.4246 85.8359 11.4239 84.5291 11.4209C82.8536 11.4175 81.1784 11.4235 79.503 11.4323C78.2152 11.4378 76.9275 11.4378 75.6397 11.436C75.0219 11.436 74.4041 11.4378 73.7864 11.4415C72.923 11.446 72.0601 11.4428 71.1967 11.4377C70.9412 11.4406 70.6857 11.4435 70.4225 11.4465C69.2885 11.4322 68.6229 11.3721 67.6939 10.7416C66.9808 9.77587 67.0329 9.12236 67.2081 7.97816C68.258 6.55866 69.4811 6.60142 71.1916 6.61458Z" fill="#415E6F"/>
<path d="M163.888 95.8063C164.593 96.1353 164.593 96.1353 165.177 96.7086C165.889 100.606 164.625 104.453 162.269 107.667C159.269 111.303 155.25 113.714 150.353 114.455C149.703 114.503 149.051 114.534 148.399 114.549C148.07 114.56 147.74 114.571 147.401 114.583C146.251 114.422 145.891 114.106 145.197 113.252C145.015 112.218 145.015 112.218 145.197 111.146C146.018 110.184 146.517 109.704 147.816 109.427C148.181 109.405 148.546 109.383 148.923 109.36C152.004 109.035 154.849 107.954 156.952 105.757C158.756 103.455 159.609 101.113 159.985 98.316C160.125 97.3775 160.23 96.8186 160.945 96.1247C161.97 95.6496 162.761 95.6936 163.888 95.8063Z" fill="#FF6A81"/>
<path d="M16.9987 40.0013C17.2604 39.9987 17.5221 39.9961 17.7917 39.9935C18.6541 39.9866 19.5162 39.9887 20.3787 39.9914C20.9795 39.9898 21.5802 39.9879 22.181 39.9857C23.4391 39.9826 24.697 39.984 25.9551 39.9884C27.5666 39.9936 29.1778 39.9865 30.7893 39.9759C32.0295 39.9693 33.2697 39.9697 34.5099 39.9722C35.104 39.9725 35.6982 39.9704 36.2923 39.966C37.1232 39.9607 37.9535 39.9651 38.7844 39.9719C39.0292 39.9684 39.274 39.9649 39.5262 39.9613C40.8014 39.9826 41.3726 40.122 42.3862 40.868C43.038 41.6657 43.038 41.6657 43.2193 42.5868C42.9898 43.7052 42.7265 43.9963 41.749 44.6735C40.8065 44.7906 39.9861 44.8351 39.0442 44.8244C38.6361 44.8268 38.6361 44.8268 38.2197 44.8293C37.321 44.8331 36.4226 44.8281 35.5239 44.8227C34.8995 44.8227 34.2751 44.8232 33.6506 44.824C32.3424 44.8244 31.0343 44.8207 29.7261 44.8138C28.0477 44.8053 26.3696 44.8061 24.6912 44.8099C23.4021 44.812 22.113 44.8097 20.8238 44.8059C20.2049 44.8046 19.586 44.8045 18.967 44.8057C18.1029 44.8065 17.239 44.8016 16.3749 44.795C16.1182 44.7964 15.8615 44.7977 15.5971 44.7991C13.8847 44.7774 13.8847 44.7774 13.0721 44.2887C12.6079 43.5541 12.5952 42.8151 12.5537 41.977C13.1556 40.0516 15.1769 39.9867 16.9987 40.0013Z" fill="#F9FDFE"/>
<path d="M146.123 54.1105C147.725 55.2543 148.756 56.7305 149.386 58.5094C149.735 61.1263 149.431 63.264 147.774 65.4274C146.964 66.2849 146.112 67.0743 145.196 67.8336C144.005 67.4631 143.958 67.2037 143.384 66.1981C140.942 62.245 137.467 59.78 133.272 57.6071C133.498 57.4023 133.724 57.1976 133.957 56.9867C134.634 56.3637 135.221 55.7087 135.81 55.0128C138.363 52.2651 142.899 52.3686 146.123 54.1105Z" fill="#FE6B80"/>
<path d="M102.013 38.3571C103.143 39.0538 103.517 39.4066 103.805 40.6317C103.569 41.5869 103.136 41.9522 102.335 42.568C101.445 42.9834 100.606 42.9814 99.616 43.0756C97.2783 43.3754 95.5852 44.062 93.634 45.275C93.2884 45.486 92.9427 45.6969 92.5866 45.9142C90.2233 48.2202 89.1984 50.6442 88.8199 53.7607C88.6849 54.7744 88.5442 55.4196 87.8773 56.243C86.8482 56.9331 86.1648 56.8895 84.9328 56.7047C84.0686 56.0842 83.7327 55.601 83.5103 54.6004C83.2431 50.709 85.2419 46.6973 87.8332 43.7711C91.38 40.0981 96.6532 37.7146 102.013 38.3571Z" fill="#FE6E83"/>
<path d="M16.7029 50.2326C16.9331 50.2305 17.1634 50.2284 17.4006 50.2262C18.1585 50.221 18.9159 50.2245 19.6738 50.2285C20.2023 50.2277 20.7308 50.2265 21.2593 50.225C22.3657 50.2233 23.4719 50.2258 24.5782 50.2315C25.9947 50.2383 27.4107 50.2344 28.8271 50.2272C29.9181 50.2228 31.009 50.2242 32.1 50.2273C32.6221 50.2281 33.1443 50.2271 33.6664 50.2243C34.397 50.2213 35.127 50.2259 35.8575 50.2326C36.2728 50.2336 36.688 50.2346 37.1158 50.2355C38.3916 50.4146 38.9318 50.7247 39.8154 51.5914C40.0154 52.7533 40.055 53.3849 39.3101 54.3548C38.2631 55.0832 37.3732 55.0671 36.1174 55.0509C35.8768 55.0526 35.6361 55.0542 35.3881 55.0559C34.594 55.0596 33.8003 55.0547 33.0062 55.0492C32.4541 55.0493 31.9019 55.0497 31.3497 55.0506C30.1932 55.051 29.0368 55.0472 27.8803 55.0404C26.397 55.0318 24.914 55.0326 23.4307 55.0365C22.2908 55.0386 21.151 55.0362 20.0111 55.0325C19.4642 55.0311 18.9172 55.031 18.3702 55.0322C17.6064 55.0331 16.8428 55.0281 16.079 55.0216C15.8525 55.0229 15.626 55.0243 15.3926 55.0257C14.4874 55.0127 13.8558 54.9892 13.0906 54.5153C12.602 53.7834 12.5956 53.0496 12.5537 52.2036C13.1227 50.3833 14.95 50.2367 16.7029 50.2326Z" fill="#F9FDFE"/>
<path d="M58.7193 116.973C59.1133 116.972 59.5073 116.971 59.9133 116.97C60.7446 116.971 61.5759 116.975 62.4072 116.982C63.6796 116.993 64.9514 116.988 66.2239 116.983C67.0323 116.985 67.8407 116.988 68.6491 116.991C69.0295 116.99 69.4098 116.988 69.8017 116.987C72.4185 117.022 72.4185 117.022 73.7329 117.708C74.2975 118.365 74.2975 118.365 74.4788 119.418C74.2677 120.644 74.0393 120.923 73.0085 121.673C72.1403 121.828 72.1403 121.828 71.1372 121.834C70.7608 121.839 70.3844 121.843 69.9966 121.848C69.5914 121.847 69.1862 121.845 68.7687 121.844C68.3515 121.846 67.9344 121.848 67.5046 121.849C66.6225 121.853 65.7406 121.851 64.8585 121.847C63.7292 121.842 62.6004 121.849 61.4711 121.859C60.3923 121.868 59.3135 121.865 58.2346 121.863C57.6268 121.869 57.6268 121.869 57.0067 121.875C56.6303 121.871 56.2539 121.867 55.8661 121.863C55.3696 121.863 55.3696 121.863 54.863 121.862C53.6808 121.605 53.3478 121.105 52.7057 120.17C52.5043 119.418 52.5043 119.418 52.7057 118.666C54.4233 116.799 56.2049 116.946 58.7193 116.973Z" fill="#92ADBE"/>
<path d="M57.31 106.445C57.6864 106.444 57.6864 106.444 58.0704 106.443C58.5983 106.443 59.1262 106.447 59.654 106.455C60.4598 106.465 61.2645 106.461 62.0703 106.455C62.585 106.457 63.0996 106.46 63.6143 106.464C63.8537 106.463 64.0931 106.461 64.3397 106.46C65.504 106.484 66.1987 106.61 67.2 107.181C67.8528 107.838 67.8528 107.838 68.0341 108.89C67.8528 109.943 67.8528 109.943 67.3738 110.6C66.1894 111.399 65.1624 111.325 63.7339 111.316C63.4598 111.318 63.1857 111.32 62.9033 111.322C62.3247 111.324 61.7461 111.323 61.1675 111.32C60.2824 111.315 59.3984 111.326 58.5134 111.337C57.9507 111.337 57.388 111.337 56.8253 111.335C56.5611 111.339 56.2969 111.343 56.0246 111.347C54.6896 111.327 54.1878 111.317 53.1866 110.429C52.6349 109.525 52.4346 109.153 52.7063 108.138C54.1538 106.736 55.2161 106.41 57.31 106.445Z" fill="#92ADBE"/>
<path d="M153.898 95.8063C154.925 96.5976 155.154 97.0772 155.328 98.3065C155.052 100.471 154.304 102.079 152.609 103.627C150.98 104.648 149.408 105.101 147.452 105.13C145.66 104.492 145.66 104.492 145.196 103.627C145.086 102.51 145.016 101.792 145.66 100.826C146.826 100.109 148.021 99.9233 149.386 99.7164C149.417 99.535 149.449 99.3535 149.482 99.1666C149.702 98.0672 149.908 97.1902 150.554 96.2387C151.666 95.6106 152.634 95.5307 153.898 95.8063Z" fill="#FF6A82"/>
<path d="M102.335 47.9821C103.221 48.452 103.221 48.452 103.624 49.1852C103.604 50.2078 103.518 50.9464 102.959 51.8358C102.129 52.3104 101.302 52.4476 100.349 52.6066C99.6311 52.7717 99.6311 52.7717 99.112 53.6969C99.0123 54.0443 98.9126 54.3917 98.8099 54.7496C98.3197 56.2566 98.3197 56.2566 97.5007 56.7047C96.2787 56.8499 95.5412 56.8608 94.4593 56.2912C93.6655 55.0464 93.6947 53.9027 93.9558 52.4938C94.7816 50.6013 96.2376 49.2945 98.0936 48.25C99.4488 47.7285 100.899 47.8217 102.335 47.9821Z" fill="#FE6D83"/>
</svg>
