<svg width="19" height="17" viewBox="0 0 19 17" fill="none" xmlns="http://www.w3.org/2000/svg">
<path d="M15.7002 1.70995C15.5002 1.11995 15.1102 0.699951 14.4502 0.699951H3.9502C3.2902 0.699951 2.9102 1.11995 2.7002 1.70995L0.700195 7.44995V14.95C0.700195 15.5 0.900195 15.7 1.4502 15.7H1.9502C2.5002 15.7 2.7002 15.5 2.7002 14.95V13.7H15.7002V14.95C15.7002 15.5 15.9002 15.7 16.4502 15.7H16.9502C17.5002 15.7 17.7002 15.5 17.7002 14.95V7.44995L15.7002 1.70995Z" stroke="black" stroke-width="1.4"/>
<path d="M3.7002 10.7C3.43498 10.7 3.18063 10.5946 2.99309 10.4071C2.80555 10.2195 2.7002 9.96517 2.7002 9.69995C2.7002 9.43473 2.80555 9.18038 2.99309 8.99284C3.18063 8.80531 3.43498 8.69995 3.7002 8.69995C3.96541 8.69995 4.21977 8.80531 4.4073 8.99284C4.59484 9.18038 4.7002 9.43473 4.7002 9.69995C4.7002 9.96517 4.59484 10.2195 4.4073 10.4071C4.21977 10.5946 3.96541 10.7 3.7002 10.7ZM14.7002 10.7C14.435 10.7 14.1806 10.5946 13.9931 10.4071C13.8056 10.2195 13.7002 9.96517 13.7002 9.69995C13.7002 9.43473 13.8056 9.18038 13.9931 8.99284C14.1806 8.80531 14.435 8.69995 14.7002 8.69995C14.9654 8.69995 15.2198 8.80531 15.4073 8.99284C15.5948 9.18038 15.7002 9.43473 15.7002 9.69995C15.7002 9.96517 15.5948 10.2195 15.4073 10.4071C15.2198 10.5946 14.9654 10.7 14.7002 10.7Z" stroke="black" stroke-width="1.4"/>
<path d="M2.9502 5.69995L4.2002 2.19995H14.2002L15.4502 5.69995H2.9502Z" stroke="black" stroke-width="1.4" stroke-linejoin="round"/>
</svg>
