<svg width="62" height="56" viewBox="0 0 62 56" fill="none" xmlns="http://www.w3.org/2000/svg">
<path d="M36.646 3.05567C36.7222 3.0961 36.7985 3.13653 36.877 3.17819C38.0438 3.79706 39.2061 4.4224 40.3653 5.05286C41.3085 5.56568 42.2549 6.0736 43.2022 6.58031C44.493 7.27107 45.7827 7.96362 47.067 8.66424C47.2114 8.7429 47.3558 8.82141 47.5003 8.89975C49.6095 10.0435 51.1401 11.1493 51.8688 13.3459C51.9442 13.6515 51.9554 13.9077 51.9492 14.2188C52.0163 14.218 52.0834 14.2173 52.1525 14.2165C52.8559 14.2092 53.5592 14.2043 54.2626 14.2007C54.5245 14.1991 54.7864 14.1969 55.0483 14.194C55.4265 14.19 55.8046 14.1881 56.1828 14.1867C56.2984 14.185 56.414 14.1833 56.5331 14.1816C57.7802 14.1813 58.8628 14.465 59.8203 15.2031C60.6902 16.0269 61.0882 16.8657 61.0782 17.995C61.0792 18.1296 61.0792 18.1296 61.0802 18.2669C61.0819 18.5655 61.081 18.864 61.0802 19.1626C61.0809 19.3775 61.0817 19.5925 61.0827 19.8074C61.0849 20.3898 61.0847 20.9721 61.084 21.5545C61.0837 22.0413 61.0844 22.5281 61.0851 23.0149C61.0868 24.1636 61.0866 25.3124 61.0853 26.4612C61.0839 27.6449 61.0856 28.8285 61.0888 30.0122C61.0915 31.0298 61.0923 32.0474 61.0916 33.065C61.0912 33.6722 61.0915 34.2794 61.0936 34.8866C61.0954 35.4577 61.095 36.0288 61.0927 36.6C61.0922 36.8091 61.0926 37.0182 61.0939 37.2272C61.102 38.6784 61.0202 39.7971 59.8629 40.9011C59.0431 41.5456 58.1472 41.9057 57.0606 41.903C56.8933 41.903 56.8933 41.903 56.7227 41.903C56.5447 41.9022 56.5447 41.9022 56.363 41.9013C56.2402 41.9012 56.1174 41.901 55.9909 41.9008C55.5998 41.9002 55.2087 41.8989 54.8176 41.8975C54.552 41.8969 54.2864 41.8964 54.0208 41.896C53.3706 41.8948 52.7205 41.8929 52.0703 41.8906C52.0708 41.9793 52.0714 42.0679 52.0719 42.1593C52.0768 43.0006 52.0805 43.842 52.0829 44.6834C52.0841 45.1158 52.0858 45.5482 52.0886 45.9806C52.0912 46.399 52.0927 46.8174 52.0933 47.2358C52.0937 47.3943 52.0946 47.5528 52.0959 47.7113C52.1118 49.6909 51.8755 51.4135 50.375 52.9375C50.2753 53.0485 50.2753 53.0485 50.1735 53.1618C49.2327 54.1257 47.662 54.7982 46.2468 54.9298C45.9826 54.9433 45.7202 54.9468 45.4556 54.9473C45.3702 54.9499 45.2848 54.9526 45.1968 54.9554C43.6213 54.9629 42.2857 54.3562 40.9751 53.6279C40.8233 53.5454 40.6714 53.4629 40.5193 53.3807C40.127 53.1677 39.736 52.9527 39.3454 52.7372C38.9715 52.5313 38.5963 52.3276 38.2212 52.1236C36.0481 50.9397 36.0481 50.9397 34.9961 50.3326C32.8128 49.0704 32.8128 49.0704 30.2734 48.8906C28.4403 49.261 26.7252 50.4623 25.1539 51.3411C24.1214 51.918 23.0825 52.4847 22.039 53.0454C21.8692 53.1366 21.6995 53.228 21.5298 53.3194C19.3556 54.491 17.4238 55.2913 14.8491 54.7832C13.0781 54.3112 11.6442 53.2352 10.7286 51.7955C9.9165 50.4028 9.91142 48.9776 9.91786 47.4341C9.91808 47.2737 9.91826 47.1133 9.91838 46.9528C9.91884 46.5337 9.92002 46.1146 9.92137 45.6954C9.92262 45.2665 9.92316 44.8376 9.92377 44.4086C9.92506 43.5693 9.92713 42.7299 9.92968 41.8906C9.86232 41.8914 9.79495 41.8921 9.72555 41.8928C9.02026 41.9001 8.31498 41.9051 7.60966 41.9086C7.34693 41.9103 7.0842 41.9125 6.82148 41.9154C6.44241 41.9194 6.0634 41.9212 5.68431 41.9227C5.56809 41.9244 5.45187 41.9261 5.33213 41.9278C4.00308 41.9281 2.95262 41.5392 1.96682 40.7319C0.913617 39.7185 0.895808 38.5204 0.904415 37.2089C0.904088 37.0325 0.903617 36.8561 0.903011 36.6797C0.902301 36.3121 0.903322 35.9446 0.905597 35.5771C0.90837 35.1063 0.906758 34.6356 0.903868 34.1649C0.902118 33.8015 0.902675 33.4383 0.903931 33.0749C0.904253 32.9013 0.903859 32.7276 0.90273 32.554C0.901499 32.3119 0.903373 32.0699 0.90607 31.8278C0.906456 31.6902 0.906841 31.5526 0.907238 31.4109C0.979481 31.0017 1.09306 30.873 1.45312 30.625C1.69531 30.5669 1.69531 30.5669 1.9375 30.5703C2.01742 30.5692 2.09734 30.5681 2.17968 30.5669C2.53602 30.6524 2.67566 30.8054 2.90625 31.0625C2.96746 31.375 2.96746 31.375 2.96851 31.7409C2.97011 31.8781 2.97172 32.0154 2.97337 32.1569C2.97277 32.3065 2.97215 32.4561 2.97152 32.6057C2.97272 32.7599 2.97417 32.9142 2.97585 33.0684C2.97977 33.4744 2.98103 33.8804 2.98152 34.2865C2.98258 34.9347 2.98692 35.583 2.99268 36.2312C2.9942 36.4566 2.99412 36.682 2.99386 36.9073C2.99821 37.6234 3.02891 38.2537 3.26953 38.9375C3.30449 39.0413 3.33946 39.145 3.37548 39.252C3.54402 39.5395 3.66225 39.5911 3.99609 39.7031C4.19589 39.7753 4.3957 39.8475 4.60156 39.9219C6.35984 39.958 8.11812 39.9941 9.92968 40.0312C9.92968 32.1267 9.92968 24.2222 9.92968 16.0781C6.50253 15.7687 6.50253 15.7687 3.4663 16.8711C2.95107 17.6586 2.99309 18.513 2.99411 19.4021C2.99423 19.6284 2.99265 19.8546 2.9906 20.0808C2.98503 20.7234 2.98202 21.366 2.98122 22.0086C2.98061 22.4032 2.97768 22.7978 2.97331 23.1924C2.97212 23.3422 2.97184 23.492 2.97248 23.6419C2.97334 23.851 2.97099 24.0601 2.96851 24.2692C2.96799 24.4474 2.96799 24.4474 2.96746 24.6292C2.8919 25.0098 2.75365 25.1386 2.42187 25.375C2.17968 25.4331 2.17968 25.4331 1.9375 25.4297C1.85757 25.4308 1.77765 25.4319 1.69531 25.4331C1.33576 25.3468 1.19924 25.1994 0.968746 24.9375C0.907238 24.5925 0.907238 24.5925 0.90607 24.1806C0.904797 24.0676 0.904797 24.0676 0.903498 23.9524C0.901369 23.7038 0.902778 23.4553 0.904415 23.2067C0.904088 23.0332 0.903618 22.8596 0.903011 22.686C0.902296 22.322 0.903334 21.958 0.905597 21.594C0.908346 21.1296 0.906776 20.6654 0.903868 20.201C0.902108 19.8423 0.90268 19.4835 0.903931 19.1248C0.904252 18.9537 0.903865 18.7827 0.90273 18.6116C0.897974 17.6926 0.906167 16.8877 1.45312 16.0781C1.50854 15.9909 1.56395 15.9036 1.62104 15.8137C2.36097 14.9045 3.27726 14.4664 4.48046 14.2188C4.92732 14.179 5.36857 14.1801 5.81723 14.1867C6.00011 14.1874 6.00011 14.1874 6.1867 14.1881C6.5716 14.1899 6.95642 14.194 7.3413 14.1982C7.60415 14.1999 7.86699 14.2014 8.12983 14.2027C8.77017 14.2063 9.41047 14.2118 10.0508 14.2188C10.0582 14.152 10.0656 14.0853 10.0732 14.0165C10.0834 13.9285 10.0937 13.8405 10.1042 13.7498C10.1141 13.6628 10.124 13.5758 10.1342 13.4861C10.289 12.4518 10.8729 11.5916 11.625 10.8281C11.7193 10.7288 11.7193 10.7288 11.8156 10.6276C12.569 9.88854 13.486 9.43584 14.4404 8.94141C14.6165 8.84884 14.7924 8.75612 14.9683 8.66327C15.314 8.48092 15.66 8.29915 16.0064 8.11789C16.5678 7.82363 17.1243 7.5222 17.6797 7.21875C18.3782 6.83879 19.0784 6.46148 19.7799 6.08612C19.8993 6.02224 19.8993 6.02224 20.0211 5.95706C20.727 5.57933 20.727 5.57933 21.018 5.42366C22.1385 4.82396 23.2545 4.21807 24.3662 3.60523C29.1055 0.99377 31.6943 0.424061 36.646 3.05567ZM27.0417 4.32715C26.8716 4.41981 26.7015 4.51236 26.5312 4.60481C26.1781 4.79665 25.8254 4.98897 25.4728 5.18159C24.9667 5.45766 24.4586 5.7306 23.9496 6.00238C23.8286 6.06698 23.8286 6.06698 23.7053 6.13288C23.5434 6.21931 23.3815 6.30573 23.2197 6.39214C21.7865 7.15774 20.3605 7.9333 18.94 8.71799C18.207 9.1217 17.4702 9.51802 16.7261 9.90485C16.6467 9.94626 16.5673 9.98766 16.4855 10.0303C16.1045 10.2291 15.7228 10.4267 15.3398 10.6222C13.884 11.3794 12.8516 12.159 12.1926 13.5762C11.9655 14.4339 11.9708 15.2852 11.9721 16.1624C11.9718 16.3021 11.9715 16.4418 11.9713 16.5857C11.9705 16.9718 11.9705 17.3578 11.9707 17.7438C11.9707 18.1608 11.97 18.5778 11.9695 18.9948C11.9684 19.8112 11.9681 20.6275 11.968 21.4438C11.968 22.1076 11.9677 22.7713 11.9674 23.4351C11.9663 25.3183 11.9657 27.2015 11.9658 29.0846C11.9658 29.1861 11.9658 29.2875 11.9658 29.392C11.9658 29.4936 11.9658 29.5952 11.9659 29.6998C11.9659 31.3459 11.9647 32.9919 11.963 34.6379C11.9613 36.3293 11.9605 38.0208 11.9606 39.7122C11.9606 40.6613 11.9603 41.6104 11.959 42.5595C11.9579 43.3675 11.9576 44.1756 11.9584 44.9836C11.9588 45.3956 11.9588 45.8075 11.9578 46.2195C11.9566 46.6668 11.9574 47.1142 11.9583 47.5615C11.9577 47.6906 11.9571 47.8197 11.9565 47.9528C11.9636 49.5057 12.2522 50.8177 13.4565 51.9805C14.4725 52.8369 15.6464 53.0771 17.0056 53.1011C18.3399 52.9335 19.4496 52.2799 20.5784 51.6592C20.7489 51.5665 20.9196 51.4738 21.0903 51.3813C21.6093 51.0993 22.127 50.8155 22.6445 50.5312C22.8023 50.4447 22.9601 50.3582 23.1179 50.2716C23.6287 49.9915 24.1394 49.711 24.65 49.4306C25.5406 48.9415 26.4313 48.4526 27.3293 47.9746C27.417 47.9271 27.5046 47.8796 27.5949 47.8306C29.1093 47.0327 30.8381 46.8094 32.5591 47.1406C34.2805 47.5904 35.7882 48.5255 37.2938 49.3732C38.3308 49.9567 39.3789 50.5227 40.4302 51.085C40.5112 51.1284 40.5923 51.1718 40.6758 51.2165C41.1328 51.4612 41.5901 51.7053 42.0479 51.9487C42.1905 52.0246 42.333 52.1005 42.4755 52.1766C42.6759 52.2835 42.8766 52.39 43.0772 52.4966C43.1908 52.557 43.3044 52.6174 43.4214 52.6797C44.3867 53.1681 45.5567 53.183 46.6253 52.9755C47.8125 52.6241 48.7712 51.9428 49.4062 50.9688C49.8224 50.1917 50.0264 49.4665 50.0276 48.6002C50.0281 48.4789 50.0286 48.3576 50.029 48.2327C50.0289 48.0345 50.0289 48.0345 50.0287 47.8324C50.0293 47.6206 50.0293 47.6206 50.0298 47.4044C50.0308 47.0132 50.031 46.6219 50.0311 46.2306C50.0313 45.8083 50.0322 45.3859 50.0331 44.9636C50.0347 44.0405 50.0354 43.1173 50.036 42.1942C50.0363 41.6174 50.0368 41.0407 50.0373 40.464C50.0388 38.8663 50.0401 37.2686 50.0405 35.6709C50.0405 35.5687 50.0405 35.4665 50.0406 35.3612C50.0406 35.2587 50.0406 35.1563 50.0406 35.0507C50.0407 34.8431 50.0408 34.6355 50.0408 34.4279C50.0408 34.3249 50.0409 34.222 50.0409 34.1159C50.0414 32.448 50.0435 30.7801 50.0463 29.1122C50.0492 27.3987 50.0507 25.6851 50.0508 23.9716C50.0509 23.0099 50.0516 22.0483 50.0538 21.0867C50.0557 20.2677 50.0563 19.4487 50.0553 18.6297C50.0548 18.2122 50.0549 17.7948 50.0566 17.3773C50.0585 16.9237 50.0575 16.4701 50.0562 16.0166C50.0572 15.8859 50.0582 15.7553 50.0592 15.6207C50.0503 14.2528 49.7709 12.9566 48.7037 11.9309C47.9169 11.2813 47.043 10.8144 46.1216 10.3428C45.9727 10.2656 45.8238 10.1884 45.675 10.111C45.4507 9.9943 45.2262 9.87767 45.0016 9.76142C44.3151 9.40572 43.6369 9.03818 42.9592 8.66923C42.5068 8.42302 42.0527 8.17945 41.5981 7.93653C41.4449 7.85464 41.2918 7.77275 41.1386 7.69086C41.0614 7.64957 40.9841 7.60827 40.9046 7.56573C39.6147 6.87593 38.3282 6.18159 37.0484 5.47674C36.0168 4.90881 34.985 4.3411 33.9441 3.78711C33.8127 3.71584 33.8127 3.71584 33.6786 3.64313C32.8336 3.1979 32.0052 2.90633 31.0151 2.90528C30.8831 2.90316 30.751 2.90105 30.615 2.89887C29.2759 3.05592 28.1717 3.7045 27.0417 4.32715ZM52.0703 16.0781C52.0703 23.9827 52.0703 31.8872 52.0703 40.0312C55.331 40.4293 55.331 40.4293 58.3464 39.5344C58.4032 39.475 58.46 39.4156 58.5186 39.3545C58.5766 39.2965 58.6347 39.2386 58.6945 39.1789C59.0859 38.5773 59.1294 37.8859 59.1245 37.2033C59.1251 37.0805 59.1251 37.0805 59.1256 36.9552C59.1266 36.6834 59.1259 36.4115 59.1251 36.1397C59.1254 35.9438 59.1258 35.7479 59.1264 35.552C59.1275 35.0216 59.127 34.4912 59.1263 33.9609C59.1257 33.405 59.1262 32.8491 59.1266 32.2932C59.1271 31.3598 59.1265 30.4264 59.1253 29.493C59.124 28.4149 59.1244 27.3368 59.1258 26.2588C59.1269 25.332 59.127 24.4052 59.1264 23.4785C59.126 22.9255 59.126 22.3725 59.1268 21.8195C59.1275 21.2995 59.127 20.7795 59.1256 20.2595C59.1253 20.0691 59.1253 19.8786 59.1259 19.6881C59.1265 19.4274 59.1257 19.1668 59.1245 18.9061C59.1253 18.794 59.1253 18.794 59.1261 18.6796C59.1196 17.9498 59.0141 17.2465 58.4504 16.6934C58.3462 16.5872 58.3462 16.5872 58.2399 16.4789C56.729 15.3138 52.8371 16.0781 52.0703 16.0781Z" fill="#133E87"/>
<path d="M30.0009 20.2139C31.2635 21.0331 31.9589 22.0331 32.332 23.4063C32.355 23.7131 32.3676 24.0091 32.3672 24.3157C32.368 24.4033 32.3688 24.491 32.3696 24.5812C32.3719 24.869 32.3724 25.1568 32.3726 25.4446C32.3734 25.6464 32.3742 25.8481 32.3751 26.0499C32.3765 26.4723 32.377 26.8948 32.3768 27.3172C32.3768 27.8555 32.3801 28.3937 32.3843 28.9319C32.387 29.3487 32.3875 29.7654 32.3874 30.1821C32.3876 30.3804 32.3887 30.5786 32.3906 30.7769C32.404 32.3357 32.2325 33.6278 31.121 34.8906C31.0631 34.9579 31.0052 35.0251 30.9455 35.0944C30.2287 35.8299 28.9449 36.4568 27.8525 36.5523C26.1471 36.6115 24.724 36.4717 23.3701 35.4302C22.2661 34.4624 21.5981 33.2722 21.5376 31.8717C21.5362 31.7241 21.5354 31.5764 21.5351 31.4288C21.5345 31.3476 21.5339 31.2664 21.5333 31.1828C21.5315 30.9157 21.5307 30.6486 21.53 30.3815C21.5297 30.2896 21.5293 30.1977 21.529 30.103C21.5272 29.6165 21.5261 29.1299 21.5255 28.6433C21.5249 28.1439 21.522 27.6446 21.5185 27.1452C21.5162 26.7584 21.5156 26.3716 21.5154 25.9848C21.5151 25.8009 21.5141 25.617 21.5125 25.433C21.4976 23.5958 21.776 22.083 23.2045 20.6877C25.1076 19.1356 27.8642 19.0101 30.0009 20.2139ZM24.5881 22.1801C23.5057 23.209 23.5586 24.3904 23.565 25.7236C23.5647 25.9062 23.5644 26.0888 23.5639 26.2714C23.5634 26.6528 23.5642 27.0341 23.5659 27.4154C23.5679 27.902 23.5667 28.3884 23.5646 28.875C23.5632 29.2516 23.5637 29.6283 23.5646 30.0049C23.5648 30.1842 23.5646 30.3635 23.5637 30.5428C23.5586 31.9312 23.6475 32.9494 24.7707 33.9964C25.5778 34.6461 26.3664 34.7518 27.4348 34.7206C28.2609 34.624 28.9024 34.3177 29.4711 33.7695C30.3358 32.697 30.3454 31.6834 30.3377 30.3994C30.338 30.207 30.3385 30.0146 30.3391 29.8222C30.3398 29.4202 30.3388 29.0183 30.3365 28.6164C30.3338 28.1034 30.3354 27.5905 30.3383 27.0774C30.34 26.6805 30.3394 26.2836 30.3382 25.8867C30.3379 25.6976 30.3383 25.5085 30.3394 25.3195C30.3453 24.0582 30.2724 23.0163 29.2838 22.0468C27.8151 20.9073 25.9762 21.0293 24.5881 22.1801Z" fill="#133E87"/>
<path d="M38.5196 19.4252C38.8708 19.4916 39.0265 19.6509 39.2344 19.9063C39.3909 20.1889 39.3704 20.3911 39.37 20.7077C39.3702 20.8313 39.3704 20.955 39.3705 21.0823C39.3699 21.2867 39.3699 21.2867 39.3692 21.4952C39.3692 21.6382 39.3693 21.7812 39.3693 21.9285C39.3693 22.3213 39.3686 22.714 39.3677 23.1067C39.367 23.5169 39.3669 23.9271 39.3668 24.3373C39.3664 25.1143 39.3654 25.8914 39.3642 26.6684C39.3628 27.5529 39.3622 28.4374 39.3616 29.3219C39.3603 31.1417 39.3582 32.9615 39.3555 34.7813C39.4705 34.7945 39.5856 34.8078 39.7041 34.8214C40.082 34.8906 40.082 34.8906 40.3166 35.1231C40.4852 35.535 40.4537 35.7822 40.3242 36.2031C39.8304 36.6549 39.2793 36.5805 38.6157 36.5868C38.4602 36.5865 38.3047 36.5862 38.1445 36.586C37.9891 36.5891 37.8336 36.5922 37.6734 36.5954C37.4496 36.5958 37.4496 36.5958 37.2212 36.5962C37.0848 36.597 36.9483 36.5978 36.8078 36.5986C36.4492 36.5313 36.4492 36.5313 36.1626 36.2743C35.9192 35.9174 35.8887 35.7405 35.9648 35.3281C36.1541 35.0137 36.1541 35.0137 36.4492 34.7813C36.7289 34.7813 37.0087 34.7813 37.2969 34.7813C37.2569 30.9553 37.217 27.1294 37.1758 23.1875C36.8561 23.2236 36.5364 23.2597 36.207 23.2969C35.7797 23.0916 35.6393 22.9574 35.4805 22.5449C35.4805 21.8054 36.0682 21.2592 36.5627 20.7129C36.6582 20.6055 36.6582 20.6055 36.7555 20.4959C37.7445 19.3913 37.7445 19.3913 38.5196 19.4252Z" fill="#133E87"/>
<path d="M2.54292 26.4687C2.86892 26.775 2.95246 26.9919 2.95445 27.4121C2.95515 27.5551 2.95515 27.5551 2.95587 27.7009C2.95446 27.7996 2.95306 27.8983 2.95161 28C2.95302 28.0987 2.95442 28.1974 2.95587 28.2991C2.9554 28.3944 2.95493 28.4897 2.95445 28.5879C2.95404 28.6745 2.95363 28.761 2.95321 28.8502C2.89393 29.1573 2.7798 29.3067 2.54292 29.5312C2.06176 29.652 1.80546 29.6861 1.34712 29.4971C1.08979 29.3125 1.08979 29.3125 0.9687 29.0937C0.936638 28.7344 0.940665 28.3741 0.938427 28.0137C0.935929 27.914 0.933432 27.8143 0.930859 27.7116C0.930234 27.6153 0.92961 27.519 0.928967 27.4198C0.927835 27.3318 0.926703 27.2439 0.925537 27.1532C0.979748 26.843 1.09502 26.6959 1.33198 26.4687C1.79151 26.3304 2.07351 26.3703 2.54292 26.4687Z" fill="#133E87"/>
</svg>
