<svg width="62" height="56" viewBox="0 0 62 56" fill="none" xmlns="http://www.w3.org/2000/svg">
<path d="M28.489 19.8088C29.7515 20.628 30.447 21.628 30.82 23.0012C30.843 23.3081 30.8556 23.604 30.8552 23.9106C30.856 23.9983 30.8568 24.0859 30.8577 24.1761C30.8599 24.4639 30.8604 24.7517 30.8607 25.0396C30.8615 25.2413 30.8623 25.443 30.8631 25.6448C30.8646 26.0672 30.865 26.4897 30.8649 26.9121C30.8649 27.4504 30.8682 27.9886 30.8723 28.5268C30.875 28.9436 30.8755 29.3603 30.8754 29.777C30.8757 29.9753 30.8767 30.1736 30.8786 30.3718C30.8921 31.9306 30.7205 33.2227 29.6091 34.4855C29.5512 34.5528 29.4932 34.62 29.4336 34.6893C28.7168 35.4249 27.4329 36.0517 26.3405 36.1473C24.6351 36.2064 23.2121 36.0666 21.8581 35.0252C20.7541 34.0573 20.0861 32.8671 20.0257 31.4666C20.0242 31.319 20.0234 31.1713 20.0232 31.0237C20.0225 30.9425 20.0219 30.8613 20.0213 30.7777C20.0196 30.5106 20.0187 30.2435 20.0181 29.9764C20.0177 29.8845 20.0174 29.7926 20.017 29.698C20.0152 29.2114 20.0141 28.7248 20.0136 28.2382C20.0129 27.7388 20.01 27.2395 20.0066 26.7401C20.0043 26.3533 20.0037 25.9665 20.0035 25.5797C20.0031 25.3958 20.0022 25.2119 20.0006 25.028C19.9857 23.1907 20.2641 21.6779 21.6926 20.2826C23.5957 18.7305 26.3523 18.605 28.489 19.8088ZM23.0762 21.775C21.9938 22.8039 22.0467 23.9853 22.053 25.3185C22.0528 25.5011 22.0524 25.6838 22.052 25.8664C22.0514 26.2477 22.0522 26.629 22.0539 27.0103C22.056 27.4969 22.0548 27.9833 22.0526 28.4699C22.0513 28.8465 22.0517 29.2232 22.0526 29.5998C22.0529 29.7791 22.0526 29.9584 22.0517 30.1377C22.0466 31.5261 22.1356 32.5443 23.2587 33.5913C24.0658 34.241 24.8544 34.3467 25.9228 34.3155C26.749 34.2189 27.3905 33.9126 27.9592 33.3644C28.8238 32.2919 28.8334 31.2783 28.8257 29.9943C28.8261 29.8019 28.8265 29.6095 28.8271 29.4171C28.8279 29.0152 28.8268 28.6133 28.8246 28.2113C28.8218 27.6983 28.8234 27.1854 28.8263 26.6723C28.828 26.2754 28.8275 25.8785 28.8262 25.4816C28.8259 25.2925 28.8263 25.1034 28.8274 24.9144C28.8333 23.6531 28.7604 22.6113 27.7719 21.6417C26.3031 20.5022 24.4643 20.6242 23.0762 21.775Z" fill="#133E87"/>
<path d="M2.54292 26.4688C2.86892 26.7751 2.95246 26.992 2.95445 27.4122C2.95515 27.5551 2.95515 27.5551 2.95587 27.701C2.95446 27.7997 2.95306 27.8984 2.95161 28.0001C2.95302 28.0988 2.95442 28.1974 2.95587 28.2991C2.9554 28.3944 2.95493 28.4898 2.95445 28.5879C2.95404 28.6745 2.95363 28.7611 2.95321 28.8503C2.89393 29.1574 2.7798 29.3068 2.54292 29.5313C2.06176 29.652 1.80546 29.6861 1.34712 29.4971C1.08979 29.3126 1.08979 29.3126 0.9687 29.0938C0.936638 28.7345 0.940665 28.3741 0.938427 28.0137C0.935929 27.914 0.933432 27.8144 0.930859 27.7117C0.930234 27.6154 0.92961 27.5191 0.928967 27.4199C0.927835 27.3319 0.926703 27.2439 0.925537 27.1533C0.979748 26.8431 1.09502 26.6959 1.33198 26.4688C1.79151 26.3305 2.07351 26.3704 2.54292 26.4688Z" fill="#133E87"/>
<path d="M36.646 3.05564C36.7222 3.09607 36.7985 3.1365 36.877 3.17816C38.0438 3.79703 39.2061 4.42237 40.3653 5.05282C41.3085 5.56565 42.2549 6.07357 43.2022 6.58028C44.493 7.27104 45.7827 7.96359 47.067 8.66421C47.2114 8.74287 47.3558 8.82138 47.5003 8.89971C49.6095 10.0435 51.1401 11.1492 51.8688 13.3459C51.9442 13.6515 51.9554 13.9077 51.9492 14.2187C52.0163 14.218 52.0834 14.2173 52.1525 14.2165C52.8559 14.2092 53.5592 14.2043 54.2626 14.2007C54.5245 14.1991 54.7864 14.1968 55.0483 14.194C55.4265 14.19 55.8046 14.1881 56.1828 14.1867C56.2984 14.185 56.414 14.1833 56.5331 14.1815C57.7802 14.1813 58.8628 14.465 59.8203 15.2031C60.6902 16.0269 61.0882 16.8657 61.0782 17.9949C61.0792 18.1296 61.0792 18.1296 61.0802 18.2669C61.0819 18.5655 61.081 18.864 61.0802 19.1625C61.0809 19.3775 61.0817 19.5924 61.0827 19.8074C61.0849 20.3897 61.0847 20.9721 61.084 21.5545C61.0837 22.0413 61.0844 22.528 61.0851 23.0148C61.0868 24.1636 61.0866 25.3124 61.0853 26.4611C61.0839 27.6448 61.0856 28.8285 61.0888 30.0122C61.0915 31.0298 61.0923 32.0474 61.0916 33.065C61.0912 33.6722 61.0915 34.2794 61.0936 34.8865C61.0954 35.4577 61.095 36.0288 61.0927 36.6C61.0922 36.809 61.0926 37.0181 61.0939 37.2272C61.102 38.6784 61.0202 39.7971 59.8629 40.9011C59.0431 41.5456 58.1472 41.9057 57.0606 41.903C56.8933 41.903 56.8933 41.903 56.7227 41.903C56.5447 41.9021 56.5447 41.9021 56.363 41.9013C56.2402 41.9011 56.1174 41.901 55.9909 41.9008C55.5998 41.9002 55.2087 41.8988 54.8176 41.8974C54.552 41.8969 54.2864 41.8964 54.0208 41.8959C53.3706 41.8947 52.7205 41.8929 52.0703 41.8906C52.0708 41.9792 52.0714 42.0679 52.0719 42.1592C52.0768 43.0006 52.0805 43.842 52.0829 44.6833C52.0841 45.1157 52.0858 45.5481 52.0886 45.9805C52.0912 46.399 52.0927 46.8174 52.0933 47.2358C52.0937 47.3943 52.0946 47.5528 52.0959 47.7112C52.1118 49.6909 51.8755 51.4135 50.375 52.9375C50.2753 53.0485 50.2753 53.0485 50.1735 53.1618C49.2327 54.1257 47.662 54.7981 46.2468 54.9298C45.9826 54.9433 45.7202 54.9468 45.4556 54.9472C45.3702 54.9499 45.2848 54.9526 45.1968 54.9554C43.6213 54.9629 42.2857 54.3562 40.9751 53.6279C40.8233 53.5453 40.6714 53.4629 40.5193 53.3806C40.127 53.1677 39.736 52.9527 39.3454 52.7371C38.9715 52.5313 38.5963 52.3275 38.2212 52.1236C36.0481 50.9397 36.0481 50.9397 34.9961 50.3326C32.8128 49.0704 32.8128 49.0704 30.2734 48.8906C28.4403 49.261 26.7252 50.4623 25.1539 51.3411C24.1214 51.918 23.0825 52.4847 22.039 53.0453C21.8692 53.1366 21.6995 53.2279 21.5298 53.3194C19.3556 54.491 17.4238 55.2912 14.8491 54.7832C13.0781 54.3112 11.6442 53.2352 10.7286 51.7954C9.9165 50.4028 9.91142 48.9776 9.91786 47.4341C9.91808 47.2737 9.91826 47.1132 9.91838 46.9528C9.91884 46.5337 9.92002 46.1145 9.92137 45.6954C9.92262 45.2665 9.92316 44.8375 9.92377 44.4086C9.92506 43.5692 9.92713 42.7299 9.92968 41.8906C9.86232 41.8913 9.79495 41.8921 9.72555 41.8928C9.02026 41.9001 8.31498 41.905 7.60966 41.9086C7.34693 41.9103 7.0842 41.9125 6.82148 41.9153C6.44241 41.9194 6.0634 41.9212 5.68431 41.9226C5.56809 41.9243 5.45187 41.926 5.33213 41.9278C4.00308 41.9281 2.95262 41.5392 1.96682 40.7319C0.913617 39.7185 0.895808 38.5204 0.904415 37.2088C0.904088 37.0324 0.903617 36.856 0.903011 36.6796C0.902301 36.3121 0.903322 35.9446 0.905597 35.5771C0.90837 35.1063 0.906758 34.6356 0.903868 34.1648C0.902118 33.8015 0.902675 33.4382 0.903931 33.0749C0.904253 32.9013 0.903859 32.7276 0.90273 32.554C0.901499 32.3118 0.903373 32.0699 0.90607 31.8277C0.906456 31.6902 0.906841 31.5526 0.907238 31.4108C0.979481 31.0017 1.09306 30.873 1.45312 30.625C1.69531 30.5669 1.69531 30.5669 1.9375 30.5703C2.01742 30.5692 2.09734 30.568 2.17968 30.5669C2.53602 30.6524 2.67566 30.8053 2.90625 31.0625C2.96746 31.3749 2.96746 31.3749 2.96851 31.7408C2.97011 31.8781 2.97172 32.0154 2.97337 32.1569C2.97277 32.3065 2.97215 32.4561 2.97152 32.6057C2.97272 32.7599 2.97417 32.9141 2.97585 33.0683C2.97977 33.4744 2.98103 33.8804 2.98152 34.2864C2.98258 34.9347 2.98692 35.583 2.99268 36.2312C2.9942 36.4566 2.99412 36.6819 2.99386 36.9073C2.99821 37.6233 3.02891 38.2537 3.26953 38.9375C3.30449 39.0412 3.33946 39.145 3.37548 39.2519C3.54402 39.5395 3.66225 39.5911 3.99609 39.7031C4.19589 39.7753 4.3957 39.8475 4.60156 39.9218C6.35984 39.9579 8.11812 39.994 9.92968 40.0312C9.92968 32.1267 9.92968 24.2222 9.92968 16.0781C6.50253 15.7687 6.50253 15.7687 3.4663 16.8711C2.95107 17.6586 2.99309 18.513 2.99411 19.4021C2.99423 19.6284 2.99265 19.8546 2.9906 20.0808C2.98503 20.7234 2.98202 21.3659 2.98122 22.0085C2.98061 22.4032 2.97768 22.7977 2.97331 23.1923C2.97212 23.3422 2.97184 23.492 2.97248 23.6418C2.97334 23.8509 2.97099 24.0601 2.96851 24.2692C2.96799 24.4474 2.96799 24.4474 2.96746 24.6292C2.8919 25.0097 2.75365 25.1385 2.42187 25.375C2.17968 25.4331 2.17968 25.4331 1.9375 25.4297C1.85757 25.4308 1.77765 25.4319 1.69531 25.4331C1.33576 25.3468 1.19924 25.1994 0.968746 24.9375C0.907238 24.5925 0.907238 24.5925 0.90607 24.1805C0.904797 24.0676 0.904797 24.0676 0.903498 23.9524C0.901369 23.7038 0.902778 23.4553 0.904415 23.2067C0.904088 23.0331 0.903618 22.8595 0.903011 22.686C0.902296 22.322 0.903334 21.958 0.905597 21.594C0.908346 21.1296 0.906776 20.6653 0.903868 20.201C0.902108 19.8422 0.90268 19.4835 0.903931 19.1248C0.904252 18.9537 0.903865 18.7826 0.90273 18.6116C0.897974 17.6925 0.906167 16.8877 1.45312 16.0781C1.50854 15.9908 1.56395 15.9035 1.62104 15.8136C2.36097 14.9045 3.27726 14.4664 4.48046 14.2187C4.92732 14.179 5.36857 14.1801 5.81723 14.1867C6.00011 14.1874 6.00011 14.1874 6.1867 14.1881C6.5716 14.1899 6.95642 14.194 7.3413 14.1982C7.60415 14.1999 7.86699 14.2014 8.12983 14.2027C8.77017 14.2063 9.41047 14.2118 10.0508 14.2187C10.0582 14.152 10.0656 14.0852 10.0732 14.0165C10.0834 13.9285 10.0937 13.8405 10.1042 13.7498C10.1141 13.6628 10.124 13.5757 10.1342 13.4861C10.289 12.4518 10.8729 11.5916 11.625 10.8281C11.7193 10.7288 11.7193 10.7288 11.8156 10.6275C12.569 9.88851 13.486 9.43581 14.4404 8.94138C14.6165 8.84881 14.7924 8.75609 14.9683 8.66324C15.314 8.48089 15.66 8.29912 16.0064 8.11786C16.5678 7.8236 17.1243 7.52217 17.6797 7.21872C18.3782 6.83876 19.0784 6.46145 19.7799 6.08609C19.8993 6.02221 19.8993 6.02221 20.0211 5.95703C20.727 5.5793 20.727 5.5793 21.018 5.42363C22.1385 4.82393 23.2545 4.21804 24.3662 3.6052C29.1055 0.993739 31.6943 0.424031 36.646 3.05564ZM27.0417 4.32712C26.8716 4.41978 26.7015 4.51233 26.5312 4.60478C26.1781 4.79662 25.8254 4.98894 25.4728 5.18156C24.9667 5.45763 24.4586 5.73057 23.9496 6.00235C23.8286 6.06695 23.8286 6.06695 23.7053 6.13285C23.5434 6.21927 23.3815 6.3057 23.2197 6.39211C21.7865 7.15771 20.3605 7.93327 18.94 8.71796C18.207 9.12166 17.4702 9.51799 16.7261 9.90482C16.6467 9.94623 16.5673 9.98763 16.4855 10.0303C16.1045 10.229 15.7228 10.4267 15.3398 10.6222C13.884 11.3793 12.8516 12.1589 12.1926 13.5761C11.9655 14.4339 11.9708 15.2852 11.9721 16.1624C11.9718 16.3021 11.9715 16.4418 11.9713 16.5857C11.9705 16.9717 11.9705 17.3578 11.9707 17.7438C11.9707 18.1608 11.97 18.5778 11.9695 18.9948C11.9684 19.8111 11.9681 20.6275 11.968 21.4438C11.968 22.1076 11.9677 22.7713 11.9674 23.4351C11.9663 25.3182 11.9657 27.2014 11.9658 29.0846C11.9658 29.1861 11.9658 29.2875 11.9658 29.392C11.9658 29.4936 11.9658 29.5952 11.9659 29.6998C11.9659 31.3458 11.9647 32.9919 11.963 34.6379C11.9613 36.3293 11.9605 38.0207 11.9606 39.7122C11.9606 40.6613 11.9603 41.6104 11.959 42.5594C11.9579 43.3675 11.9576 44.1755 11.9584 44.9836C11.9588 45.3955 11.9588 45.8075 11.9578 46.2194C11.9566 46.6668 11.9574 47.1141 11.9583 47.5615C11.9577 47.6906 11.9571 47.8197 11.9565 47.9527C11.9636 49.5057 12.2522 50.8176 13.4565 51.9804C14.4725 52.8369 15.6464 53.0771 17.0056 53.1011C18.3399 52.9335 19.4496 52.2799 20.5784 51.6591C20.7489 51.5664 20.9196 51.4738 21.0903 51.3812C21.6093 51.0993 22.127 50.8154 22.6445 50.5312C22.8023 50.4447 22.9601 50.3581 23.1179 50.2716C23.6287 49.9914 24.1394 49.711 24.65 49.4305C25.5406 48.9415 26.4313 48.4525 27.3293 47.9746C27.417 47.9271 27.5046 47.8796 27.5949 47.8306C29.1093 47.0326 30.8381 46.8093 32.5591 47.1406C34.2805 47.5904 35.7882 48.5255 37.2938 49.3732C38.3308 49.9567 39.3789 50.5226 40.4302 51.0849C40.5112 51.1283 40.5923 51.1718 40.6758 51.2165C41.1328 51.4611 41.5901 51.7052 42.0479 51.9487C42.1905 52.0246 42.333 52.1005 42.4755 52.1765C42.6759 52.2834 42.8766 52.39 43.0772 52.4966C43.1908 52.557 43.3044 52.6174 43.4214 52.6796C44.3867 53.1681 45.5567 53.183 46.6253 52.9755C47.8125 52.6241 48.7712 51.9427 49.4062 50.9687C49.8224 50.1916 50.0264 49.4664 50.0276 48.6002C50.0281 48.4789 50.0286 48.3576 50.029 48.2327C50.0289 48.0345 50.0289 48.0345 50.0287 47.8324C50.0293 47.6205 50.0293 47.6205 50.0298 47.4044C50.0308 47.0131 50.031 46.6218 50.0311 46.2305C50.0313 45.8082 50.0322 45.3859 50.0331 44.9636C50.0347 44.0405 50.0354 43.1173 50.036 42.1941C50.0363 41.6174 50.0368 41.0407 50.0373 40.4639C50.0388 38.8663 50.0401 37.2686 50.0405 35.6709C50.0405 35.5687 50.0405 35.4664 50.0406 35.3611C50.0406 35.2587 50.0406 35.1562 50.0406 35.0507C50.0407 34.8431 50.0408 34.6355 50.0408 34.4279C50.0408 34.3249 50.0409 34.2219 50.0409 34.1158C50.0414 32.4479 50.0435 30.7801 50.0463 29.1122C50.0492 27.3986 50.0507 25.6851 50.0508 23.9715C50.0509 23.0099 50.0516 22.0483 50.0538 21.0866C50.0557 20.2677 50.0563 19.4487 50.0553 18.6297C50.0548 18.2122 50.0549 17.7947 50.0566 17.3772C50.0585 16.9236 50.0575 16.4701 50.0562 16.0165C50.0572 15.8859 50.0582 15.7553 50.0592 15.6207C50.0503 14.2528 49.7709 12.9566 48.7037 11.9309C47.9169 11.2813 47.043 10.8143 46.1216 10.3427C45.9727 10.2656 45.8238 10.1883 45.675 10.111C45.4507 9.99427 45.2262 9.87764 45.0016 9.76139C44.3151 9.40569 43.6369 9.03815 42.9592 8.6692C42.5068 8.42299 42.0527 8.17942 41.5981 7.9365C41.4449 7.85461 41.2918 7.77272 41.1386 7.69083C41.0614 7.64954 40.9841 7.60824 40.9046 7.5657C39.6147 6.8759 38.3282 6.18156 37.0484 5.47671C36.0168 4.90878 34.985 4.34107 33.9441 3.78708C33.8127 3.71581 33.8127 3.71581 33.6786 3.6431C32.8336 3.19787 32.0052 2.9063 31.0151 2.90524C30.8831 2.90313 30.751 2.90102 30.615 2.89884C29.2759 3.05589 28.1717 3.70447 27.0417 4.32712ZM52.0703 16.0781C52.0703 23.9826 52.0703 31.8872 52.0703 40.0312C55.331 40.4293 55.331 40.4293 58.3464 39.5343C58.4032 39.475 58.46 39.4156 58.5186 39.3545C58.5766 39.2965 58.6347 39.2386 58.6945 39.1789C59.0859 38.5773 59.1294 37.8859 59.1245 37.2033C59.1251 37.0805 59.1251 37.0805 59.1256 36.9552C59.1266 36.6833 59.1259 36.4115 59.1251 36.1396C59.1254 35.9437 59.1258 35.7478 59.1264 35.5519C59.1275 35.0216 59.127 34.4912 59.1263 33.9608C59.1257 33.4049 59.1262 32.849 59.1266 32.2931C59.1271 31.3597 59.1265 30.4263 59.1253 29.4929C59.124 28.4149 59.1244 27.3368 59.1258 26.2587C59.1269 25.332 59.127 24.4052 59.1264 23.4784C59.126 22.9254 59.126 22.3724 59.1268 21.8194C59.1275 21.2994 59.127 20.7795 59.1256 20.2595C59.1253 20.069 59.1253 19.8786 59.1259 19.6881C59.1265 19.4274 59.1257 19.1667 59.1245 18.9061C59.1253 18.7939 59.1253 18.7939 59.1261 18.6796C59.1196 17.9498 59.0141 17.2465 58.4504 16.6933C58.3462 16.5872 58.3462 16.5872 58.2399 16.4789C56.729 15.3138 52.8371 16.0781 52.0703 16.0781Z" fill="#133E87"/>
<path d="M32.173 34.321C34.1203 32.757 35.646 31.4767 36.75 30.48C37.854 29.468 38.7817 28.4177 39.533 27.329C40.2997 26.225 40.683 25.144 40.683 24.086C40.683 23.0893 40.4377 22.3073 39.947 21.74C39.4717 21.1573 38.6973 20.866 37.624 20.866C36.5813 20.866 35.7687 21.1957 35.186 21.855C34.6187 22.499 34.312 23.3653 34.266 24.454H32.242C32.3033 22.7367 32.8247 21.4103 33.806 20.475C34.7873 19.5397 36.0523 19.072 37.601 19.072C39.1803 19.072 40.43 19.509 41.35 20.383C42.2853 21.257 42.753 22.4607 42.753 23.994C42.753 25.2667 42.3697 26.5087 41.603 27.72C40.8517 28.916 39.993 29.974 39.027 30.894C38.061 31.7987 36.8267 32.8567 35.324 34.068H43.236V35.816H32.173V34.321Z" fill="#133E87"/>
</svg>
