<svg width="62" height="56" viewBox="0 0 62 56" fill="none" xmlns="http://www.w3.org/2000/svg">
<path d="M32.38 23.557C32.4873 22.1463 33.0317 21.0423 34.013 20.245C34.9943 19.4477 36.267 19.049 37.831 19.049C38.8737 19.049 39.7707 19.2407 40.522 19.624C41.2887 19.992 41.8637 20.498 42.247 21.142C42.6457 21.786 42.845 22.5143 42.845 23.327C42.845 24.2777 42.569 25.098 42.017 25.788C41.4803 26.478 40.775 26.9227 39.901 27.122V27.237C40.8977 27.4823 41.6873 27.9653 42.27 28.686C42.8527 29.4067 43.144 30.3497 43.144 31.515C43.144 32.389 42.9447 33.1787 42.546 33.884C42.1473 34.574 41.5493 35.1183 40.752 35.517C39.9547 35.9157 38.9963 36.115 37.877 36.115C36.2517 36.115 34.9177 35.6933 33.875 34.85C32.8323 33.9913 32.2497 32.78 32.127 31.216H34.151C34.2583 32.136 34.634 32.8873 35.278 33.47C35.922 34.0527 36.7807 34.344 37.854 34.344C38.9273 34.344 39.74 34.068 40.292 33.516C40.8593 32.9487 41.143 32.2203 41.143 31.331C41.143 30.181 40.7597 29.353 39.993 28.847C39.2263 28.341 38.0687 28.088 36.52 28.088H35.991V26.34H36.543C37.9537 26.3247 39.0193 26.0947 39.74 25.65C40.4607 25.19 40.821 24.4847 40.821 23.534C40.821 22.7213 40.5527 22.0697 40.016 21.579C39.4947 21.0883 38.7433 20.843 37.762 20.843C36.8113 20.843 36.0447 21.0883 35.462 21.579C34.8793 22.0697 34.5343 22.729 34.427 23.557H32.38Z" fill="#133E87"/>
<path d="M28.489 19.8088C29.7515 20.628 30.447 21.628 30.82 23.0012C30.843 23.3081 30.8556 23.604 30.8552 23.9106C30.856 23.9983 30.8568 24.0859 30.8577 24.1761C30.8599 24.4639 30.8604 24.7517 30.8607 25.0396C30.8615 25.2413 30.8623 25.443 30.8631 25.6448C30.8646 26.0672 30.865 26.4897 30.8649 26.9121C30.8649 27.4504 30.8682 27.9886 30.8723 28.5268C30.875 28.9436 30.8755 29.3603 30.8754 29.777C30.8757 29.9753 30.8767 30.1736 30.8786 30.3718C30.8921 31.9306 30.7205 33.2227 29.6091 34.4855C29.5512 34.5528 29.4932 34.62 29.4336 34.6893C28.7168 35.4249 27.4329 36.0517 26.3405 36.1473C24.6351 36.2064 23.2121 36.0666 21.8581 35.0252C20.7541 34.0573 20.0861 32.8671 20.0257 31.4666C20.0242 31.319 20.0234 31.1713 20.0232 31.0237C20.0225 30.9425 20.0219 30.8613 20.0213 30.7777C20.0196 30.5106 20.0187 30.2435 20.0181 29.9764C20.0177 29.8845 20.0174 29.7926 20.017 29.698C20.0152 29.2114 20.0141 28.7248 20.0136 28.2382C20.0129 27.7388 20.01 27.2395 20.0066 26.7401C20.0043 26.3533 20.0037 25.9665 20.0035 25.5797C20.0031 25.3958 20.0022 25.2119 20.0006 25.028C19.9857 23.1907 20.2641 21.6779 21.6926 20.2826C23.5957 18.7305 26.3523 18.605 28.489 19.8088ZM23.0762 21.775C21.9938 22.8039 22.0467 23.9853 22.053 25.3185C22.0528 25.5011 22.0524 25.6838 22.052 25.8664C22.0514 26.2477 22.0522 26.629 22.0539 27.0103C22.056 27.4969 22.0548 27.9833 22.0526 28.4699C22.0513 28.8465 22.0517 29.2232 22.0526 29.5998C22.0529 29.7791 22.0526 29.9584 22.0517 30.1377C22.0466 31.5261 22.1356 32.5443 23.2587 33.5913C24.0658 34.241 24.8544 34.3467 25.9228 34.3155C26.749 34.2189 27.3905 33.9126 27.9592 33.3644C28.8238 32.2919 28.8334 31.2783 28.8257 29.9943C28.8261 29.8019 28.8265 29.6095 28.8271 29.4171C28.8279 29.0152 28.8268 28.6133 28.8246 28.2113C28.8218 27.6983 28.8234 27.1854 28.8263 26.6723C28.828 26.2754 28.8275 25.8785 28.8262 25.4816C28.8259 25.2925 28.8263 25.1034 28.8274 24.9144C28.8333 23.6531 28.7604 22.6113 27.7719 21.6417C26.3031 20.5022 24.4643 20.6242 23.0762 21.775Z" fill="#133E87"/>
<path d="M2.54292 26.4688C2.86892 26.7751 2.95246 26.992 2.95445 27.4122C2.95515 27.5551 2.95515 27.5551 2.95587 27.701C2.95446 27.7997 2.95306 27.8984 2.95161 28.0001C2.95302 28.0988 2.95442 28.1974 2.95587 28.2991C2.9554 28.3944 2.95493 28.4898 2.95445 28.5879C2.95404 28.6745 2.95363 28.7611 2.95321 28.8503C2.89393 29.1574 2.7798 29.3068 2.54292 29.5313C2.06176 29.652 1.80546 29.6861 1.34712 29.4971C1.08979 29.3126 1.08979 29.3126 0.9687 29.0938C0.936638 28.7345 0.940665 28.3741 0.938427 28.0137C0.935929 27.914 0.933432 27.8144 0.930859 27.7117C0.930234 27.6154 0.92961 27.5191 0.928967 27.4199C0.927835 27.3319 0.926703 27.2439 0.925537 27.1533C0.979748 26.8431 1.09502 26.6959 1.33198 26.4688C1.79151 26.3305 2.07351 26.3704 2.54292 26.4688Z" fill="#133E87"/>
<path d="M36.646 3.05539C36.7222 3.09582 36.7985 3.13625 36.877 3.17791C38.0438 3.79679 39.2061 4.42212 40.3653 5.05258C41.3085 5.5654 42.2549 6.07333 43.2022 6.58004C44.493 7.27079 45.7827 7.96335 47.067 8.66396C47.2114 8.74263 47.3558 8.82113 47.5003 8.89947C49.6095 10.0433 51.1401 11.149 51.8688 13.3456C51.9442 13.6512 51.9554 13.9074 51.9492 14.2185C52.0163 14.2177 52.0834 14.217 52.1525 14.2163C52.8559 14.209 53.5592 14.204 54.2626 14.2005C54.5245 14.1988 54.7864 14.1966 55.0483 14.1937C55.4265 14.1897 55.8046 14.1879 56.1828 14.1864C56.2984 14.1847 56.414 14.183 56.5331 14.1813C57.7802 14.181 58.8628 14.4647 59.8203 15.2029C60.6902 16.0267 61.0882 16.8654 61.0782 17.9947C61.0792 18.1293 61.0792 18.1293 61.0802 18.2667C61.0819 18.5652 61.081 18.8637 61.0802 19.1623C61.0809 19.3772 61.0817 19.5922 61.0827 19.8071C61.0849 20.3895 61.0847 20.9718 61.084 21.5542C61.0837 22.041 61.0844 22.5278 61.0851 23.0146C61.0868 24.1634 61.0866 25.3121 61.0853 26.4609C61.0839 27.6446 61.0856 28.8282 61.0888 30.0119C61.0915 31.0295 61.0923 32.0471 61.0916 33.0648C61.0912 33.6719 61.0915 34.2791 61.0936 34.8863C61.0954 35.4574 61.095 36.0286 61.0927 36.5997C61.0922 36.8088 61.0926 37.0179 61.0939 37.2269C61.102 38.6781 61.0202 39.7968 59.8629 40.9008C59.0431 41.5453 58.1472 41.9055 57.0606 41.9028C56.8933 41.9028 56.8933 41.9028 56.7227 41.9027C56.5447 41.9019 56.5447 41.9019 56.363 41.901C56.2402 41.9009 56.1174 41.9007 55.9909 41.9006C55.5998 41.9 55.2087 41.8986 54.8176 41.8972C54.552 41.8966 54.2864 41.8961 54.0208 41.8957C53.3706 41.8945 52.7205 41.8927 52.0703 41.8904C52.0708 41.979 52.0714 42.0676 52.0719 42.159C52.0768 43.0004 52.0805 43.8417 52.0829 44.6831C52.0841 45.1155 52.0858 45.5479 52.0886 45.9803C52.0912 46.3987 52.0927 46.8171 52.0933 47.2355C52.0937 47.394 52.0946 47.5525 52.0959 47.711C52.1118 49.6907 51.8755 51.4132 50.375 52.9372C50.2753 53.0483 50.2753 53.0483 50.1735 53.1615C49.2327 54.1254 47.662 54.7979 46.2468 54.9295C45.9826 54.943 45.7202 54.9466 45.4556 54.947C45.3702 54.9497 45.2848 54.9524 45.1968 54.9551C43.6213 54.9626 42.2857 54.3559 40.9751 53.6277C40.8233 53.5451 40.6714 53.4627 40.5193 53.3804C40.127 53.1674 39.736 52.9524 39.3454 52.7369C38.9715 52.5311 38.5963 52.3273 38.2212 52.1233C36.0481 50.9394 36.0481 50.9394 34.9961 50.3323C32.8128 49.0701 32.8128 49.0701 30.2734 48.8904C28.4403 49.2608 26.7252 50.462 25.1539 51.3408C24.1214 51.9177 23.0825 52.4845 22.039 53.0451C21.8692 53.1363 21.6995 53.2277 21.5298 53.3192C19.3556 54.4907 17.4238 55.291 14.8491 54.7829C13.0781 54.3109 11.6442 53.235 10.7286 51.7952C9.9165 50.4026 9.91142 48.9774 9.91786 47.4339C9.91808 47.2734 9.91826 47.113 9.91838 46.9525C9.91884 46.5334 9.92002 46.1143 9.92137 45.6952C9.92262 45.2662 9.92316 44.8373 9.92377 44.4083C9.92506 43.569 9.92713 42.7297 9.92968 41.8904C9.86232 41.8911 9.79495 41.8918 9.72555 41.8926C9.02026 41.8999 8.31498 41.9048 7.60966 41.9084C7.34693 41.91 7.0842 41.9123 6.82148 41.9151C6.44241 41.9191 6.0634 41.921 5.68431 41.9224C5.56809 41.9241 5.45187 41.9258 5.33213 41.9275C4.00308 41.9278 2.95262 41.539 1.96682 40.7317C0.913617 39.7182 0.895808 38.5201 0.904415 37.2086C0.904088 37.0322 0.903617 36.8558 0.903011 36.6794C0.902301 36.3119 0.903322 35.9444 0.905597 35.5768C0.90837 35.106 0.906758 34.6354 0.903868 34.1646C0.902118 33.8013 0.902675 33.438 0.903931 33.0747C0.904253 32.901 0.903859 32.7274 0.90273 32.5537C0.901499 32.3116 0.903373 32.0696 0.90607 31.8275C0.906456 31.6899 0.906841 31.5523 0.907238 31.4106C0.979481 31.0014 1.09306 30.8727 1.45312 30.6247C1.69531 30.5666 1.69531 30.5666 1.9375 30.57C2.01742 30.5689 2.09734 30.5678 2.17968 30.5666C2.53602 30.6521 2.67566 30.8051 2.90625 31.0622C2.96746 31.3747 2.96746 31.3747 2.96851 31.7406C2.97011 31.8779 2.97172 32.0152 2.97337 32.1566C2.97277 32.3062 2.97215 32.4558 2.97152 32.6054C2.97272 32.7597 2.97417 32.9139 2.97585 33.0681C2.97977 33.4741 2.98103 33.8801 2.98152 34.2862C2.98258 34.9345 2.98692 35.5827 2.99268 36.231C2.9942 36.4563 2.99412 36.6817 2.99386 36.9071C2.99821 37.6231 3.02891 38.2534 3.26953 38.9372C3.30449 39.041 3.33946 39.1448 3.37548 39.2517C3.54402 39.5392 3.66225 39.5909 3.99609 39.7029C4.19589 39.775 4.3957 39.8472 4.60156 39.9216C6.35984 39.9577 8.11812 39.9938 9.92968 40.031C9.92968 32.1264 9.92968 24.2219 9.92968 16.0779C6.50253 15.7685 6.50253 15.7685 3.4663 16.8708C2.95107 17.6584 2.99309 18.5127 2.99411 19.4019C2.99423 19.6281 2.99265 19.8543 2.9906 20.0806C2.98503 20.7231 2.98202 21.3657 2.98122 22.0083C2.98061 22.4029 2.97768 22.7975 2.97331 23.1921C2.97212 23.3419 2.97184 23.4918 2.97248 23.6416C2.97334 23.8507 2.97099 24.0598 2.96851 24.2689C2.96799 24.4471 2.96799 24.4471 2.96746 24.6289C2.8919 25.0095 2.75365 25.1383 2.42187 25.3747C2.17968 25.4328 2.17968 25.4328 1.9375 25.4294C1.85757 25.4305 1.77765 25.4317 1.69531 25.4328C1.33576 25.3466 1.19924 25.1991 0.968746 24.9372C0.907238 24.5923 0.907238 24.5923 0.90607 24.1803C0.904797 24.0673 0.904797 24.0673 0.903498 23.9521C0.901369 23.7035 0.902778 23.4551 0.904415 23.2065C0.904088 23.0329 0.903618 22.8593 0.903011 22.6857C0.902296 22.3217 0.903334 21.9577 0.905597 21.5937C0.908346 21.1294 0.906776 20.6651 0.903868 20.2007C0.902108 19.842 0.90268 19.4833 0.903931 19.1245C0.904252 18.9535 0.903865 18.7824 0.90273 18.6114C0.897974 17.6923 0.906167 16.8874 1.45312 16.0779C1.50854 15.9906 1.56395 15.9033 1.62104 15.8134C2.36097 14.9042 3.27726 14.4661 4.48046 14.2185C4.92732 14.1787 5.36857 14.1799 5.81723 14.1864C6.00011 14.1871 6.00011 14.1871 6.1867 14.1878C6.5716 14.1897 6.95642 14.1938 7.3413 14.198C7.60415 14.1996 7.86699 14.2011 8.12983 14.2025C8.77017 14.2061 9.41047 14.2115 10.0508 14.2185C10.0582 14.1517 10.0656 14.085 10.0732 14.0162C10.0834 13.9282 10.0937 13.8402 10.1042 13.7496C10.1141 13.6625 10.124 13.5755 10.1342 13.4858C10.289 12.4515 10.8729 11.5914 11.625 10.8279C11.7193 10.7286 11.7193 10.7286 11.8156 10.6273C12.569 9.88826 13.486 9.43556 14.4404 8.94113C14.6165 8.84856 14.7924 8.75585 14.9683 8.663C15.314 8.48064 15.66 8.29887 16.0064 8.11762C16.5678 7.82336 17.1243 7.52193 17.6797 7.21848C18.3782 6.83852 19.0784 6.4612 19.7799 6.08585C19.8993 6.02196 19.8993 6.02196 20.0211 5.95679C20.727 5.57905 20.727 5.57905 21.018 5.42338C22.1385 4.82368 23.2545 4.21779 24.3662 3.60496C29.1055 0.993495 31.6943 0.423786 36.646 3.05539ZM27.0417 4.32688C26.8716 4.41954 26.7015 4.51209 26.5312 4.60453C26.1781 4.79638 25.8254 4.98869 25.4728 5.18131C24.9667 5.45739 24.4586 5.73033 23.9496 6.00211C23.8286 6.0667 23.8286 6.0667 23.7053 6.1326C23.5434 6.21903 23.3815 6.30545 23.2197 6.39187C21.7865 7.15746 20.3605 7.93302 18.94 8.71771C18.207 9.12142 17.4702 9.51775 16.7261 9.90457C16.6467 9.94598 16.5673 9.98739 16.4855 10.0301C16.1045 10.2288 15.7228 10.4264 15.3398 10.622C13.884 11.3791 12.8516 12.1587 12.1926 13.5759C11.9655 14.4337 11.9708 15.285 11.9721 16.1621C11.9718 16.3018 11.9715 16.4415 11.9713 16.5855C11.9705 16.9715 11.9705 17.3575 11.9707 17.7435C11.9707 18.1606 11.97 18.5776 11.9695 18.9946C11.9684 19.8109 11.9681 20.6272 11.968 21.4436C11.968 22.1073 11.9677 22.7711 11.9674 23.4348C11.9663 25.318 11.9657 27.2012 11.9658 29.0844C11.9658 29.1858 11.9658 29.2873 11.9658 29.3918C11.9658 29.4933 11.9658 29.5949 11.9659 29.6996C11.9659 31.3456 11.9647 32.9916 11.963 34.6376C11.9613 36.3291 11.9605 38.0205 11.9606 39.7119C11.9606 40.661 11.9603 41.6101 11.959 42.5592C11.9579 43.3672 11.9576 44.1753 11.9584 44.9833C11.9588 45.3953 11.9588 45.8072 11.9578 46.2192C11.9566 46.6666 11.9574 47.1139 11.9583 47.5613C11.9577 47.6904 11.9571 47.8195 11.9565 47.9525C11.9636 49.5054 12.2522 50.8174 13.4565 51.9802C14.4725 52.8367 15.6464 53.0769 17.0056 53.1009C18.3399 52.9332 19.4496 52.2796 20.5784 51.6589C20.7489 51.5662 20.9196 51.4735 21.0903 51.381C21.6093 51.0991 22.127 50.8152 22.6445 50.531C22.8023 50.4444 22.9601 50.3579 23.1179 50.2714C23.6287 49.9912 24.1394 49.7108 24.65 49.4303C25.5406 48.9412 26.4313 48.4523 27.3293 47.9743C27.417 47.9268 27.5046 47.8793 27.5949 47.8304C29.1093 47.0324 30.8381 46.8091 32.5591 47.1404C34.2805 47.5901 35.7882 48.5252 37.2938 49.3729C38.3308 49.9565 39.3789 50.5224 40.4302 51.0847C40.5112 51.1281 40.5923 51.1715 40.6758 51.2162C41.1328 51.4609 41.5901 51.705 42.0479 51.9484C42.1905 52.0243 42.333 52.1003 42.4755 52.1763C42.6759 52.2832 42.8766 52.3898 43.0772 52.4963C43.1908 52.5567 43.3044 52.6171 43.4214 52.6794C44.3867 53.1678 45.5567 53.1827 46.6253 52.9753C47.8125 52.6239 48.7712 51.9425 49.4062 50.9685C49.8224 50.1914 50.0264 49.4662 50.0276 48.5999C50.0281 48.4786 50.0286 48.3574 50.029 48.2324C50.0289 48.0343 50.0289 48.0343 50.0287 47.8321C50.0293 47.6203 50.0293 47.6203 50.0298 47.4042C50.0308 47.0129 50.031 46.6216 50.0311 46.2303C50.0313 45.808 50.0322 45.3857 50.0331 44.9634C50.0347 44.0402 50.0354 43.1171 50.036 42.1939C50.0363 41.6172 50.0368 41.0404 50.0373 40.4637C50.0388 38.866 50.0401 37.2683 50.0405 35.6706C50.0405 35.5684 50.0405 35.4662 50.0406 35.3609C50.0406 35.2584 50.0406 35.156 50.0406 35.0504C50.0407 34.8428 50.0408 34.6352 50.0408 34.4276C50.0408 34.3247 50.0409 34.2217 50.0409 34.1156C50.0414 32.4477 50.0435 30.7798 50.0463 29.1119C50.0492 27.3984 50.0507 25.6848 50.0508 23.9713C50.0509 23.0097 50.0516 22.048 50.0538 21.0864C50.0557 20.2674 50.0563 19.4485 50.0553 18.6295C50.0548 18.212 50.0549 17.7945 50.0566 17.377C50.0585 16.9234 50.0575 16.4699 50.0562 16.0163C50.0572 15.8857 50.0582 15.755 50.0592 15.6204C50.0503 14.2525 49.7709 12.9563 48.7037 11.9307C47.9169 11.2811 47.043 10.8141 46.1216 10.3425C45.9727 10.2654 45.8238 10.1881 45.675 10.1107C45.4507 9.99403 45.2262 9.87739 45.0016 9.76114C44.3151 9.40545 43.6369 9.03791 42.9592 8.66895C42.5068 8.42274 42.0527 8.17917 41.5981 7.93625C41.4449 7.85436 41.2918 7.77247 41.1386 7.69058C41.0614 7.64929 40.9841 7.608 40.9046 7.56545C39.6147 6.87566 38.3282 6.18131 37.0484 5.47647C36.0168 4.90854 34.985 4.34083 33.9441 3.78684C33.8127 3.71557 33.8127 3.71557 33.6786 3.64285C32.8336 3.19762 32.0052 2.90605 31.0151 2.905C30.8831 2.90289 30.751 2.90077 30.615 2.89859C29.2759 3.05565 28.1717 3.70422 27.0417 4.32688ZM52.0703 16.0779C52.0703 23.9824 52.0703 31.8869 52.0703 40.031C55.331 40.4291 55.331 40.4291 58.3464 39.5341C58.4032 39.4747 58.46 39.4154 58.5186 39.3542C58.5766 39.2963 58.6347 39.2383 58.6945 39.1786C59.0859 38.577 59.1294 37.8857 59.1245 37.203C59.1251 37.0802 59.1251 37.0802 59.1256 36.9549C59.1266 36.6831 59.1259 36.4113 59.1251 36.1394C59.1254 35.9435 59.1258 35.7476 59.1264 35.5517C59.1275 35.0213 59.127 34.491 59.1263 33.9606C59.1257 33.4047 59.1262 32.8488 59.1266 32.2929C59.1271 31.3595 59.1265 30.4261 59.1253 29.4927C59.124 28.4146 59.1244 27.3366 59.1258 26.2585C59.1269 25.3317 59.127 24.405 59.1264 23.4782C59.126 22.9252 59.126 22.3722 59.1268 21.8192C59.1275 21.2992 59.127 20.7792 59.1256 20.2593C59.1253 20.0688 59.1253 19.8783 59.1259 19.6878C59.1265 19.4272 59.1257 19.1665 59.1245 18.9058C59.1253 18.7937 59.1253 18.7937 59.1261 18.6793C59.1196 17.9495 59.0141 17.2462 58.4504 16.6931C58.3462 16.5869 58.3462 16.5869 58.2399 16.4786C56.729 15.3136 52.8371 16.0779 52.0703 16.0779Z" fill="#133E87"/>
</svg>
